<svg xmlns="http://www.w3.org/2000/svg" viewBox="0 0 2004 1005.73"><defs><style>.cls-1{fill:#fff;}.cls-2{fill:#eefcff;}.cls-3{fill:#cad873;}.cls-4{fill:#f0fcff;}.cls-5{fill:#e1f7ff;}.cls-6{fill:#cde079;}.cls-7{fill:#9fc445;}.cls-8{fill:#7c7c7c;}.cls-9{fill:#7c5d5d;}.cls-10{fill:#8e7272;}.cls-11{fill:#725757;}.cls-12{fill:#fcc68b;}.cls-13{opacity:0.12;}.cls-14{fill:#7f6262;}.cls-15{fill:#4e9fa8;}.cls-16{fill:#f7c79f;}.cls-17{fill:#755757;}.cls-18{fill:#448d99;}.cls-19{fill:#ffdabb;}.cls-20{fill:#efb27b;}.cls-21{fill:#fff1e6;}.cls-22{fill:#a08787;}.cls-23{fill:#846969;}.cls-24{fill:#57b8bc;}.cls-25{fill:#9e8282;}.cls-26{fill:#b29797;}.cls-27{fill:#e57373;}.cls-28{fill:#eaeaea;}.cls-29{fill:#c66666;}.cls-30{fill:#cecdcc;}.cls-31{fill:#b5b5b5;}.cls-32{fill:#dbdad9;}.cls-33{fill:#b7a5a5;}.cls-34{fill:#f9dec0;}.cls-35{fill:#9b7e7e;}.cls-36{fill:#edc69f;}.cls-37{fill:#479093;}.cls-38{fill:#ffebd7;}.cls-39{fill:#f7d2c4;}.cls-40{fill:#dbb391;}.cls-41{fill:#7f7f7e;}.cls-42{fill:#6b6b6a;}.cls-43{fill:#c99a7b;}.cls-44{fill:#ff9173;}.cls-45{fill:#cca8a8;}.cls-46{fill:#468e91;}.cls-47{fill:#f7605e;}.cls-48{fill:#e54c4c;}.cls-49{fill:#ddd;}.cls-50{fill:#e56248;}.cls-51{opacity:0.15;}.cls-52{fill:#f4c3bd;}.cls-53{fill:#ffd9d4;}.cls-54{fill:#c95043;}.cls-55{fill:#77716e;}.cls-56{fill:#686462;}.cls-57{fill:#f5f5f5;}.cls-58{fill:#cecece;}.cls-59{fill:#a59f9d;}.cls-60{fill:#7c7776;}.cls-61{fill:#b7b7b7;}.cls-62{fill:#d3cecb;}.cls-63{fill:#9e9e9e;}.cls-64{fill:#c4c2c2;}.cls-65{fill:#727272;}.cls-66,.cls-74{fill:#686868;}.cls-67{fill:#d6d6d6;}.cls-68{fill:#a5a5a5;}.cls-69{fill:#a59c9a;}.cls-70{fill:#dd8d36;}.cls-104,.cls-105,.cls-106,.cls-107,.cls-108,.cls-109,.cls-70,.cls-71,.cls-72,.cls-73,.cls-74,.cls-75,.cls-76,.cls-78{fill-rule:evenodd;}.cls-71{fill:#f29e38;}.cls-72{fill:#ffb448;}.cls-73{fill:#bbdcf9;}.cls-75,.cls-77{fill:#565555;}.cls-76{fill:#dae9ef;}.cls-78{fill:#fff5e1;}.cls-79{fill:#685050;}.cls-80{fill:#60605f;}.cls-81{fill:#8e8e8e;}.cls-82{fill:#8c8c8c;}.cls-83{fill:#aaa;}.cls-84{fill:#adadad;}.cls-85{fill:#c1bfbf;}.cls-86{fill:#9b9692;}.cls-87{fill:#c1c1c1;}.cls-88{fill:#dbdbdb;}.cls-89{fill:#afadac;}.cls-90{fill:#5eb3b7;}.cls-91{fill:#c6c6c6;}.cls-92{fill:#999;}.cls-93{fill:#bad670;}.cls-94{fill:#d3ea8c;}.cls-95{fill:#9cb557;}.cls-96{fill:#a0837f;}.cls-97{fill:#967a74;}.cls-98{fill:#adce52;}.cls-99{fill:#b2877f;}.cls-100{fill:#a3786d;}.cls-101{fill:#88cc75;}.cls-102{fill:#80c16b;}.cls-103{fill:#79b264;}.cls-104{fill:#ff6a4d;}.cls-105{fill:#ed5f4c;}.cls-106{fill:#a7b7d9;}.cls-107{fill:#e2e2e2;}.cls-108{fill:#ce3e30;}.cls-109{fill:#a2d9f7;}.cls-110{fill:#6091d8;}.cls-111{fill:#87cbf4;}.cls-112{fill:#5c6777;}.cls-113{fill:#5f6b77;}.cls-114{fill:#ffc9a4;}.cls-115{fill:#abe9ff;}.cls-116{fill:#616a7a;}.cls-117{fill:#ead9ce;}.cls-118{fill:#fff4e6;}.cls-119{fill:#3d838e;}.cls-120{fill:#58b5bc;}.cls-121{fill:#72c5ce;}</style></defs><title>cidade_150x</title><g id="Camada_2" data-name="Camada 2"><g id="background"><rect class="cls-1" width="2004" height="1005.73"/></g><g id="illustration"><polygon class="cls-2" points="1763.31 354.5 1763.31 366.48 1744.65 366.48 1744.65 354.5 1674.87 354.5 1675.11 370.62 1646.06 370.62 1646.06 319.14 1619.33 319.14 1619.33 287.77 1587.35 253.32 1558.9 287.77 1558.9 316.82 1525.78 316.82 1525.78 292.84 1471.75 259.72 1471.75 343.16 1443.86 343.16 1443.86 293.26 1401.03 293.26 1401.03 319.73 1361.94 319.73 1361.85 265.39 1321.74 265.39 1321.74 276.97 1305.07 276.97 1305.07 265.39 1264.91 265.39 1264.91 326.86 1176.59 327.31 1176.59 260.18 1145.21 260.18 1145.21 278.77 1113.84 278.77 1113.84 354.46 1004.88 354.53 1004.88 384.45 965.63 384.45 965.63 276.11 901.36 276.15 901.36 256.39 879.28 256.39 879.28 277.31 839.6 277.31 839.6 366.79 798.93 366.79 798.93 327.28 767.55 327.28 767.55 302.88 738.5 302.88 738.5 277.31 696.67 277.31 696.67 354.5 669.94 354.5 669.94 308.69 625.78 308.69 625.78 330.76 588.6 330.76 588.6 288.93 564.19 288.93 518.29 243.03 474.71 286.61 453.8 286.61 453.8 318.68 408.48 318.68 408.48 284.28 379.43 284.28 379.43 248.26 356.19 248.26 356.19 283.12 343.4 283.12 343.4 231.99 323.65 231.99 323.65 283.12 291.11 283.12 291.11 380.69 256.25 380.69 256.25 356.33 193.59 356.33 193.59 717.03 1780.85 718.19 1780.85 354.5 1763.31 354.5"/><path class="cls-3" d="M1845.84,716.32v-4.63a13.2,13.2,0,0,0-13.2-13.2h0c-48.79,0-123-17.64-123-17.64s-64.51-20.32-104.53-20.32-104.53,20.32-104.53,20.32-74.24,17.64-123,17.64h-5.3a13.2,13.2,0,0,0-13.21,13.2v4.63Z"/><path class="cls-3" d="M601.1,716.32V712a12.22,12.22,0,0,0-12.23-12.23h0c-45.18,0-113.93-16.34-113.93-16.34s-59.74-18.81-96.8-18.81-96.81,18.82-96.81,18.82-68.75,16.33-113.93,16.33h-4.91A12.22,12.22,0,0,0,150.26,712v4.28Z"/><path class="cls-4" d="M637.8,212.47a28.22,28.22,0,0,1,52.55-18.55,24.61,24.61,0,0,1,29.13-4.77,31.38,31.38,0,0,1,35-15.44A36.11,36.11,0,0,1,825,179.44a27.54,27.54,0,0,1,3.87-.27,28.23,28.23,0,0,1,27.76,33.3Z"/><path class="cls-4" d="M1513.84,215.9a24.94,24.94,0,0,0,.4-4.44,24.64,24.64,0,0,0-46.3-11.76,21.47,21.47,0,0,0-25.43-4.16,27.42,27.42,0,0,0-30.6-13.49,31.53,31.53,0,0,0-61.5,5,25.28,25.28,0,0,0-3.39-.24,24.64,24.64,0,0,0-24.64,24.64,24.94,24.94,0,0,0,.41,4.44Z"/><path class="cls-4" d="M1749,238.19a19.78,19.78,0,0,0-13.35,5.18,28,28,0,0,0-51.84,14.68h85.06A19.87,19.87,0,0,0,1749,238.19Z"/><path class="cls-4" d="M228.77,279.76a19.76,19.76,0,0,0-13.35,5.18,28,28,0,0,0-51.85,14.68h85.06A19.86,19.86,0,0,0,228.77,279.76Z"/><path class="cls-5" d="M1227.24,174.47a22.93,22.93,0,0,0-14.54-12.7l1.17-3.67a28,28,0,0,1,13.37,8.94,28,28,0,0,1,13.37-8.94l1.17,3.67c-9.21,2.93-12.81,9.48-12.85,9.54Z"/><path class="cls-5" d="M1192.05,196.79c-1.21-1.93-3.14-6.24-10.74-8.31l1-3.72a21.6,21.6,0,0,1,9.74,5.48,21.6,21.6,0,0,1,9.74-5.48l1,3.72C1195.55,190.47,1193.55,194.47,1192.05,196.79Z"/><path class="cls-6" d="M1862,768.62h-1725A26.65,26.65,0,0,1,110.42,742h0a26.64,26.64,0,0,1,26.64-26.64H1862A26.64,26.64,0,0,1,1888.67,742h0A26.64,26.64,0,0,1,1862,768.62Z"/><path class="cls-7" d="M1838.23,768.62H165.53a12.89,12.89,0,0,1-12.88-12.89h0a12.88,12.88,0,0,1,12.88-12.88h1672.7a12.89,12.89,0,0,1,0,25.77Z"/><path class="cls-8" d="M1774.05,812.41H256.18a22.94,22.94,0,0,1-22.94-22.94h0a22.94,22.94,0,0,1,22.94-22.94H1774.05A22.94,22.94,0,0,1,1797,789.47h0A22.94,22.94,0,0,1,1774.05,812.41Z"/><path class="cls-1" d="M1777.2,791.5H1761v-4.06h16.25Zm-32.51,0h-16.25v-4.06h16.25Zm-32.5,0h-16.25v-4.06h16.25Zm-32.5,0h-16.26v-4.06h16.26Zm-32.51,0h-16.25v-4.06h16.25Zm-32.5,0h-16.26v-4.06h16.26Zm-32.51,0h-16.25v-4.06h16.25Zm-32.5,0h-16.25v-4.06h16.25Zm-32.51,0h-16.25v-4.06h16.25Zm-32.5,0h-16.25v-4.06h16.25Zm-32.51,0H1435.9v-4.06h16.25Zm-32.5,0H1403.4v-4.06h16.25Zm-32.5,0h-16.26v-4.06h16.26Zm-32.51,0h-16.25v-4.06h16.25Zm-32.5,0h-16.26v-4.06h16.26Zm-32.51,0h-16.25v-4.06h16.25Zm-32.5,0h-16.25v-4.06h16.25Zm-32.51,0h-16.25v-4.06h16.25Zm-32.5,0h-16.25v-4.06h16.25Zm-32.5,0h-16.26v-4.06h16.26Zm-32.51,0h-16.25v-4.06h16.25Zm-32.5,0h-16.26v-4.06h16.26Zm-32.51,0h-16.25v-4.06h16.25Zm-32.5,0h-16.25v-4.06h16.25Zm-32.51,0H980.84v-4.06h16.25Zm-32.5,0H948.34v-4.06h16.25Zm-32.51,0H915.83v-4.06h16.25Zm-32.5,0H883.33v-4.06h16.25Zm-32.5,0H850.82v-4.06h16.26Zm-32.51,0H818.32v-4.06h16.25Zm-32.5,0H785.82v-4.06h16.25Zm-32.51,0H753.31v-4.06h16.25Zm-32.5,0H720.81v-4.06h16.25Zm-32.51,0H688.3v-4.06h16.25Zm-32.5,0H655.8v-4.06h16.25Zm-32.5,0H623.29v-4.06h16.26Zm-32.51,0H590.79v-4.06H607Zm-32.5,0H558.29v-4.06h16.25Zm-32.51,0H525.78v-4.06H542Zm-32.5,0H493.28v-4.06h16.25Zm-32.51,0H460.77v-4.06H477Zm-32.5,0H428.27v-4.06h16.25Zm-32.5,0H395.76v-4.06H412Zm-32.51,0H363.26v-4.06h16.25Zm-32.5,0H330.76v-4.06H347Zm-32.51,0H298.25v-4.06H314.5Zm-32.5,0H265.75v-4.06H282Zm-32.51,0H233.24v-4.06h16.25Z"/><rect class="cls-9" x="584.48" y="359.03" width="18.93" height="39.31"/><rect class="cls-10" x="581.35" y="353.09" width="25.2" height="7.42"/><rect class="cls-11" x="584.55" y="360.44" width="18.9" height="4.54"/><polygon class="cls-10" points="766.58 381.49 762.34 381.49 546.08 381.49 546.01 449.87 762.29 449.87 766.33 449.87 796.16 449.87 796.34 381.49 766.58 381.49"/><polygon class="cls-9" points="759.42 448.11 755.39 448.11 539.11 448.11 539.11 455.16 755.39 455.16 759.42 455.16 789.26 455.16 789.26 448.11 759.42 448.11"/><polygon class="cls-12" points="684.57 455.16 673.93 455.16 543.4 455.16 543.4 573.61 543.4 575.82 543.4 623.53 673.93 623.53 684.57 623.53 785.16 623.53 785.16 575.82 785.16 573.61 785.16 455.16 684.57 455.16"/><polygon class="cls-10" points="684.57 625.22 673.93 625.22 543.4 625.22 543.4 706.18 543.4 707.69 543.4 740.3 673.93 740.3 684.57 740.3 785.16 740.3 785.16 707.69 785.16 706.18 785.16 625.22 684.57 625.22"/><rect class="cls-9" x="543.83" y="729.34" width="240.19" height="13.01"/><polygon class="cls-13" points="774.72 454.68 759.57 454.68 543.29 454.68 543.29 460.55 759.57 460.55 774.72 460.55 785.5 460.55 785.5 454.68 774.72 454.68"/><rect class="cls-14" x="640.45" y="663.19" width="50.45" height="65.98"/><rect class="cls-15" x="649.35" y="672.05" width="32.75" height="57.23"/><rect class="cls-16" x="649.35" y="672.05" width="3.03" height="57.21"/><rect class="cls-16" x="679.05" y="672.05" width="3.03" height="57.21"/><rect class="cls-16" x="664.14" y="657.25" width="3.03" height="32.58" transform="translate(-7.88 1339.19) rotate(-90)"/><path class="cls-17" d="M649.35,672.05l-8.9-8.9h50.91l-9.25,8.9S649.53,671.87,649.35,672.05Z"/><polygon class="cls-12" points="694.49 408.56 664.9 395.69 637.32 408.56 637.32 470.92 694.49 470.92 694.49 408.56"/><rect class="cls-18" x="654.27" y="420.8" width="24.75" height="22.71"/><rect class="cls-15" x="657.41" y="423.95" width="18.46" height="19.38"/><polygon class="cls-19" points="678.66 421.31 678.66 443.51 682.69 443.51 682.69 417.31 678.66 421.31"/><polygon class="cls-20" points="650.75 417.31 654.67 421.31 678.66 421.31 682.69 417.31 682.69 417.22 650.75 417.31"/><polygon class="cls-19" points="654.67 421.31 654.67 443.51 650.64 443.51 650.64 417.31 654.67 421.31"/><polygon class="cls-13" points="637.32 418.87 666.08 402.73 694.49 419.04 694.49 411.4 686.84 406.98 665.7 395.76 639.85 409.52 637.32 411.03 637.32 418.87"/><polygon class="cls-9" points="630.94 417.66 665.98 397.34 702.22 417.66 702.22 410.14 665.84 389.14 630.94 409.93 630.94 417.66"/><rect class="cls-21" x="531.67" y="367.85" width="14.18" height="308.1"/><rect class="cls-19" x="531.67" y="434.67" width="14.18" height="308.1"/><rect class="cls-21" x="782.47" y="367.85" width="14.18" height="308.1"/><rect class="cls-18" x="568.53" y="484.84" width="45.67" height="50.47"/><rect class="cls-15" x="572.16" y="488.68" width="38.34" height="46.44"/><polygon class="cls-19" points="613.84 485.35 613.84 535.31 617.86 535.31 617.86 481.35 613.84 485.35"/><polygon class="cls-20" points="565.01 481.35 568.93 485.35 613.84 485.35 617.86 481.35 617.86 481.26 565.01 481.35"/><polygon class="cls-19" points="568.93 485.35 568.93 535.32 564.9 535.31 564.9 481.35 568.93 485.35"/><rect class="cls-18" x="590.86" y="507.95" width="2.27" height="26.99" transform="translate(1183.99 1042.9) rotate(180)"/><rect class="cls-18" x="590.41" y="487.19" width="2.27" height="41.98" transform="translate(1099.73 -83.37) rotate(90)"/><rect class="cls-18" x="650.27" y="484.84" width="31.41" height="50.47"/><rect class="cls-15" x="653.91" y="488.68" width="24.08" height="46.44"/><polygon class="cls-19" points="681.33 485.35 681.33 535.31 685.36 535.31 685.36 481.35 681.33 485.35"/><polygon class="cls-20" points="646.75 481.35 650.68 485.35 681.33 485.35 685.36 481.35 685.36 481.26 646.75 481.35"/><polygon class="cls-19" points="650.67 485.35 650.67 535.32 646.65 535.31 646.65 481.35 650.67 485.35"/><rect class="cls-18" x="664.78" y="490.7" width="2.27" height="27.01" transform="translate(1170.12 -161.72) rotate(90)"/><rect class="cls-18" x="650.27" y="557.16" width="31.41" height="50.47"/><rect class="cls-15" x="653.91" y="561" width="24.08" height="46.44"/><polygon class="cls-19" points="681.33 557.67 681.33 607.63 685.36 607.63 685.36 553.66 681.33 557.67"/><polygon class="cls-20" points="646.75 553.66 650.68 557.67 681.33 557.67 685.36 553.66 685.36 553.58 646.75 553.66"/><polygon class="cls-19" points="650.67 557.67 650.67 607.63 646.65 607.63 646.65 553.66 650.67 557.67"/><rect class="cls-18" x="664.78" y="563.01" width="2.27" height="27.01" transform="translate(1242.44 -89.4) rotate(90)"/><rect class="cls-18" x="717.76" y="484.84" width="45.67" height="50.47"/><rect class="cls-15" x="721.4" y="488.68" width="38.34" height="46.44"/><polygon class="cls-19" points="763.08 485.35 763.08 535.31 767.1 535.31 767.1 481.35 763.08 485.35"/><polygon class="cls-20" points="714.25 481.35 718.17 485.35 763.08 485.35 767.1 481.35 767.1 481.26 714.25 481.35"/><polygon class="cls-19" points="718.16 485.35 718.16 535.32 714.14 535.31 714.14 481.35 718.16 485.35"/><rect class="cls-18" x="740.09" y="507.95" width="2.27" height="26.99" transform="translate(1482.46 1042.9) rotate(180)"/><rect class="cls-18" x="739.65" y="487.19" width="2.27" height="41.98" transform="translate(1248.96 -232.6) rotate(90)"/><rect class="cls-18" x="568.53" y="556.9" width="45.67" height="50.47"/><rect class="cls-15" x="572.16" y="560.74" width="38.34" height="46.44"/><polygon class="cls-19" points="613.84 557.41 613.84 607.37 617.86 607.37 617.86 553.4 613.84 557.41"/><polygon class="cls-20" points="565.01 553.4 568.93 557.41 613.84 557.41 617.86 553.4 617.86 553.32 565.01 553.4"/><polygon class="cls-19" points="568.93 557.41 568.93 607.37 564.9 607.37 564.9 553.4 568.93 557.41"/><rect class="cls-18" x="590.86" y="580.01" width="2.27" height="26.99" transform="translate(1183.99 1187.01) rotate(180)"/><rect class="cls-18" x="590.41" y="559.25" width="2.27" height="41.98" transform="translate(1171.78 -11.31) rotate(90)"/><rect class="cls-18" x="717.76" y="556.9" width="45.67" height="50.47"/><rect class="cls-15" x="721.4" y="560.74" width="38.34" height="46.44"/><polygon class="cls-19" points="763.08 557.41 763.08 607.37 767.1 607.37 767.1 553.4 763.08 557.41"/><polygon class="cls-20" points="714.25 553.4 718.17 557.41 763.08 557.41 767.1 553.4 767.1 553.32 714.25 553.4"/><polygon class="cls-19" points="718.16 557.41 718.16 607.37 714.14 607.37 714.14 553.4 718.16 557.41"/><rect class="cls-18" x="740.09" y="580.01" width="2.27" height="26.99" transform="translate(1482.46 1187.01) rotate(180)"/><rect class="cls-18" x="739.65" y="559.25" width="2.27" height="41.98" transform="translate(1321.02 -160.55) rotate(90)"/><rect class="cls-18" x="568.53" y="666.86" width="45.67" height="46.02"/><rect class="cls-15" x="572.16" y="670.7" width="38.34" height="41.99"/><polygon class="cls-22" points="613.84 667.37 613.84 712.88 617.86 712.88 617.86 663.36 613.84 667.37"/><polygon class="cls-23" points="565.01 663.36 568.93 667.37 613.84 667.37 617.86 663.36 617.86 663.28 565.01 663.36"/><polygon class="cls-22" points="568.93 667.37 568.93 712.88 564.9 712.88 564.9 663.36 568.93 667.37"/><polygon class="cls-24" points="610.43 674.41 572.2 712.65 575.82 712.65 610.57 677.89 610.43 674.41"/><polygon class="cls-24" points="610.53 683.6 581.34 712.79 584.96 712.79 610.67 687.08 610.53 683.6"/><rect class="cls-18" x="717.76" y="666.86" width="45.67" height="46.02"/><rect class="cls-15" x="721.4" y="670.7" width="38.34" height="41.99"/><polygon class="cls-22" points="763.08 667.37 763.08 712.88 767.1 712.88 767.1 663.36 763.08 667.37"/><polygon class="cls-23" points="714.25 663.36 718.17 667.37 763.08 667.37 767.1 663.36 767.1 663.28 714.25 663.36"/><polygon class="cls-22" points="718.16 667.37 718.16 712.88 714.14 712.88 714.14 663.36 718.16 667.37"/><polygon class="cls-24" points="759.21 674.36 720.97 712.6 724.59 712.6 759.35 677.84 759.21 674.36"/><polygon class="cls-24" points="759.3 683.55 730.11 712.73 733.73 712.73 759.44 687.03 759.3 683.55"/><rect class="cls-19" x="782.47" y="434.67" width="14.18" height="307.55"/><rect class="cls-25" x="640.45" y="733.32" width="50.49" height="4.94"/><rect class="cls-26" x="640.45" y="738.27" width="50.49" height="4.07"/><rect class="cls-10" x="640.45" y="729.08" width="50.49" height="4.68"/><rect class="cls-27" x="546.3" y="630.11" width="14.12" height="17.41"/><rect class="cls-28" x="559.87" y="630.11" width="14.12" height="17.41"/><rect class="cls-27" x="573.99" y="630.11" width="14.12" height="17.41"/><rect class="cls-28" x="587.56" y="630.11" width="14.12" height="17.41"/><rect class="cls-27" x="601.68" y="630.11" width="14.12" height="17.41"/><rect class="cls-28" x="615.25" y="630.11" width="14.12" height="17.41"/><rect class="cls-27" x="629.37" y="630.11" width="14.12" height="17.41"/><rect class="cls-28" x="642.94" y="630.11" width="14.12" height="17.41"/><rect class="cls-27" x="657.06" y="630.11" width="14.12" height="17.41"/><rect class="cls-28" x="670.63" y="630.11" width="14.12" height="17.41"/><rect class="cls-27" x="684.75" y="630.11" width="14.12" height="17.41"/><rect class="cls-28" x="698.33" y="630.11" width="14.12" height="17.41"/><rect class="cls-27" x="712.44" y="630.11" width="14.12" height="17.41"/><rect class="cls-28" x="726.02" y="630.11" width="14.12" height="17.41"/><rect class="cls-27" x="740.13" y="630.11" width="14.12" height="17.41"/><rect class="cls-27" x="767.82" y="630.11" width="14.12" height="17.41"/><rect class="cls-28" x="753.71" y="630.11" width="14.12" height="17.41"/><path class="cls-29" d="M546.3,647.14h14.12a0,0,0,0,1,0,0V653a6.18,6.18,0,0,1-6.18,6.18h-1.76A6.18,6.18,0,0,1,546.3,653v-5.87A0,0,0,0,1,546.3,647.14Z"/><path class="cls-30" d="M559.87,647.14H574a0,0,0,0,1,0,0V653a6.18,6.18,0,0,1-6.18,6.18h-1.76a6.18,6.18,0,0,1-6.18-6.18v-5.87A0,0,0,0,1,559.87,647.14Z"/><path class="cls-29" d="M574,647.14h14.12a0,0,0,0,1,0,0V653a6.18,6.18,0,0,1-6.18,6.18h-1.76A6.18,6.18,0,0,1,574,653v-5.87A0,0,0,0,1,574,647.14Z"/><path class="cls-30" d="M587.56,647.14h14.12a0,0,0,0,1,0,0V653a6.18,6.18,0,0,1-6.18,6.18h-1.76a6.18,6.18,0,0,1-6.18-6.18v-5.87A0,0,0,0,1,587.56,647.14Z"/><path class="cls-29" d="M601.68,647.14H615.8a0,0,0,0,1,0,0V653a6.18,6.18,0,0,1-6.18,6.18h-1.76a6.18,6.18,0,0,1-6.18-6.18v-5.87A0,0,0,0,1,601.68,647.14Z"/><path class="cls-30" d="M615.25,647.14h14.12a0,0,0,0,1,0,0V653a6.18,6.18,0,0,1-6.18,6.18h-1.76a6.18,6.18,0,0,1-6.18-6.18v-5.87A0,0,0,0,1,615.25,647.14Z"/><path class="cls-29" d="M629.37,647.14h14.12a0,0,0,0,1,0,0V653a6.18,6.18,0,0,1-6.18,6.18h-1.76a6.18,6.18,0,0,1-6.18-6.18v-5.87A0,0,0,0,1,629.37,647.14Z"/><path class="cls-30" d="M642.94,647.14h14.12a0,0,0,0,1,0,0V653a6.18,6.18,0,0,1-6.18,6.18h-1.76a6.18,6.18,0,0,1-6.18-6.18v-5.87A0,0,0,0,1,642.94,647.14Z"/><path class="cls-29" d="M657.06,647.14h14.12a0,0,0,0,1,0,0V653A6.18,6.18,0,0,1,665,659.2h-1.76a6.18,6.18,0,0,1-6.18-6.18v-5.87A0,0,0,0,1,657.06,647.14Z"/><path class="cls-30" d="M670.63,647.14h14.12a0,0,0,0,1,0,0V653a6.18,6.18,0,0,1-6.18,6.18h-1.76a6.18,6.18,0,0,1-6.18-6.18v-5.87A0,0,0,0,1,670.63,647.14Z"/><path class="cls-29" d="M684.75,647.14h14.12a0,0,0,0,1,0,0V653a6.18,6.18,0,0,1-6.18,6.18h-1.76a6.18,6.18,0,0,1-6.18-6.18v-5.87A0,0,0,0,1,684.75,647.14Z"/><path class="cls-30" d="M698.33,647.14h14.12a0,0,0,0,1,0,0V653a6.18,6.18,0,0,1-6.18,6.18H704.5a6.18,6.18,0,0,1-6.18-6.18v-5.87A0,0,0,0,1,698.33,647.14Z"/><path class="cls-29" d="M712.44,647.14h14.12a0,0,0,0,1,0,0V653a6.18,6.18,0,0,1-6.18,6.18h-1.76a6.18,6.18,0,0,1-6.18-6.18v-5.87A0,0,0,0,1,712.44,647.14Z"/><path class="cls-30" d="M726,647.14h14.12a0,0,0,0,1,0,0V653A6.18,6.18,0,0,1,734,659.2H732.2A6.18,6.18,0,0,1,726,653v-5.87A0,0,0,0,1,726,647.14Z"/><path class="cls-29" d="M740.13,647.14h14.12a0,0,0,0,1,0,0V653a6.18,6.18,0,0,1-6.18,6.18h-1.76a6.18,6.18,0,0,1-6.18-6.18v-5.87A0,0,0,0,1,740.13,647.14Z"/><path class="cls-29" d="M767.82,647.14h14.12a0,0,0,0,1,0,0V653a6.18,6.18,0,0,1-6.18,6.18H774a6.18,6.18,0,0,1-6.18-6.18v-5.87A0,0,0,0,1,767.82,647.14Z"/><path class="cls-30" d="M753.71,647.14h14.12a0,0,0,0,1,0,0V653a6.18,6.18,0,0,1-6.18,6.18h-1.76a6.18,6.18,0,0,1-6.18-6.18v-5.87a0,0,0,0,1,0,0Z"/><rect class="cls-31" x="546.01" y="625.06" width="235.93" height="5.18"/><rect class="cls-32" x="546.01" y="621.99" width="235.93" height="3.06"/><rect class="cls-33" x="559.98" y="711.82" width="61.25" height="5.01"/><rect class="cls-33" x="709.77" y="711.82" width="61.25" height="5.01"/><polygon class="cls-10" points="1433.37 399.86 1441.69 399.86 1234.44 399.86 1234.38 428.01 1441.64 428.01 1433.11 428.01 1444.42 428.01 1444.61 399.86 1433.37 399.86"/><polygon class="cls-9" points="1433.11 427.63 1441.64 427.63 1234.38 427.63 1234.38 434.94 1441.64 434.94 1433.11 434.94 1444.42 434.94 1444.42 427.63 1433.11 427.63"/><polygon class="cls-34" points="1387.86 434.48 1376.83 434.48 1238.82 434.48 1238.82 633.75 1238.82 638.57 1238.82 742.33 1376.83 742.33 1387.86 742.33 1440.17 742.33 1440.17 638.57 1440.17 633.75 1440.17 434.48 1387.86 434.48"/><polygon class="cls-13" points="1448.95 434.44 1433.26 434.44 1238.7 434.44 1238.7 440.52 1433.26 440.52 1448.95 440.52 1440.52 440.52 1440.52 434.44 1448.95 434.44"/><rect class="cls-21" x="1226.67" y="389.09" width="14.69" height="284.69"/><rect class="cls-21" x="1437.45" y="389.49" width="14.69" height="284.69"/><rect class="cls-10" x="1239.27" y="729.12" width="199.72" height="13.48"/><rect class="cls-25" x="1340.29" y="733.25" width="52.31" height="5.12"/><rect class="cls-26" x="1340.29" y="738.37" width="52.31" height="4.22"/><rect class="cls-10" x="1340.29" y="728.85" width="52.31" height="4.85"/><rect class="cls-35" x="1296.35" y="729.12" width="43.85" height="13.48"/><rect class="cls-35" x="1392.51" y="729.12" width="45" height="13.48"/><rect class="cls-34" x="1437.38" y="422.94" width="14.69" height="319.42"/><rect class="cls-34" x="1226.67" y="422.94" width="14.69" height="320.1"/><polygon class="cls-10" points="1340.3 476.27 1367.77 448.38 1392.89 476.27 1340.3 476.27"/><polygon class="cls-9" points="1367.77 448.38 1406.74 470.89 1387.29 471.42 1367.77 448.38"/><polygon class="cls-9" points="1367.77 448.38 1328.75 470.89 1348.2 471.42 1367.77 448.38"/><rect class="cls-34" x="1340.29" y="500.27" width="52.6" height="224.63"/><rect class="cls-36" x="1392.61" y="500.27" width="45.21" height="228.84"/><rect class="cls-36" x="1296.45" y="500.27" width="44.29" height="228.84"/><rect class="cls-9" x="1340.29" y="500.27" width="52.6" height="6.44"/><rect class="cls-17" x="1392.61" y="500.27" width="45.21" height="6.44"/><rect class="cls-17" x="1296.45" y="500.27" width="44.29" height="6.44"/><rect class="cls-10" x="1340.29" y="477.19" width="52.6" height="23.08"/><polygon class="cls-9" points="1406.74 477.19 1392.61 477.19 1392.61 500.27 1437.82 500.27 1406.74 477.19"/><polygon class="cls-9" points="1340.73 477.19 1328.27 477.19 1296.44 500.27 1340.73 500.27 1340.73 477.19"/><rect class="cls-17" x="1328.27" y="469.96" width="78.47" height="7.23"/><rect class="cls-37" x="1354.02" y="599.03" width="25.16" height="31.99"/><rect class="cls-15" x="1357.78" y="603.01" width="17.57" height="27.81"/><polygon class="cls-38" points="1378.81 599.56 1378.81 631.02 1382.98 631.02 1382.98 595.41 1378.81 599.56"/><polygon class="cls-39" points="1350.37 595.41 1354.44 599.56 1378.81 599.56 1382.98 595.41 1382.98 595.32 1350.37 595.41"/><polygon class="cls-38" points="1354.43 599.56 1354.43 631.02 1350.26 631.02 1350.26 595.41 1354.43 599.56"/><rect class="cls-37" x="1365.63" y="599.9" width="2.35" height="30.78"/><rect class="cls-37" x="1354.02" y="531.76" width="25.16" height="31.99"/><rect class="cls-15" x="1357.78" y="535.74" width="17.57" height="27.81"/><polygon class="cls-38" points="1378.81 532.28 1378.81 563.74 1382.98 563.74 1382.98 528.13 1378.81 532.28"/><polygon class="cls-39" points="1350.37 528.13 1354.44 532.28 1378.81 532.28 1382.98 528.13 1382.98 528.05 1350.37 528.13"/><polygon class="cls-38" points="1354.43 532.28 1354.43 563.74 1350.26 563.74 1350.26 528.13 1354.43 532.28"/><rect class="cls-37" x="1365.63" y="532.97" width="2.35" height="30.78"/><rect class="cls-37" x="1405.94" y="599.03" width="18.7" height="43.06"/><rect class="cls-15" x="1409.71" y="603.01" width="11.11" height="38.89"/><polygon class="cls-38" points="1424.27 599.56 1424.27 642.09 1428.44 642.09 1428.44 595.41 1424.27 599.56"/><polygon class="cls-39" points="1402.3 595.41 1406.36 599.56 1424.27 599.56 1428.44 595.41 1428.44 595.32 1402.3 595.41"/><polygon class="cls-38" points="1406.36 599.56 1406.36 642.1 1402.19 642.09 1402.19 595.41 1406.36 599.56"/><rect class="cls-37" x="1310.74" y="599.03" width="18.7" height="43.06"/><rect class="cls-15" x="1314.51" y="603.01" width="11.11" height="38.89"/><polygon class="cls-38" points="1329.07 599.56 1329.07 642.09 1333.24 642.09 1333.24 595.41 1329.07 599.56"/><polygon class="cls-39" points="1307.1 595.41 1311.16 599.56 1329.07 599.56 1333.24 595.41 1333.24 595.32 1307.1 595.41"/><polygon class="cls-38" points="1311.16 599.56 1311.16 642.1 1306.99 642.09 1306.99 595.41 1311.16 599.56"/><rect class="cls-37" x="1405.94" y="531.76" width="18.7" height="43.06"/><rect class="cls-15" x="1409.71" y="535.74" width="11.11" height="38.89"/><polygon class="cls-38" points="1424.27 532.28 1424.27 574.82 1428.44 574.82 1428.44 528.13 1424.27 532.28"/><polygon class="cls-39" points="1402.3 528.13 1406.36 532.28 1424.27 532.28 1428.44 528.13 1428.44 528.05 1402.3 528.13"/><polygon class="cls-38" points="1406.36 532.28 1406.36 574.82 1402.19 574.82 1402.19 528.13 1406.36 532.28"/><rect class="cls-37" x="1310.74" y="531.76" width="18.7" height="43.06"/><rect class="cls-15" x="1314.51" y="535.74" width="11.11" height="38.89"/><polygon class="cls-38" points="1329.07 532.28 1329.07 574.82 1333.24 574.82 1333.24 528.13 1329.07 532.28"/><polygon class="cls-39" points="1307.1 528.13 1311.16 532.28 1329.07 532.28 1333.24 528.13 1333.24 528.05 1307.1 528.13"/><polygon class="cls-38" points="1311.16 532.28 1311.16 574.82 1306.99 574.82 1306.99 528.13 1311.16 532.28"/><rect class="cls-37" x="1405.94" y="665.38" width="18.7" height="43.06"/><rect class="cls-15" x="1409.71" y="669.36" width="11.11" height="38.89"/><polygon class="cls-38" points="1424.27 665.91 1424.27 708.45 1428.44 708.45 1428.44 661.76 1424.27 665.91"/><polygon class="cls-39" points="1402.3 661.76 1406.36 665.91 1424.27 665.91 1428.44 661.76 1428.44 661.67 1402.3 661.76"/><polygon class="cls-38" points="1406.36 665.91 1406.36 708.45 1402.19 708.45 1402.19 661.76 1406.36 665.91"/><rect class="cls-37" x="1310.74" y="665.38" width="18.7" height="43.06"/><rect class="cls-15" x="1314.51" y="669.36" width="11.11" height="38.89"/><polygon class="cls-38" points="1329.07 665.91 1329.07 708.45 1333.24 708.45 1333.24 661.76 1329.07 665.91"/><polygon class="cls-39" points="1307.1 661.76 1311.16 665.91 1329.07 665.91 1333.24 661.76 1333.24 661.67 1307.1 661.76"/><polygon class="cls-38" points="1311.16 665.91 1311.16 708.45 1306.99 708.45 1306.99 661.76 1311.16 665.91"/><rect class="cls-40" x="1340.29" y="660.58" width="52.27" height="68.37"/><rect class="cls-41" x="1349.52" y="669.76" width="33.94" height="59.3"/><rect class="cls-42" x="1349.52" y="669.76" width="3.14" height="59.28"/><rect class="cls-42" x="1380.29" y="669.76" width="3.14" height="59.28"/><rect class="cls-42" x="1364.84" y="654.42" width="3.14" height="33.75" transform="translate(695.11 2037.71) rotate(-90)"/><path class="cls-43" d="M1349.52,669.76l-9.23-9.23h52.76l-9.59,9.23S1349.71,669.58,1349.52,669.76Z"/><path class="cls-38" d="M1249.89,709.23V675.9a14.79,14.79,0,1,1,29.57,0v33.33Z"/><path class="cls-37" d="M1254.5,709.23V675.9a10.17,10.17,0,1,1,20.34,0v33.33Z"/><path class="cls-15" d="M1258,709.23V675.9a6.71,6.71,0,1,1,13.41,0v33.33Z"/><rect class="cls-37" x="1263.5" y="679.59" width="2.35" height="17.03" transform="translate(576.57 1952.79) rotate(-90)"/><path class="cls-38" d="M1249.89,642.59V543.37a14.79,14.79,0,1,1,29.57,0v99.22Z"/><path class="cls-37" d="M1254.5,642.59V543.37a10.17,10.17,0,1,1,20.34,0v99.22Z"/><path class="cls-15" d="M1258,642.59V543.37a6.71,6.71,0,1,1,13.41,0v99.22Z"/><rect class="cls-37" x="1263.89" y="554.04" width="2.35" height="17.03" transform="translate(702.51 1827.63) rotate(-90)"/><rect class="cls-37" x="1263.89" y="580.47" width="2.35" height="17.03" transform="translate(676.08 1854.05) rotate(-90)"/><rect class="cls-37" x="1263.89" y="606.89" width="2.35" height="17.03" transform="translate(649.66 1880.48) rotate(-90)"/><path class="cls-38" d="M1249.89,503.93V470.59a14.79,14.79,0,0,1,29.57,0v33.34Z"/><path class="cls-37" d="M1254.5,503.93V470.59a10.17,10.17,0,1,1,20.34,0v33.34Z"/><path class="cls-15" d="M1258,503.93V470.59a6.71,6.71,0,0,1,13.41,0v33.34Z"/><rect class="cls-37" x="1263.89" y="474.19" width="2.35" height="17.03" transform="translate(782.36 1747.77) rotate(-90)"/><polygon class="cls-44" points="1630.65 521.8 1618.93 521.8 1467.42 521.8 1467.42 634.29 1467.42 639.11 1467.42 742.87 1618.93 742.87 1630.65 742.87 1693.43 742.87 1693.43 639.11 1693.43 634.29 1693.43 521.8 1630.65 521.8"/><polygon class="cls-13" points="1680.74 521.76 1467.42 521.76 1467.42 527.84 1680.74 527.84 1693.43 527.84 1693.43 521.76 1680.74 521.76"/><polygon class="cls-10" points="1688.49 487.19 1467.46 487.19 1467.39 515.34 1688.21 515.34 1693.32 515.34 1693.16 487.19 1688.49 487.19"/><polygon class="cls-9" points="1688.21 514.96 1467.39 514.96 1467.39 522.26 1688.21 522.26 1693.32 522.26 1693.32 514.96 1688.21 514.96"/><rect class="cls-10" x="1466.86" y="604.78" width="227.57" height="138.13"/><rect class="cls-14" x="1563.68" y="678.63" width="38.39" height="58.9"/><rect class="cls-15" x="1566.65" y="681.6" width="32.45" height="55.93"/><polygon class="cls-16" points="1599.1 681.6 1566.53 681.6 1566.53 737.56 1569.47 737.56 1569.47 684.27 1596.17 684.27 1596.17 737.51 1599.08 737.51 1599.08 684.27 1599.1 684.27 1599.1 681.6"/><rect class="cls-26" x="1525.38" y="731.03" width="112.78" height="5.94"/><rect class="cls-45" x="1520.55" y="736.97" width="123.3" height="5.94"/><rect class="cls-46" x="1489.03" y="680.69" width="55.94" height="43.79"/><rect class="cls-15" x="1491.72" y="683.38" width="50.56" height="38.41"/><polygon class="cls-23" points="1489.27 681.03 1489.27 724.28 1486.59 726.92 1486.59 678.36 1489.27 681.03"/><polygon class="cls-23" points="1547.32 678.36 1544.7 681.03 1489.27 681.03 1486.59 678.36 1486.59 678.3 1547.32 678.36"/><polygon class="cls-33" points="1544.7 681.03 1544.7 724.22 1547.39 726.92 1547.39 678.36 1544.7 681.03"/><polygon class="cls-33" points="1547.36 726.92 1544.74 724.25 1489.31 724.25 1486.63 726.92 1486.63 726.97 1547.36 726.92"/><rect class="cls-46" x="1516.29" y="682.64" width="2.31" height="40.74"/><rect class="cls-46" x="1622.87" y="680.69" width="55.94" height="43.79"/><rect class="cls-15" x="1625.56" y="683.38" width="50.56" height="38.41"/><polygon class="cls-23" points="1623.11 681.03 1623.11 724.28 1620.42 726.92 1620.42 678.36 1623.11 681.03"/><polygon class="cls-23" points="1681.15 678.36 1678.54 681.03 1623.11 681.03 1620.42 678.36 1620.42 678.3 1681.15 678.36"/><polygon class="cls-33" points="1678.54 681.03 1678.54 724.22 1681.22 726.92 1681.22 678.36 1678.54 681.03"/><polygon class="cls-33" points="1681.19 726.92 1678.58 724.25 1623.15 724.25 1620.46 726.92 1620.46 726.97 1681.19 726.92"/><rect class="cls-46" x="1650.27" y="682.64" width="2.31" height="40.74"/><rect class="cls-47" x="1461.05" y="628.11" width="14.35" height="22.88"/><rect class="cls-28" x="1474.85" y="628.11" width="14.35" height="22.88"/><rect class="cls-47" x="1489.2" y="628.11" width="14.35" height="22.88"/><rect class="cls-28" x="1503" y="628.11" width="14.35" height="22.88"/><rect class="cls-47" x="1517.35" y="628.11" width="14.35" height="22.88"/><rect class="cls-28" x="1531.15" y="628.11" width="14.35" height="22.88"/><rect class="cls-47" x="1545.51" y="628.11" width="14.35" height="22.88"/><rect class="cls-28" x="1559.31" y="628.11" width="14.35" height="22.88"/><rect class="cls-47" x="1573.66" y="628.11" width="14.35" height="22.88"/><rect class="cls-28" x="1587.46" y="628.11" width="14.35" height="22.88"/><rect class="cls-47" x="1601.81" y="628.11" width="14.35" height="22.88"/><rect class="cls-28" x="1615.61" y="628.11" width="14.35" height="22.88"/><rect class="cls-47" x="1629.97" y="628.11" width="14.35" height="22.88"/><rect class="cls-28" x="1643.77" y="628.11" width="14.35" height="22.88"/><rect class="cls-47" x="1658.12" y="628.11" width="14.35" height="22.88"/><rect class="cls-47" x="1686.27" y="628.11" width="14.35" height="22.88"/><rect class="cls-28" x="1671.92" y="628.11" width="14.35" height="22.88"/><path class="cls-48" d="M1461,650.61h14.35a0,0,0,0,1,0,0v9.74a6.49,6.49,0,0,1-6.49,6.49h-1.36a6.49,6.49,0,0,1-6.49-6.49v-9.74A0,0,0,0,1,1461,650.61Z"/><path class="cls-49" d="M1474.85,650.61h14.35a0,0,0,0,1,0,0v9.74a6.49,6.49,0,0,1-6.49,6.49h-1.36a6.49,6.49,0,0,1-6.49-6.49v-9.74A0,0,0,0,1,1474.85,650.61Z"/><path class="cls-48" d="M1489.2,650.61h14.35a0,0,0,0,1,0,0v9.74a6.49,6.49,0,0,1-6.49,6.49h-1.36a6.49,6.49,0,0,1-6.49-6.49v-9.74A0,0,0,0,1,1489.2,650.61Z"/><path class="cls-49" d="M1503,650.61h14.35a0,0,0,0,1,0,0v9.74a6.49,6.49,0,0,1-6.49,6.49h-1.36a6.49,6.49,0,0,1-6.49-6.49v-9.74A0,0,0,0,1,1503,650.61Z"/><path class="cls-48" d="M1517.35,650.61h14.35a0,0,0,0,1,0,0v9.74a6.49,6.49,0,0,1-6.49,6.49h-1.36a6.49,6.49,0,0,1-6.49-6.49v-9.74A0,0,0,0,1,1517.35,650.61Z"/><path class="cls-49" d="M1531.15,650.61h14.35a0,0,0,0,1,0,0v9.74a6.49,6.49,0,0,1-6.49,6.49h-1.36a6.49,6.49,0,0,1-6.49-6.49v-9.74A0,0,0,0,1,1531.15,650.61Z"/><path class="cls-48" d="M1545.51,650.61h14.35a0,0,0,0,1,0,0v9.74a6.49,6.49,0,0,1-6.49,6.49H1552a6.49,6.49,0,0,1-6.49-6.49v-9.74A0,0,0,0,1,1545.51,650.61Z"/><path class="cls-49" d="M1559.31,650.61h14.35a0,0,0,0,1,0,0v9.74a6.49,6.49,0,0,1-6.49,6.49h-1.36a6.49,6.49,0,0,1-6.49-6.49v-9.74A0,0,0,0,1,1559.31,650.61Z"/><path class="cls-48" d="M1573.66,650.61H1588a0,0,0,0,1,0,0v9.74a6.49,6.49,0,0,1-6.49,6.49h-1.36a6.49,6.49,0,0,1-6.49-6.49v-9.74A0,0,0,0,1,1573.66,650.61Z"/><path class="cls-49" d="M1587.46,650.61h14.35a0,0,0,0,1,0,0v9.74a6.49,6.49,0,0,1-6.49,6.49H1594a6.49,6.49,0,0,1-6.49-6.49v-9.74A0,0,0,0,1,1587.46,650.61Z"/><path class="cls-48" d="M1601.81,650.61h14.35a0,0,0,0,1,0,0v9.74a6.49,6.49,0,0,1-6.49,6.49h-1.36a6.49,6.49,0,0,1-6.49-6.49v-9.74A0,0,0,0,1,1601.81,650.61Z"/><path class="cls-49" d="M1615.61,650.61H1630a0,0,0,0,1,0,0v9.74a6.49,6.49,0,0,1-6.49,6.49h-1.36a6.49,6.49,0,0,1-6.49-6.49v-9.74A0,0,0,0,1,1615.61,650.61Z"/><path class="cls-48" d="M1630,650.61h14.35a0,0,0,0,1,0,0v9.74a6.49,6.49,0,0,1-6.49,6.49h-1.36a6.49,6.49,0,0,1-6.49-6.49v-9.74A0,0,0,0,1,1630,650.61Z"/><path class="cls-49" d="M1643.77,650.61h14.35a0,0,0,0,1,0,0v9.74a6.49,6.49,0,0,1-6.49,6.49h-1.36a6.49,6.49,0,0,1-6.49-6.49v-9.74A0,0,0,0,1,1643.77,650.61Z"/><path class="cls-48" d="M1658.12,650.61h14.35a0,0,0,0,1,0,0v9.74a6.49,6.49,0,0,1-6.49,6.49h-1.36a6.49,6.49,0,0,1-6.49-6.49v-9.74A0,0,0,0,1,1658.12,650.61Z"/><path class="cls-48" d="M1686.27,650.61h14.35a0,0,0,0,1,0,0v9.74a6.49,6.49,0,0,1-6.49,6.49h-1.36a6.49,6.49,0,0,1-6.49-6.49v-9.74A0,0,0,0,1,1686.27,650.61Z"/><path class="cls-49" d="M1671.92,650.61h14.35a0,0,0,0,1,0,0v9.74a6.49,6.49,0,0,1-6.49,6.49h-1.36a6.49,6.49,0,0,1-6.49-6.49v-9.74A0,0,0,0,1,1671.92,650.61Z"/><rect class="cls-48" x="1461.05" y="621.61" width="239.58" height="7.05"/><rect class="cls-50" x="1461.64" y="600.33" width="238.74" height="8.91"/><rect class="cls-51" x="1466.62" y="609.14" width="227.82" height="5.79"/><rect class="cls-46" x="1495.23" y="547.89" width="31.52" height="32"/><rect class="cls-15" x="1497.92" y="550.58" width="26.14" height="26.62"/><polygon class="cls-52" points="1495.47 548.23 1495.47 579.69 1492.78 582.33 1492.78 545.56 1495.47 548.23"/><polygon class="cls-52" points="1529.09 545.56 1526.47 548.23 1495.47 548.23 1492.78 545.56 1492.78 545.5 1529.09 545.56"/><polygon class="cls-53" points="1526.48 548.23 1526.48 579.63 1529.16 582.33 1529.16 545.56 1526.48 548.23"/><polygon class="cls-53" points="1529.13 582.32 1526.52 579.65 1495.51 579.65 1492.82 582.32 1492.82 582.38 1529.13 582.32"/><rect class="cls-46" x="1509.8" y="549.84" width="2.31" height="28.95"/><rect class="cls-50" x="1488.89" y="577.2" width="43.05" height="12.13"/><rect class="cls-54" x="1488.89" y="577.2" width="43.05" height="1.84"/><rect class="cls-46" x="1564.04" y="547.89" width="31.52" height="32"/><rect class="cls-15" x="1566.73" y="550.58" width="26.14" height="26.62"/><polygon class="cls-52" points="1564.28 548.23 1564.28 579.69 1561.59 582.33 1561.59 545.56 1564.28 548.23"/><polygon class="cls-52" points="1597.9 545.56 1595.29 548.23 1564.28 548.23 1561.59 545.56 1561.59 545.5 1597.9 545.56"/><polygon class="cls-53" points="1595.29 548.23 1595.29 579.63 1597.97 582.33 1597.97 545.56 1595.29 548.23"/><polygon class="cls-53" points="1597.95 582.32 1595.33 579.65 1564.32 579.65 1561.63 582.32 1561.63 582.38 1597.95 582.32"/><rect class="cls-46" x="1578.61" y="549.84" width="2.31" height="28.95"/><rect class="cls-50" x="1557.71" y="577.2" width="43.05" height="12.13"/><rect class="cls-54" x="1557.71" y="577.2" width="43.05" height="1.84"/><rect class="cls-46" x="1632.85" y="547.89" width="31.52" height="32"/><rect class="cls-15" x="1635.54" y="550.58" width="26.14" height="26.62"/><polygon class="cls-52" points="1633.09 548.23 1633.09 579.69 1630.41 582.33 1630.41 545.56 1633.09 548.23"/><polygon class="cls-52" points="1666.72 545.56 1664.1 548.23 1633.09 548.23 1630.41 545.56 1630.41 545.5 1666.72 545.56"/><polygon class="cls-53" points="1664.1 548.23 1664.1 579.63 1666.79 582.33 1666.79 545.56 1664.1 548.23"/><polygon class="cls-53" points="1666.76 582.32 1664.14 579.65 1633.13 579.65 1630.45 582.32 1630.45 582.38 1666.76 582.32"/><rect class="cls-46" x="1647.43" y="549.84" width="2.31" height="28.95"/><rect class="cls-50" x="1626.52" y="577.2" width="43.05" height="12.13"/><rect class="cls-54" x="1626.52" y="577.2" width="43.05" height="1.84"/><polygon class="cls-55" points="1116.64 423.99 1020.54 461.03 1020.48 471.51 1210.42 471.51 1210.59 461.03 1116.64 423.99"/><polygon class="cls-56" points="1200.19 471.17 1207.91 471.17 1020.48 471.17 1020.48 477.77 1207.91 477.77 1200.19 477.77 1210.42 477.77 1210.42 471.17 1200.19 471.17"/><polygon class="cls-28" points="1159.27 477.36 1149.3 477.36 1024.5 477.36 1024.5 644.31 1024.5 648.66 1024.5 742.5 1149.3 742.5 1159.27 742.5 1206.58 742.5 1206.58 648.66 1206.58 644.31 1206.58 477.36 1159.27 477.36"/><rect class="cls-13" x="1024.39" y="477.32" width="182.5" height="5.5"/><path class="cls-49" d="M1020.16,451.41h0a6.65,6.65,0,0,1,6.64,6.64V680.51h-13.29V458.05A6.65,6.65,0,0,1,1020.16,451.41Z"/><path class="cls-49" d="M1210.76,451.78h0a6.64,6.64,0,0,1,6.65,6.64V680.88h-13.29V458.42A6.64,6.64,0,0,1,1210.76,451.78Z"/><rect class="cls-57" x="1204.05" y="466.92" width="13.28" height="275.6"/><rect class="cls-57" x="1013.51" y="466.92" width="13.28" height="276.21"/><path class="cls-58" d="M1043.38,556.65V526.51a13.37,13.37,0,1,1,26.74,0v30.14Z"/><path class="cls-18" d="M1047.55,556.65V526.51a9.2,9.2,0,1,1,18.39,0v30.14Z"/><path class="cls-15" d="M1050.68,556.65V526.51a6.07,6.07,0,1,1,12.13,0v30.14Z"/><rect class="cls-18" x="1056.04" y="527.26" width="2.13" height="15.4" transform="translate(522.15 1592.06) rotate(-90)"/><path class="cls-58" d="M1077.08,556.65V526.51a13.37,13.37,0,1,1,26.74,0v30.14Z"/><path class="cls-18" d="M1081.26,556.65V526.51a9.2,9.2,0,1,1,18.39,0v30.14Z"/><path class="cls-15" d="M1084.39,556.65V526.51a6.07,6.07,0,1,1,12.13,0v30.14Z"/><rect class="cls-18" x="1089.74" y="527.26" width="2.13" height="15.4" transform="translate(555.85 1625.77) rotate(-90)"/><polygon class="cls-59" points="1031.08 488.79 1009.16 488.79 1009.16 494.52 1013.51 494.52 1013.51 501.31 1026.9 501.31 1026.9 494.52 1031.08 494.52 1031.08 488.79"/><polygon class="cls-59" points="1221.51 488.79 1199.6 488.79 1199.6 494.52 1203.95 494.52 1203.95 501.31 1217.34 501.31 1217.34 494.52 1221.51 494.52 1221.51 488.79"/><rect class="cls-60" x="1031.08" y="488.79" width="168.52" height="5.63"/><rect class="cls-60" x="1043.08" y="493.38" width="6.26" height="5.22"/><rect class="cls-60" x="1063.25" y="493.38" width="6.26" height="5.22"/><rect class="cls-60" x="1083.43" y="493.38" width="6.26" height="5.22"/><rect class="cls-60" x="1103.6" y="493.38" width="6.26" height="5.22"/><rect class="cls-60" x="1123.77" y="493.38" width="6.26" height="5.22"/><rect class="cls-60" x="1143.95" y="493.38" width="6.26" height="5.22"/><rect class="cls-60" x="1164.12" y="493.38" width="6.26" height="5.22"/><rect class="cls-60" x="1184.3" y="493.38" width="6.26" height="5.22"/><rect class="cls-18" x="1047.1" y="574.18" width="53.27" height="47.29"/><rect class="cls-15" x="1050.5" y="577.78" width="46.41" height="43.52"/><polygon class="cls-58" points="1100.04 574.65 1100.04 621.47 1103.81 621.47 1103.81 570.9 1100.04 574.65"/><polygon class="cls-61" points="1043.8 570.9 1047.48 574.65 1100.04 574.65 1103.81 570.9 1103.81 570.82 1043.8 570.9"/><polygon class="cls-58" points="1047.47 574.65 1047.47 621.47 1043.7 621.47 1043.7 570.9 1047.47 574.65"/><rect class="cls-18" x="1072.94" y="595.83" width="2.13" height="25.29" transform="translate(2148.02 1216.95) rotate(180)"/><rect class="cls-18" x="1072.84" y="571.14" width="2.13" height="49.81" transform="translate(1669.95 -477.87) rotate(90)"/><path class="cls-58" d="M1124.7,556.65V526.51a13.37,13.37,0,0,1,26.74,0v30.14Z"/><path class="cls-18" d="M1128.88,556.65V526.51a9.2,9.2,0,1,1,18.39,0v30.14Z"/><path class="cls-15" d="M1132,556.65V526.51a6.07,6.07,0,1,1,12.13,0v30.14Z"/><rect class="cls-18" x="1137.36" y="527.26" width="2.13" height="15.4" transform="translate(603.47 1673.38) rotate(-90)"/><path class="cls-58" d="M1158.41,556.65V526.51a13.37,13.37,0,0,1,26.74,0v30.14Z"/><path class="cls-18" d="M1162.58,556.65V526.51a9.2,9.2,0,1,1,18.39,0v30.14Z"/><path class="cls-15" d="M1165.71,556.65V526.51a6.07,6.07,0,1,1,12.13,0v30.14Z"/><rect class="cls-18" x="1171.07" y="527.26" width="2.13" height="15.4" transform="translate(637.17 1707.09) rotate(-90)"/><rect class="cls-18" x="1128.42" y="574.18" width="53.27" height="47.29"/><rect class="cls-15" x="1131.82" y="577.78" width="46.41" height="43.52"/><polygon class="cls-58" points="1181.36 574.65 1181.36 621.47 1185.13 621.47 1185.13 570.9 1181.36 574.65"/><polygon class="cls-61" points="1125.12 570.9 1128.8 574.65 1181.36 574.65 1185.13 570.9 1185.13 570.82 1125.12 570.9"/><polygon class="cls-58" points="1128.8 574.65 1128.8 621.47 1125.02 621.47 1125.02 570.9 1128.8 574.65"/><rect class="cls-18" x="1154.27" y="595.83" width="2.13" height="25.29" transform="translate(2310.66 1216.95) rotate(180)"/><rect class="cls-18" x="1154.17" y="571.14" width="2.13" height="49.81" transform="translate(1751.27 -559.19) rotate(90)"/><rect class="cls-27" x="1041.7" y="637.68" width="13.23" height="16.31"/><rect class="cls-28" x="1054.42" y="637.68" width="13.23" height="16.31"/><rect class="cls-27" x="1067.65" y="637.68" width="13.23" height="16.31"/><rect class="cls-28" x="1080.37" y="637.68" width="13.23" height="16.31"/><rect class="cls-27" x="1093.59" y="637.68" width="13.23" height="16.31"/><path class="cls-29" d="M1048.32,664.93h0a6.61,6.61,0,0,1-6.62-6.61v-4.68h13.23v4.68A6.61,6.61,0,0,1,1048.32,664.93Z"/><path class="cls-30" d="M1061,664.93h0a6.61,6.61,0,0,1-6.62-6.61v-4.68h13.23v4.68A6.61,6.61,0,0,1,1061,664.93Z"/><path class="cls-29" d="M1074.26,664.93h0a6.61,6.61,0,0,1-6.61-6.61v-4.68h13.23v4.68A6.62,6.62,0,0,1,1074.26,664.93Z"/><path class="cls-30" d="M1087,664.93h0a6.61,6.61,0,0,1-6.61-6.61v-4.68h13.22v4.68A6.61,6.61,0,0,1,1087,664.93Z"/><path class="cls-29" d="M1093.59,653.64h13.23a0,0,0,0,1,0,0v4.68a6.61,6.61,0,0,1-6.61,6.61h0a6.61,6.61,0,0,1-6.61-6.61v-4.68A0,0,0,0,1,1093.59,653.64Z"/><rect class="cls-27" x="1121.53" y="637.68" width="13.23" height="16.31"/><rect class="cls-28" x="1134.25" y="637.68" width="13.23" height="16.31"/><rect class="cls-27" x="1147.48" y="637.68" width="13.23" height="16.31"/><rect class="cls-28" x="1160.19" y="637.68" width="13.23" height="16.31"/><rect class="cls-27" x="1173.42" y="637.68" width="13.23" height="16.31"/><path class="cls-29" d="M1128.14,664.93h0a6.61,6.61,0,0,1-6.61-6.61v-4.68h13.23v4.68A6.61,6.61,0,0,1,1128.14,664.93Z"/><path class="cls-30" d="M1140.86,664.93h0a6.61,6.61,0,0,1-6.61-6.61v-4.68h13.23v4.68A6.62,6.62,0,0,1,1140.86,664.93Z"/><path class="cls-29" d="M1154.09,664.93h0a6.61,6.61,0,0,1-6.61-6.61v-4.68h13.22v4.68A6.61,6.61,0,0,1,1154.09,664.93Z"/><path class="cls-30" d="M1166.81,664.93h0a6.61,6.61,0,0,1-6.62-6.61v-4.68h13.23v4.68A6.61,6.61,0,0,1,1166.81,664.93Z"/><path class="cls-29" d="M1180,664.93h0a6.61,6.61,0,0,1-6.61-6.61v-4.68h13.23v4.68A6.61,6.61,0,0,1,1180,664.93Z"/><rect class="cls-62" x="1041.7" y="632.17" width="65.03" height="6"/><rect class="cls-62" x="1121.53" y="632.17" width="65.03" height="6"/><rect class="cls-63" x="1026.78" y="730.55" width="177.51" height="12.19"/><rect class="cls-64" x="1050.29" y="670.5" width="45.73" height="60.41"/><rect class="cls-65" x="1054.87" y="675.08" width="36.56" height="55.61"/><polygon class="cls-66" points="1064.37 730.8 1062.28 730.8 1062.28 682.21 1083.66 682.21 1083.66 730.23 1081.57 730.23 1081.57 684.3 1064.37 684.3 1064.37 730.8"/><rect class="cls-64" x="1049.96" y="736.1" width="46.11" height="6.6"/><polygon class="cls-66" points="1091.43 675.09 1054.69 675.09 1054.69 730.19 1054.73 730.19 1054.73 730.28 1059.22 730.28 1059.22 679.2 1086.91 679.2 1086.91 730.28 1091.4 730.28 1091.4 679.2 1091.43 679.2 1091.43 675.09"/><rect class="cls-67" x="1049.96" y="730.43" width="46.11" height="6.25"/><rect class="cls-64" x="1130.46" y="670.5" width="45.73" height="60.41"/><rect class="cls-65" x="1135.05" y="675.08" width="36.56" height="55.61"/><polygon class="cls-66" points="1144.55 730.8 1142.46 730.8 1142.46 682.21 1163.83 682.21 1163.83 730.23 1161.74 730.23 1161.74 684.3 1144.55 684.3 1144.55 730.8"/><rect class="cls-64" x="1130.14" y="736.1" width="46.11" height="6.6"/><polygon class="cls-66" points="1171.61 675.09 1134.86 675.09 1134.86 730.19 1134.91 730.19 1134.91 730.28 1139.4 730.28 1139.4 679.2 1167.08 679.2 1167.08 730.28 1171.57 730.28 1171.57 679.2 1171.61 679.2 1171.61 675.09"/><rect class="cls-67" x="1130.14" y="730.43" width="46.11" height="6.25"/><polygon class="cls-28" points="913.63 420.21 814.09 537.67 814.09 634.19 814.09 638.42 814.09 729.64 922.03 729.64 930.83 729.64 1014.01 729.64 1014.01 638.42 1014.01 634.19 1014.01 537.67 913.63 420.21"/><rect class="cls-68" x="814" y="725.68" width="200.14" height="17.48"/><polygon class="cls-69" points="914.02 398.84 914.03 398.84 914.03 398.84 914.02 398.84"/><polygon class="cls-69" points="1007.33 526.22 914.03 398.84 820.72 526.22 809.06 526.22 809.06 537.38 826.19 537.38 913.26 418.24 1000.33 537.38 1018.51 537.38 1018.49 526.22 1007.33 526.22"/><polygon class="cls-13" points="814.09 536.67 814.09 543.04 833.04 543.04 913.01 432.33 996.1 543.04 1014.22 543.04 1014.22 537.42 1000.33 537.42 913.26 418.24 826.19 537.38 814.09 536.67"/><rect class="cls-18" x="845.46" y="567.47" width="45.24" height="64.91"/><rect class="cls-15" x="849.53" y="571.78" width="37.02" height="60.39"/><polygon class="cls-58" points="890.3 568.04 890.3 632.38 894.81 632.38 894.81 563.55 890.3 568.04"/><polygon class="cls-61" points="841.51 563.55 845.91 568.04 890.3 568.04 894.81 563.55 894.81 563.46 841.51 563.55"/><polygon class="cls-58" points="845.91 568.04 845.91 632.39 841.39 632.38 841.39 563.55 845.91 568.04"/><rect class="cls-18" x="867.51" y="568.58" width="2.55" height="63.6" transform="translate(1737.57 1200.76) rotate(180)"/><rect class="cls-18" x="867.01" y="570.31" width="2.55" height="41.1" transform="translate(1459.15 -277.42) rotate(90)"/><rect class="cls-18" x="867.01" y="592.18" width="2.55" height="41.1" transform="translate(1481.02 -255.56) rotate(90)"/><rect class="cls-18" x="935.92" y="567.47" width="45.24" height="64.91"/><rect class="cls-15" x="940" y="571.78" width="37.02" height="60.39"/><polygon class="cls-58" points="980.76 568.04 980.76 632.38 985.28 632.38 985.28 563.55 980.76 568.04"/><polygon class="cls-61" points="931.98 563.55 936.38 568.04 980.76 568.04 985.28 563.55 985.28 563.46 931.98 563.55"/><polygon class="cls-58" points="936.37 568.04 936.37 632.39 931.86 632.38 931.86 563.55 936.37 568.04"/><rect class="cls-18" x="957.98" y="568.58" width="2.55" height="63.6" transform="translate(1918.5 1200.76) rotate(180)"/><rect class="cls-18" x="957.48" y="570.31" width="2.55" height="41.1" transform="translate(1549.62 -367.89) rotate(90)"/><rect class="cls-18" x="957.48" y="592.18" width="2.55" height="41.1" transform="translate(1571.48 -346.02) rotate(90)"/><rect class="cls-64" x="887.41" y="653.64" width="54.76" height="72.34"/><rect class="cls-65" x="892.9" y="659.13" width="43.78" height="66.59"/><polygon class="cls-66" points="904.06 725.84 901.98 725.84 901.98 667.86 927.16 667.86 927.16 725.16 925.07 725.16 925.07 669.95 904.06 669.95 904.06 725.84"/><rect class="cls-64" x="887.01" y="733.75" width="55.22" height="9.39"/><polygon class="cls-66" points="936.68 659.13 892.67 659.13 892.67 725.11 892.73 725.11 892.73 725.23 898.1 725.23 898.1 664.06 931.26 664.06 931.26 725.23 936.63 725.23 936.63 664.06 936.68 664.06 936.68 659.13"/><rect class="cls-67" x="887.01" y="725.68" width="55.22" height="8.89"/><path class="cls-58" d="M878.56,529.42v-3.33a33.74,33.74,0,1,1,67.48,0v3.33Z"/><path class="cls-18" d="M883.56,529.42v-3.33a28.74,28.74,0,1,1,57.48,0v3.33Z"/><path class="cls-15" d="M912.3,501.1h0a25,25,0,0,0-25,25v3.33h50v-3.33A25,25,0,0,0,912.3,501.1Z"/><polygon class="cls-18" points="936.2 510.69 934.43 508.92 913.55 527.8 913.55 501.1 911.05 501.1 911.05 527.76 890.21 508.92 888.45 510.69 909.19 529.43 915.41 529.47 936.2 510.69"/><path class="cls-58" d="M843.31,704.16V672.4a14.09,14.09,0,1,1,28.17,0v31.76Z"/><path class="cls-18" d="M847.71,704.16V672.4a9.69,9.69,0,1,1,19.37,0v31.76Z"/><path class="cls-15" d="M851,704.16V672.4a6.39,6.39,0,0,1,12.78,0v31.76Z"/><rect class="cls-18" x="856.28" y="675.92" width="2.24" height="16.23" transform="translate(173.37 1541.44) rotate(-90)"/><path class="cls-58" d="M956.94,704.16V672.4a14.09,14.09,0,1,1,28.17,0v31.76Z"/><path class="cls-18" d="M961.33,704.16V672.4a9.69,9.69,0,0,1,19.38,0v31.76Z"/><path class="cls-15" d="M964.63,704.16V672.4a6.39,6.39,0,1,1,12.78,0v31.76Z"/><rect class="cls-18" x="969.91" y="675.92" width="2.24" height="16.23" transform="translate(287 1655.06) rotate(-90)"/><path class="cls-70" d="M1338.7,735.54h28.08l-1.12-4.53a5.38,5.38,0,0,0-5.23-4.1h-15.38a5.38,5.38,0,0,0-5.23,4.1Z"/><path class="cls-71" d="M1333.32,735.54h28.07l-1.12-4.53a5.38,5.38,0,0,0-5.23-4.1h-15.37a5.4,5.4,0,0,0-5.24,4.1Z"/><path class="cls-72" d="M1446.78,795.5H1294.55c-6.22,0-11.87-5.12-11.31-11.31,1.48-16.05,6.68-46.76,26.46-49.66,12.55-1.84,57.34-1.43,68.32,2.24,16.44,5.49,25.19,18.57,47.9,22,11.68,1.74,29.65,2.83,31.1,16.45C1457.93,783.8,1459.81,795.5,1446.78,795.5Z"/><path class="cls-73" d="M1310.46,754.3c3.83-8.92,9.71-15.93,18.76-15.93h32c18.86,0,32.07,9.51,43.13,23.63Z"/><path class="cls-71" d="M1457,775.27c-14.78-.17-14.48.34-18.25-2.14-4-2.65-8.86-3.77-14-4.19l-136.41-11.05a121.07,121.07,0,0,0-5.11,26.3c-.56,6.19,5.09,11.31,11.31,11.31h152.23C1459.77,795.5,1457.94,783.88,1457,775.27Z"/><path class="cls-74" d="M1424.76,773.69a18.43,18.43,0,0,0-18,22.38h36A18.43,18.43,0,0,0,1424.76,773.69Z"/><path class="cls-75" d="M1424.76,803.8a14.38,14.38,0,1,1,14.38-14.37A14.4,14.4,0,0,1,1424.76,803.8Z"/><path class="cls-76" d="M1424.76,800.88a10.74,10.74,0,1,1,10.74-10.74A10.76,10.76,0,0,1,1424.76,800.88Z"/><path class="cls-74" d="M1306.66,773.69a18.42,18.42,0,0,0-18.29,20.61c3.82,2.35,3.76,1.77,36.28,1.77A18.42,18.42,0,0,0,1306.66,773.69Z"/><circle class="cls-77" cx="1306.66" cy="790.14" r="14.37"/><path class="cls-76" d="M1306.66,800.88a10.74,10.74,0,1,1,10.73-10.74A10.76,10.76,0,0,1,1306.66,800.88Z"/><path class="cls-78" d="M1454,768h-3.53c-4.73,0-4.83,7.15,0,7.21l6.57.08A13,13,0,0,0,1454,768Z"/><path class="cls-70" d="M1360.65,762.11a3.49,3.49,0,0,0-.72,3.73c1.47,3.61,10.63,3.56,10.69-.18C1370.69,762.1,1362.85,760,1360.65,762.11Z"/><path class="cls-72" d="M1361.42,762.9c1.5-1.46,8,.2,8.1,2.64a22.34,22.34,0,0,0-8.74-1.08,2.25,2.25,0,0,1,.64-1.56Zm7.35,3.83c-2,1-6.36.89-7.61-.93A15.74,15.74,0,0,1,1368.77,766.73Z"/><polygon class="cls-70" points="1351.88 738.37 1350.05 757.55 1359.06 758.28 1357.19 738.37 1351.88 738.37"/><polygon class="cls-70" points="1353.04 738.37 1351.2 757.64 1357.89 758.19 1356.03 738.37 1353.04 738.37"/><path class="cls-70" d="M1388.71,746.8l1.59,14,14,1.16A71.69,71.69,0,0,0,1388.71,746.8Z"/><path class="cls-71" d="M1390,747.7l1.49,13.16,12.88,1.14A73.64,73.64,0,0,0,1390,747.7Z"/><path class="cls-70" d="M1395.8,756.16s2.64.59,2.44,1.87-2.1,1.31-2.89,1.46A1.93,1.93,0,0,1,1395.8,756.16Z"/><path class="cls-72" d="M1389.53,752.7c-2.6.75-3.2,5.19-.81,6.59a8.24,8.24,0,0,0,6.38.36,2.74,2.74,0,0,0,1.09-2.7C1396,753.89,1391.85,752,1389.53,752.7Z"/><path class="cls-71" d="M1396.18,757.54a83.57,83.57,0,0,1-9-1.09c.11,4.52,6.63,3.89,7.88,3.2A2.43,2.43,0,0,0,1396.18,757.54Z"/><path class="cls-70" d="M1322.39,739.88l-1.7,15.26,4.71.39,1.85-17A15.69,15.69,0,0,0,1322.39,739.88Z"/><path class="cls-70" d="M1323.61,739.36l-1.77,15.87,2.41.16,1.82-16.72A16.54,16.54,0,0,0,1323.61,739.36Z"/><path class="cls-70" d="M1409.34,767.69l-6-6.94-.72.64,5.64,6.5-9.11,22.37L1356,788c0-29,.31-22.83-.92-31.2l-1,.14c1.22,8.3,1,2.18.91,31l-22.5-1.2L1309,759.56l2.73-5.8-.86-.42-3,6.37c8,9.36,16.1,18.6,24.15,27.95q33.84,1.82,67.69,3.6Z"/><path class="cls-70" d="M1315,758.44a3.49,3.49,0,0,0-.72,3.73c1.47,3.62,10.63,3.56,10.69-.18C1325.08,758.44,1317.24,756.29,1315,758.44Z"/><path class="cls-72" d="M1315.81,759.23c1.5-1.46,8,.21,8.1,2.64a22.34,22.34,0,0,0-8.74-1.08,2.25,2.25,0,0,1,.64-1.56Zm7.35,3.84c-2,1-6.36.88-7.61-.93A15.5,15.5,0,0,1,1323.16,763.07Z"/><path class="cls-71" d="M1308.66,734.71c-4.05,9.29-10.67,25.73-21.44,26.88C1290.77,749,1297.15,737,1308.66,734.71Z"/><path class="cls-70" d="M1293.55,746.41h3.77a3,3,0,0,0,3-3h0a3,3,0,0,0-2.18-2.89A32,32,0,0,0,1293.55,746.41Z"/><path class="cls-70" d="M1293.73,749.19H1292a55.51,55.51,0,0,0-2.67,6h4.42a3,3,0,0,0,3-3h0A3,3,0,0,0,1293.73,749.19Z"/><path class="cls-74" d="M1427,782.26c-1.13,3.59-1,3-1.33,4.25a3.86,3.86,0,0,0-1.88,0c-.19-.63-.07-.23-1.33-4.24A8.24,8.24,0,0,1,1427,782.26Zm-1,7.88a1.24,1.24,0,0,1-2.48,0A1.24,1.24,0,0,1,1426,790.14Zm.49,0a.52.52,0,0,1,1,0,.52.52,0,0,1-1,0Zm-1.21-2.25a.52.52,0,0,1-1,0A.52.52,0,0,1,1425.29,787.89Zm-3.28,2.25a.52.52,0,0,1,1,0,.52.52,0,0,1-1,0Zm3.28,2.25a.52.52,0,0,1-1,0A.52.52,0,0,1,1425.29,792.39ZM1420.8,783a8.25,8.25,0,0,0-3.21,3.21l4,2.06a3.71,3.71,0,0,1,1.32-1.32L1420.8,783Zm-3.91,4.91,4.25,1.33a3.82,3.82,0,0,0,0,1.87l-4.25,1.33a8.3,8.3,0,0,1,0-4.53Zm.7,6.22a8.19,8.19,0,0,0,3.21,3.21c2-3.82,1.69-3.24,2.06-3.94a3.74,3.74,0,0,1-1.32-1.33l-4,2.06Zm4.9,3.92c1.25-4,1-3.1,1.33-4.25a3.85,3.85,0,0,0,1.88,0L1427,798a8.24,8.24,0,0,1-4.54,0Zm6.24-.7a8.19,8.19,0,0,0,3.21-3.21l-3.94-2.06a3.94,3.94,0,0,1-1.33,1.33c.59,1.14,0,0,2.06,3.94Zm3.92-4.91-4.25-1.33a3.74,3.74,0,0,0,0-1.88l4.25-1.33a8.24,8.24,0,0,1,0,4.54Zm-3.92-9.45c-1.91,3.65-1.53,2.93-2.06,3.95a3.91,3.91,0,0,1,1.33,1.32l3.94-2.06A8.25,8.25,0,0,0,1428.73,783Z"/><path class="cls-74" d="M1308.93,782.26l-1.34,4.25a3.82,3.82,0,0,0-1.87,0l-1.33-4.24A8.24,8.24,0,0,1,1308.93,782.26Zm-1,7.88a1.25,1.25,0,0,1-2.49,0A1.25,1.25,0,0,1,1307.91,790.14Zm.49,0a.52.52,0,0,1,1,0,.52.52,0,0,1-1,0Zm-1.22-2.25a.52.52,0,0,1-1,0A.52.52,0,0,1,1307.18,787.89Zm-3.28,2.25a.52.52,0,0,1,1,0,.52.52,0,0,1-1,0Zm3.28,2.25a.52.52,0,0,1-1,0A.52.52,0,0,1,1307.18,792.39Zm-4.49-9.42a8.23,8.23,0,0,0-3.2,3.21l3.94,2.06a3.88,3.88,0,0,1,1.32-1.32c-.6-1.15-.14-.28-2.06-3.95Zm-3.9,4.91,4.24,1.33a3.94,3.94,0,0,0,0,1.87l-4.24,1.33a8.12,8.12,0,0,1,0-4.53Zm.7,6.22a8.16,8.16,0,0,0,3.2,3.21l2.06-3.94a3.91,3.91,0,0,1-1.32-1.33l-3.94,2.06Zm4.9,3.92,1.33-4.25a3.81,3.81,0,0,0,1.87,0l1.34,4.24a8.24,8.24,0,0,1-4.54,0Zm6.23-.7a8.21,8.21,0,0,0,3.22-3.21l-3.95-2.06a3.77,3.77,0,0,1-1.33,1.33l2.06,3.94Zm3.92-4.91-4.24-1.33a3.86,3.86,0,0,0,0-1.88l4.24-1.33a8.15,8.15,0,0,1,0,4.54Zm-3.92-9.45c-1.9,3.65-1.52,2.93-2.06,3.95a3.74,3.74,0,0,1,1.33,1.32l3.95-2.06A8.28,8.28,0,0,0,1310.62,783Z"/><path class="cls-70" d="M1404.35,762c-11.06-14.12-24.27-23.63-43.13-23.63h-32c-9,0-14.93,7-18.76,15.93Zm-75.13-22.47h32c17.42,0,29.94,8.29,40.53,21.09l-89.56-7.34C1315.48,746.24,1320.72,739.53,1329.22,739.53Z"/><rect class="cls-66" x="1387.59" y="773.22" width="3.48" height="3.48" transform="translate(2778.66 1549.91) rotate(180)"/><rect class="cls-66" x="1380.63" y="773.22" width="3.48" height="3.48" transform="translate(2764.74 1549.91) rotate(180)"/><rect class="cls-66" x="1373.68" y="773.22" width="3.48" height="3.48" transform="translate(2750.83 1549.91) rotate(180)"/><rect class="cls-66" x="1366.72" y="773.22" width="3.48" height="3.48" transform="translate(2736.92 1549.91) rotate(180)"/><rect class="cls-66" x="1384.11" y="776.69" width="3.48" height="3.48" transform="translate(2771.7 1556.86) rotate(180)"/><rect class="cls-66" x="1377.16" y="776.69" width="3.48" height="3.48" transform="translate(2757.79 1556.86) rotate(180)"/><rect class="cls-66" x="1370.2" y="776.69" width="3.48" height="3.48" transform="translate(2743.88 1556.86) rotate(180)"/><rect class="cls-66" x="1349.26" y="773.22" width="3.48" height="3.48" transform="translate(2702 1549.91) rotate(180)"/><rect class="cls-66" x="1342.3" y="773.22" width="3.48" height="3.48" transform="translate(2688.09 1549.91) rotate(180)"/><rect class="cls-66" x="1335.35" y="773.22" width="3.48" height="3.48" transform="translate(2674.18 1549.91) rotate(180)"/><rect class="cls-66" x="1328.39" y="773.22" width="3.48" height="3.48" transform="translate(2660.27 1549.91) rotate(180)"/><rect class="cls-66" x="1345.78" y="776.69" width="3.48" height="3.48" transform="translate(2695.04 1556.86) rotate(180)"/><rect class="cls-66" x="1338.83" y="776.69" width="3.48" height="3.48" transform="translate(2681.13 1556.86) rotate(180)"/><rect class="cls-66" x="1331.87" y="776.69" width="3.48" height="3.48" transform="translate(2667.22 1556.86) rotate(180)"/><rect class="cls-9" x="266.77" y="556.84" width="17.04" height="32.97"/><rect class="cls-9" x="263.89" y="552.33" width="22.67" height="6.68"/><rect class="cls-79" x="266.77" y="558.94" width="17" height="4.08"/><polygon class="cls-28" points="357.4 540.11 357.54 726.98 244.92 726.7 244.89 614.49 357.4 540.11"/><polygon class="cls-10" points="357.45 536.04 357.45 527.23 231.66 611.7 235.26 618.48 357.45 536.04"/><polygon class="cls-9" points="357.45 535.12 357.45 541.67 244.88 618.48 235.26 618.48 357.45 535.12"/><rect class="cls-80" x="244.89" y="736.21" width="112.73" height="6.51" transform="translate(602.51 1478.94) rotate(180)"/><rect class="cls-81" x="244.89" y="723.35" width="112.73" height="13.37" transform="translate(602.51 1460.06) rotate(180)"/><polygon class="cls-13" points="244.4 618.94 244.4 624.69 357.39 548.27 357.39 541.63 244.4 618.94"/><polygon class="cls-57" points="356.38 445.56 356.24 726.98 511.71 726.7 511.74 533.57 356.38 445.56"/><polygon class="cls-10" points="356.33 441.5 356.33 432.68 524.97 530.79 521.37 537.56 356.33 441.5"/><polygon class="cls-9" points="356.33 440.57 356.33 447.12 511.75 537.56 521.37 537.56 356.33 440.57"/><rect class="cls-82" x="356.16" y="736.21" width="155.57" height="6.51"/><rect class="cls-83" x="356.16" y="723.35" width="155.57" height="13.37"/><polygon class="cls-13" points="512.23 538.02 512.23 543.77 356.39 453.72 356.39 447.09 512.23 538.02"/><rect class="cls-18" x="282.72" y="620.38" width="40.96" height="25.53"/><rect class="cls-15" x="285.55" y="623.21" width="35.3" height="19.87"/><polygon class="cls-84" points="283.04 620.84 283.04 645.64 279.42 649.2 279.42 617.23 283.04 620.84"/><polygon class="cls-84" points="326.84 617.23 323.31 620.84 283.04 620.84 279.42 617.23 279.42 617.16 326.84 617.23"/><polygon class="cls-85" points="323.31 620.84 323.31 645.56 326.94 649.2 326.94 617.23 323.31 620.84"/><polygon class="cls-85" points="326.9 649.2 323.37 645.6 283.09 645.6 279.47 649.2 279.47 649.27 326.9 649.2"/><rect class="cls-18" x="302.28" y="621.92" width="2.04" height="22.63" transform="translate(606.59 1266.48) rotate(180)"/><rect class="cls-86" x="280.28" y="660.17" width="43.84" height="2"/><rect class="cls-87" x="280.28" y="662.17" width="43.84" height="6.83"/><rect class="cls-88" x="284.17" y="669.04" width="36.42" height="54.56"/><rect class="cls-41" x="287.43" y="672.21" width="30.01" height="51.5"/><rect class="cls-42" x="287.43" y="672.21" width="2.77" height="51.48"/><rect class="cls-42" x="314.64" y="672.21" width="2.77" height="51.48"/><rect class="cls-42" x="301" y="658.62" width="2.72" height="29.85" transform="translate(-371.18 975.9) rotate(-90)"/><path class="cls-89" d="M287.43,672.21,284.17,669H321l-3.58,3.21S287.59,672.05,287.43,672.21Z"/><rect class="cls-64" x="279.98" y="729.52" width="44.28" height="7.24"/><rect class="cls-68" x="279.98" y="736.76" width="44.28" height="5.96"/><rect class="cls-67" x="279.98" y="723.3" width="44.28" height="6.86"/><rect class="cls-18" x="379.19" y="649.61" width="107.42" height="39.82"/><rect class="cls-15" x="382.46" y="653.07" width="100.82" height="36.19"/><polygon class="cls-58" points="486.28 650.07 486.28 689.42 489.9 689.42 489.9 646.46 486.28 650.07"/><polygon class="cls-61" points="376.02 646.46 379.55 650.07 486.28 650.07 489.9 646.46 489.9 646.39 376.02 646.46"/><polygon class="cls-58" points="379.55 650.07 379.55 689.43 375.93 689.42 375.93 646.46 379.55 650.07"/><rect class="cls-18" x="409" y="652.12" width="2.04" height="36.97" transform="translate(820.04 1341.21) rotate(180)"/><rect class="cls-18" x="457.1" y="652.12" width="2.04" height="36.97" transform="translate(916.24 1341.21) rotate(180)"/><rect class="cls-18" x="432.04" y="618.56" width="2.04" height="104.1" transform="translate(1103.67 237.54) rotate(90)"/><polygon class="cls-15" points="377.1 610.01 408.92 610.01 408.92 516.04 377.1 497 377.1 610.01"/><polygon class="cls-90" points="409.06 558.16 378.94 587.98 380.26 594.28 409.1 565.75 409.06 558.16"/><polygon class="cls-90" points="407.75 550.45 378.48 579.73 378.37 584.48 407.79 555.06 407.75 550.45"/><rect class="cls-18" x="378.52" y="499.88" width="2.99" height="110.09"/><rect class="cls-18" x="404.28" y="515.79" width="2.99" height="94.18"/><polygon class="cls-18" points="407.93 515.38 407 518.23 378.81 503.04 379.75 500.19 407.93 515.38"/><polygon class="cls-67" points="374.86 493.33 374.86 493.23 410.84 513.36 410.59 610.01 407.08 610.02 407.18 515.16 378.52 499.88 378.51 499.88 378.42 609.99 374.61 610.01 374.86 493.33"/><polygon class="cls-61" points="374.86 493.33 378.52 499.88 407.18 515.16 410.84 513.36 374.86 493.33"/><rect class="cls-18" x="423.81" y="541.33" width="65.16" height="68.73"/><rect class="cls-15" x="428.18" y="545.15" width="57.09" height="64.75"/><polygon class="cls-90" points="458 556.16 428.1 585.75 428.19 593.28 458.03 563.75 458 556.16"/><polygon class="cls-90" points="456.69 548.45 428.11 577.08 428.03 581.76 456.73 553.06 456.69 548.45"/><polygon class="cls-90" points="485.28 557.55 456.99 585.75 457.09 593.28 485.31 565.14 485.28 557.55"/><polygon class="cls-90" points="485.36 548.67 457 577.08 456.92 581.76 485.4 553.28 485.36 548.67"/><polygon class="cls-58" points="488.65 541.79 488.65 610.07 492.28 610.07 492.28 538.19 488.65 541.79"/><polygon class="cls-61" points="420.65 538.19 424.18 541.79 488.65 541.79 492.28 538.19 492.28 538.11 420.65 538.19"/><polygon class="cls-58" points="424.17 541.79 424.17 610.07 420.55 610.07 420.55 538.19 424.17 541.79"/><rect class="cls-61" x="456.31" y="540.65" width="2.69" height="69.38" transform="translate(915.31 1150.68) rotate(180)"/><rect class="cls-91" x="356.29" y="607.39" width="168.18" height="16.03"/><rect class="cls-92" x="356.29" y="605.39" width="168.18" height="3.34"/><rect class="cls-91" x="370.66" y="688.99" width="122.92" height="7.01"/><rect class="cls-92" x="370.91" y="688.74" width="122.92" height="1.82"/><path class="cls-7" d="M856.08,724.89a23.81,23.81,0,0,0-21.65,13.94,16.77,16.77,0,0,0-30.91,4.92h75.86A23.82,23.82,0,0,0,856.08,724.89Z"/><path class="cls-93" d="M1795.63,549.1c-5.37-24.25-28.35-42.48-55.88-42.48-31.42,0-56.91,23.74-57.07,53.09a57.18,57.18,0,0,0-14,37.3c0,33,28.63,59.8,64,59.8,21.9,0,41.22-4.95,52.75-20.64,1.39.12,2.79.19,4.2.19,24.31,0,44-23.77,44-46.5C1833.63,569,1817.09,551.84,1795.63,549.1Z"/><path class="cls-93" d="M1720.66,646.57c-32.62,0-59.15-24.82-59.15-55.32a52.48,52.48,0,0,1,12.92-34.48l4-4.62,0-5.91c.14-26.07,22.94-47.28,50.81-47.28,24,0,44.91,15.9,49.76,37.82l2.62,11.77,12.74,1.63c17.23,2.2,30.22,16.14,30.22,32.43,0,18.06-15.71,32.75-35,32.75-1.07,0-2.2-.05-3.37-.16l-10.65-.94-6.06,8.25C1758.39,637.57,1740.15,646.57,1720.66,646.57Z"/><path class="cls-94" d="M1762.84,533.45a10.65,10.65,0,0,1-1.24,5.44,13.78,13.78,0,0,1-3.17,4,13.58,13.58,0,0,1-4.4,2.61,10.93,10.93,0,0,1-5.54.55,16.5,16.5,0,0,1,2.45-4.79,20.59,20.59,0,0,1,3.1-3.39,20.85,20.85,0,0,1,3.77-2.61A18.07,18.07,0,0,1,1762.84,533.45Z"/><path class="cls-94" d="M1741.56,529a10.7,10.7,0,0,1,3.45,4.39,13.65,13.65,0,0,1,1.15,5,13.93,13.93,0,0,1-.73,5.06,11,11,0,0,1-3.06,4.66,17.27,17.27,0,0,1-2.19-4.91,20.47,20.47,0,0,1-.35-9.12A17.72,17.72,0,0,1,1741.56,529Z"/><path class="cls-95" d="M1795.63,549.1c-3.72-16.79-22.34-42.48-56.7-49.25,24.38,9.07,37.84,26.91,40,36.93l2.62,11.77,12.74,1.63c17.23,2.2,28.21,16.14,28.21,32.43,0,18.06-13.7,29-33,29-1.07,0-2.2-.06-3.37-.16l-10.65-.94-6.06,8.25a61.05,61.05,0,0,1-48.8,24.68c-15.24,0-29.14-2.29-39.64-11.17,11.63,14.88,30.43,24.54,51.65,24.54,21.9,0,41.22-4.95,52.75-20.64,1.39.12,2.79.19,4.2.19,24.31,0,44-23.77,44-46.5C1833.63,569,1817.09,551.84,1795.63,549.1Z"/><path class="cls-94" d="M1764.94,576.76a64.63,64.63,0,0,0-13.08-10,47.15,47.15,0,0,0-13.92-5.32,47.74,47.74,0,0,0-14.9-.54,64.94,64.94,0,0,0-16,4.09c2.92-5.35,8.11-9.37,14-11.7a33.32,33.32,0,0,1,35.65,7.29C1761.14,565,1764.34,570.7,1764.94,576.76Z"/><path class="cls-94" d="M1663.73,591.15a36.94,36.94,0,0,1,1.8-19.24,41.23,41.23,0,0,1,11.13-16.6,37.57,37.57,0,0,1,18.09-9c6.6-1.22,13.67-.53,19.29,2.78a58.89,58.89,0,0,0-17,4.75,54.18,54.18,0,0,0-13.68,8.9,65.4,65.4,0,0,0-10.77,12.62A140.79,140.79,0,0,0,1663.73,591.15Z"/><path class="cls-94" d="M1729.22,499a50.93,50.93,0,0,0-50.81,50.56l0,6.32-3.32,4.15,20.4-9.19S1692.4,509,1729.22,499Z"/><path class="cls-95" d="M1729.6,623.7a7.53,7.53,0,0,1,3.93-1.12,9.36,9.36,0,0,1,3.69.7,9.7,9.7,0,0,1,3.15,2.06,7.57,7.57,0,0,1,2.05,3.53,12.88,12.88,0,0,1-3.91-.06,14.76,14.76,0,0,1-6-2.46A13.25,13.25,0,0,1,1729.6,623.7Z"/><path class="cls-95" d="M1739.66,608.47a7.52,7.52,0,0,1,3.64,1.86,9.55,9.55,0,0,1,3.14,6.67,7.54,7.54,0,0,1-.89,4,13,13,0,0,1-2.83-2.71,14.92,14.92,0,0,1-2.77-5.92A13,13,0,0,1,1739.66,608.47Z"/><path class="cls-95" d="M1792,586.88a12.33,12.33,0,0,1,2.54,5.28,16.59,16.59,0,0,1-1.15,10.55,12.71,12.71,0,0,1-3.59,4.61,16.8,16.8,0,0,1-1.59-5.49,22.27,22.27,0,0,1,0-5,22.58,22.58,0,0,1,1.12-4.89A18.06,18.06,0,0,1,1792,586.88Z"/><path class="cls-96" d="M1772,636.15c-7.73,16.24-5.5,13.25-9.31,21.08-1.66,3.44-7.23,17.1-7.9,18.45-.63-11.41-.66-27.08-.36-41l-4.8.11c-1.05,16.24-2.57,24.83-4,42.19a.46.46,0,0,1-.87.17c-2.84-5.41-6-10-9.08-15.24l-10.15-17.94-3.46.28c2.75,6.54,6.45,15.12,9.32,21.57s5.81,12.21,8.45,18.69l.23.59a55.86,55.86,0,0,1,3.54,22.1l-.45,32.4,15-.21c-1.28-13.19-.82-14.23-1.75-30.46-.79-13.82,1.81-22.78,5.3-36,.35-1.33.7-2.57,1-3.66l0-.08c1.16-3.76,1.14-7.53,2.56-11.24L1771,646.1l3.79-11.25Z"/><path class="cls-97" d="M1761.59,673.35c.39-1.52.79-2.93,1.17-4.15l0-.08c1.16-3.76,2.41-7.53,3.83-11.24l9.44-24.94-3.63,1.06-9.07,18.78s-4.77,9.92-7,14.37a.77.77,0,0,1-1.46-.33c-.62-16.65,0-23.14.19-34.4l-5.36,2.89-1.5,16.63s3.8,11.55,3.73,20.3-5.62,67.27-1,67.22l1.5,0H1754l1,0h.36l2.82-.06c-1.32-13.59-.46-5.3-.52-34.62A123.92,123.92,0,0,1,1761.59,673.35Z"/><path class="cls-93" d="M252.32,549.1C247,524.85,224,506.62,196.44,506.62c-31.42,0-56.9,23.74-57.06,53.09a57.19,57.19,0,0,0-14,37.3c0,33,28.64,59.8,64,59.8,21.9,0,41.23-4.95,52.76-20.64,1.38.12,2.78.19,4.2.19,24.3,0,44-23.77,44-46.5C290.32,569,273.78,551.84,252.32,549.1Z"/><path class="cls-93" d="M177.35,646.57c-32.62,0-59.15-24.82-59.15-55.32a52.53,52.53,0,0,1,12.92-34.48l3.95-4.62,0-5.91C135.25,520.17,158,499,185.92,499c24,0,44.9,15.9,49.76,37.82l2.61,11.77L251,550.18c17.23,2.2,30.22,16.14,30.22,32.43,0,18.06-15.71,32.75-35,32.75-1.07,0-2.2-.05-3.37-.16l-10.65-.94-6.06,8.25C215.09,637.57,196.84,646.57,177.35,646.57Z"/><path class="cls-94" d="M219.54,533.45a10.65,10.65,0,0,1-1.25,5.44,13.78,13.78,0,0,1-3.17,4,13.37,13.37,0,0,1-4.4,2.61,10.93,10.93,0,0,1-5.54.55,17,17,0,0,1,2.45-4.79,20.59,20.59,0,0,1,3.1-3.39,20.85,20.85,0,0,1,3.77-2.61A18,18,0,0,1,219.54,533.45Z"/><path class="cls-94" d="M198.26,529a10.7,10.7,0,0,1,3.45,4.39,14,14,0,0,1,.41,10,11,11,0,0,1-3.06,4.66,16.94,16.94,0,0,1-2.18-4.91,19.76,19.76,0,0,1-.69-4.55,21,21,0,0,1,.33-4.57A18.08,18.08,0,0,1,198.26,529Z"/><path class="cls-95" d="M252.32,549.1c-3.72-16.79-22.34-42.48-56.69-49.25,24.37,9.07,37.83,26.91,40.05,36.93l2.61,11.77L251,550.18c17.23,2.2,28.22,16.14,28.22,32.43,0,18.06-13.71,29-33,29-1.07,0-2.2-.06-3.37-.16l-10.65-.94-6.06,8.25a61,61,0,0,1-48.8,24.68c-15.23,0-29.14-2.29-39.64-11.17,11.64,14.88,30.43,24.54,51.65,24.54,21.9,0,41.23-4.95,52.76-20.64,1.38.12,2.78.19,4.2.19,24.3,0,44-23.77,44-46.5C290.32,569,273.78,551.84,252.32,549.1Z"/><path class="cls-94" d="M221.63,576.76a64.63,64.63,0,0,0-13.08-10,47.15,47.15,0,0,0-13.92-5.32,47.67,47.67,0,0,0-14.89-.54,64.9,64.9,0,0,0-16,4.09c2.92-5.35,8.11-9.37,13.95-11.7a33.32,33.32,0,0,1,35.65,7.29C217.83,565,221,570.7,221.63,576.76Z"/><path class="cls-94" d="M120.42,591.15a36.84,36.84,0,0,1,1.81-19.24,41.21,41.21,0,0,1,11.12-16.6,37.61,37.61,0,0,1,18.09-9c6.61-1.22,13.68-.53,19.29,2.78a58.74,58.74,0,0,0-17,4.75,54.41,54.41,0,0,0-13.69,8.9,65.4,65.4,0,0,0-10.77,12.62A140.79,140.79,0,0,0,120.42,591.15Z"/><path class="cls-94" d="M185.92,499a50.94,50.94,0,0,0-50.82,50.56l0,6.32L131.75,560l20.4-9.19S149.1,509,185.92,499Z"/><path class="cls-95" d="M186.29,623.7a7.53,7.53,0,0,1,3.93-1.12,9.44,9.44,0,0,1,3.7.7,9.56,9.56,0,0,1,3.14,2.06,7.49,7.49,0,0,1,2.05,3.53,12.8,12.8,0,0,1-3.9-.06,14.93,14.93,0,0,1-3.17-.89,15.72,15.72,0,0,1-2.89-1.57A13.25,13.25,0,0,1,186.29,623.7Z"/><path class="cls-95" d="M196.35,608.47a7.52,7.52,0,0,1,3.64,1.86,9.55,9.55,0,0,1,2.24,3,9.43,9.43,0,0,1,.9,3.65,7.54,7.54,0,0,1-.89,4,13.2,13.2,0,0,1-2.83-2.71,14.92,14.92,0,0,1-2.77-5.92A13.69,13.69,0,0,1,196.35,608.47Z"/><path class="cls-95" d="M248.68,586.88a12.33,12.33,0,0,1,2.54,5.28,16.42,16.42,0,0,1-1.15,10.55,12.6,12.6,0,0,1-3.59,4.61,16.76,16.76,0,0,1-1.58-5.49,21.71,21.71,0,0,1,0-5,22.58,22.58,0,0,1,1.12-4.89A18.06,18.06,0,0,1,248.68,586.88Z"/><path class="cls-96" d="M228.71,636.15c-7.72,16.24-5.49,13.25-9.31,21.08-1.66,3.44-7.22,17.1-7.89,18.45-.64-11.41-.66-27.08-.37-41l-4.8.11c-1.05,16.24-2.56,24.83-4,42.19a.47.47,0,0,1-.88.17c-2.84-5.41-6-10-9.07-15.24l-10.15-17.94-3.46.28c2.74,6.54,6.44,15.12,9.31,21.57s5.81,12.21,8.45,18.69c.08.18.15.38.23.59a55.68,55.68,0,0,1,3.54,22.1l-.45,32.4,15-.21c-1.29-13.19-.83-14.23-1.76-30.46-.79-13.82,1.81-22.78,5.3-36,.35-1.33.7-2.57,1-3.66l0-.08c1.15-3.76,1.13-7.53,2.55-11.24l5.66-11.78,3.78-11.25Z"/><path class="cls-97" d="M218.28,673.35c.4-1.52.79-2.93,1.17-4.15l0-.08c1.15-3.76,2.4-7.53,3.82-11.24l9.44-24.94L229.11,634,220,652.78s-4.77,9.92-7,14.37a.78.78,0,0,1-1.47-.33c-.62-16.65-.05-23.14.19-34.4l-5.36,2.89-1.5,16.63s3.8,11.55,3.74,20.3-5.62,67.27-1,67.22l1.5,0h1.62l1,0h.37l2.82-.06c-1.33-13.59-.47-5.3-.52-34.62A123.91,123.91,0,0,1,218.28,673.35Z"/><path class="cls-7" d="M1773.28,720.33A28.87,28.87,0,0,0,1747,737.24a20.35,20.35,0,0,0-37.51,6h92A28.91,28.91,0,0,0,1773.28,720.33Z"/><path class="cls-7" d="M600.73,717.92a34.22,34.22,0,0,0-31.14,20A24.12,24.12,0,0,0,525.14,745H634.23A34.25,34.25,0,0,0,600.73,717.92Z"/><path class="cls-7" d="M201.05,720.33a28.88,28.88,0,0,1,26.27,16.91,20.35,20.35,0,0,1,37.51,6H172.77A28.92,28.92,0,0,1,201.05,720.33Z"/><path class="cls-98" d="M1479.29,642.7c-3.62-16.35-19.11-28.65-37.68-28.65-21.18,0-38.37,16-38.48,35.8a38.58,38.58,0,0,0-9.42,25.15c0,22.28,19.31,40.33,43.13,40.33,14.77,0,27.8-3.33,35.57-13.92.93.08,1.88.13,2.83.13,16.39,0,29.68-16,29.68-31.35C1504.92,656.15,1493.77,644.55,1479.29,642.7Z"/><path class="cls-93" d="M1428.74,708.42c-22,0-39.89-16.73-39.89-37.3a35.41,35.41,0,0,1,8.72-23.25l2.66-3.11,0-4c.1-17.58,15.47-31.88,34.27-31.88,16.16,0,30.28,10.73,33.55,25.5l1.76,7.94,8.59,1.1c11.62,1.48,20.38,10.88,20.38,21.87,0,12.17-10.59,22.08-23.61,22.08-.72,0-1.49,0-2.28-.1l-7.18-.64-4.08,5.56A40.78,40.78,0,0,1,1428.74,708.42Z"/><path class="cls-95" d="M1479.29,642.7c-2.5-11.32-15.06-28.65-38.23-33.21,16.44,6.12,25.51,18.15,27,24.9l1.76,7.94,8.59,1.1c11.62,1.48,19,10.88,19,21.87,0,12.17-9.24,19.55-22.26,19.55-.72,0-1.49,0-2.28-.1l-7.18-.64-4.08,5.56a41.17,41.17,0,0,1-32.91,16.65c-10.27,0-19.65-1.55-26.73-7.54a44.08,44.08,0,0,0,34.83,16.55c14.77,0,27.8-3.33,35.57-13.92.93.08,1.88.13,2.83.13,16.39,0,29.68-16,29.68-31.35C1504.92,656.15,1493.77,644.55,1479.29,642.7Z"/><path class="cls-94" d="M1458.6,661.35a49.86,49.86,0,0,0-9.16-6.32,34.41,34.41,0,0,0-9.19-3.33,35,35,0,0,0-9.76-.52,50.64,50.64,0,0,0-10.91,2.21,17.6,17.6,0,0,1,9.27-8.42,22.25,22.25,0,0,1,24.52,5A17.64,17.64,0,0,1,1458.6,661.35Z"/><path class="cls-94" d="M1390.35,671.05a23.55,23.55,0,0,1,.72-13.21,27.14,27.14,0,0,1,7.53-11.48,25,25,0,0,1,12.51-6.05c4.56-.75,9.43-.12,13.17,2.41a44.12,44.12,0,0,0-11.32,3.73,40.18,40.18,0,0,0-8.91,6,49.37,49.37,0,0,0-7.24,8.23C1394.58,663.78,1392.59,667.21,1390.35,671.05Z"/><path class="cls-94" d="M1434.52,608.89A34.35,34.35,0,0,0,1400.25,643l0,4.27-2.24,2.8,13.75-6.2S1409.69,615.65,1434.52,608.89Z"/><path class="cls-99" d="M1463.37,701.4c-5.21,11-3.7,8.93-6.27,14.22-1.12,2.31-4.88,11.53-5.33,12.44-.43-7.7,0-19.86.14-29.27l-4.45,2.94c-.71,10.95-.46,18.76-2.67,20.71s-3.9-.28-5.92-3.69-6.85-12.11-6.85-12.11l-2.33.2c1.85,4.41,4.34,10.19,6.28,14.54s3.92,8.23,5.7,12.6c0,.12.1.26.15.4a32.84,32.84,0,0,1,2.09,8l10.13-.14c-.87-8.89,0-7.13,2.39-16.07.23-.9.47-1.73.7-2.46l0-.06c.77-2.53.76-5.07,1.72-7.57l3.81-7.95,2.55-7.59Z"/><path class="cls-100" d="M1456.34,726.49c.27-1,.53-2,.79-2.8l0-.06c.77-2.53,1.62-5.07,2.58-7.57l6.36-16.82-2.45.71-6.11,12.66s-3.22,6.7-4.75,9.69a.52.52,0,0,1-1-.22c-.42-11.23,0-15.7.12-23.29l-4.45,2.94s0,1.72-.45,7.55v1.87s2.84,8.69,2.8,14.58-.66,16.57-.66,16.57l4.89-.08C1453.14,733.06,1454.55,733.39,1456.34,726.49Z"/><path class="cls-98" d="M557.38,642.7c-3.62-16.35-19.12-28.65-37.68-28.65-21.19,0-38.37,16-38.48,35.8A38.54,38.54,0,0,0,471.79,675c0,22.28,19.31,40.33,43.13,40.33,14.77,0,27.8-3.33,35.58-13.92.93.08,1.87.13,2.83.13,16.39,0,29.67-16,29.67-31.35C583,656.15,571.85,644.55,557.38,642.7Z"/><path class="cls-93" d="M506.83,708.42c-22,0-39.89-16.73-39.89-37.3a35.4,35.4,0,0,1,8.71-23.25l2.66-3.11,0-4c.09-17.58,15.46-31.88,34.26-31.88,16.17,0,30.28,10.73,33.55,25.5l1.76,7.94,8.6,1.1c11.62,1.48,20.38,10.88,20.38,21.87,0,12.17-10.6,22.08-23.62,22.08-.72,0-1.48,0-2.27-.1l-7.19-.64-4.08,5.56A40.76,40.76,0,0,1,506.83,708.42Z"/><path class="cls-95" d="M557.38,642.7c-2.51-11.32-15.07-28.65-38.23-33.21,16.44,6.12,25.51,18.15,27,24.9l1.76,7.94,8.6,1.1c11.62,1.48,19,10.88,19,21.87,0,12.17-9.24,19.55-22.26,19.55-.72,0-1.48,0-2.27-.1l-7.19-.64-4.08,5.56a41.15,41.15,0,0,1-32.9,16.65c-10.28,0-19.66-1.55-26.74-7.54a44.08,44.08,0,0,0,34.83,16.55c14.77,0,27.8-3.33,35.58-13.92.93.08,1.87.13,2.83.13,16.39,0,29.67-16,29.67-31.35C583,656.15,571.85,644.55,557.38,642.7Z"/><path class="cls-94" d="M536.68,661.35a49.86,49.86,0,0,0-9.16-6.32,34.29,34.29,0,0,0-9.19-3.33,34.9,34.9,0,0,0-9.75-.52,50.64,50.64,0,0,0-10.91,2.21,17.54,17.54,0,0,1,9.26-8.42,22.25,22.25,0,0,1,24.52,5A17.6,17.6,0,0,1,536.68,661.35Z"/><path class="cls-94" d="M468.44,671.05a23.37,23.37,0,0,1,.72-13.21,27.12,27.12,0,0,1,7.52-11.48,25,25,0,0,1,12.51-6.05c4.56-.75,9.44-.12,13.17,2.41a44,44,0,0,0-11.31,3.73,40,40,0,0,0-8.92,6,49.83,49.83,0,0,0-7.24,8.23C472.66,663.78,470.68,667.21,468.44,671.05Z"/><path class="cls-94" d="M512.6,608.89A34.34,34.34,0,0,0,478.34,643l0,4.27-2.23,2.8,13.75-6.2S487.77,615.65,512.6,608.89Z"/><path class="cls-99" d="M541.46,701.4c-5.21,11-3.71,8.93-6.28,14.22-1.12,2.31-4.87,11.53-5.32,12.44-.43-7.7-.06-19.86.14-29.27l-4.46,2.94c-.7,10.95-.45,18.76-2.66,20.71s-3.9-.28-5.93-3.69-6.85-12.11-6.85-12.11l-2.33.2c1.85,4.41,4.35,10.19,6.29,14.54s3.91,8.23,5.69,12.6l.16.4a33.05,33.05,0,0,1,2.08,8l10.13-.14c-.87-8.89,0-7.13,2.39-16.07.24-.9.47-1.73.7-2.46l0-.06c.78-2.53.76-5.07,1.72-7.57l3.82-7.95,2.55-7.59Z"/><path class="cls-100" d="M534.42,726.49c.27-1,.54-2,.79-2.8l0-.06c.78-2.53,1.62-5.07,2.58-7.57l6.36-16.82-2.44.71-6.12,12.66s-3.22,6.7-4.75,9.69a.52.52,0,0,1-1-.22c-.41-11.23,0-15.7.13-23.29l-4.46,2.94s0,1.72-.45,7.55v1.87s2.84,8.69,2.8,14.58-.66,16.57-.66,16.57l4.89-.08C531.23,733.06,532.63,733.39,534.42,726.49Z"/><polygon class="cls-101" points="1257.93 536.02 1234.04 594.43 1281.81 594.43 1257.93 536.02"/><polygon class="cls-101" points="1257.93 553.94 1224.81 634.93 1291.05 634.93 1257.93 553.94"/><polygon class="cls-101" points="1257.93 569.69 1214.91 674.9 1300.95 674.9 1257.93 569.69"/><polygon class="cls-101" points="1257.93 585.17 1205.17 714.18 1310.68 714.18 1257.93 585.17"/><polygon class="cls-102" points="1257.93 536.02 1268.05 595.03 1281.81 595.03 1257.93 536.02"/><polygon class="cls-102" points="1267.16 575.92 1277.28 634.93 1291.05 634.93 1267.16 575.92"/><polygon class="cls-102" points="1277.02 616.49 1287.13 675.5 1300.9 675.5 1277.02 616.49"/><polygon class="cls-102" points="1286.8 655.17 1296.92 714.18 1310.68 714.18 1286.8 655.17"/><polygon class="cls-103" points="1241.37 594.43 1275.02 595.13 1281.47 610.96 1239.4 599.26 1241.37 594.43"/><polygon class="cls-103" points="1231.37 634.93 1284.45 634.93 1290.9 650.76 1229.4 639.75 1231.37 634.93"/><polygon class="cls-103" points="1221.44 675.42 1294.45 675.42 1300.9 691.26 1219.46 680.25 1221.44 675.42"/><rect class="cls-99" x="1250.47" y="714.18" width="14.25" height="28.41"/><path class="cls-100" d="M1250.47,714.18v7.73c5.42,0,9.81,3.8,9.81,9.21v11.47h4.84V714.18Z"/><polygon class="cls-101" points="796.64 536.02 772.76 594.43 820.53 594.43 796.64 536.02"/><polygon class="cls-101" points="796.64 553.94 763.52 634.93 829.76 634.93 796.64 553.94"/><polygon class="cls-101" points="796.64 569.69 753.62 674.9 839.66 674.9 796.64 569.69"/><polygon class="cls-101" points="796.64 585.17 743.89 714.18 849.4 714.18 796.64 585.17"/><polygon class="cls-102" points="796.64 536.02 806.76 595.03 820.53 595.03 796.64 536.02"/><polygon class="cls-102" points="805.88 575.92 816 634.93 829.76 634.93 805.88 575.92"/><polygon class="cls-102" points="815.73 616.49 825.85 675.5 839.62 675.5 815.73 616.49"/><polygon class="cls-102" points="825.51 655.17 835.63 714.18 849.4 714.18 825.51 655.17"/><polygon class="cls-103" points="780.08 594.43 813.73 595.13 820.18 610.96 778.11 599.26 780.08 594.43"/><polygon class="cls-103" points="770.08 634.93 823.17 634.93 829.62 650.76 768.11 639.75 770.08 634.93"/><polygon class="cls-103" points="760.15 675.42 833.17 675.42 839.62 691.26 758.18 680.25 760.15 675.42"/><rect class="cls-99" x="789.19" y="714.18" width="14.25" height="28.41"/><path class="cls-100" d="M789.19,714.18v7.73c5.42,0,9.81,3.8,9.81,9.21v11.47h4.83V714.18Z"/><path class="cls-104" d="M784,728.56c27.32-14.08,43.75-13.77,75.49-11,15.62,1.91,26.48,2.22,36.54,15.91,7.6,10.36,5.72,26.56,4.49,32.56L891,768.86l-31.59,2.37-116.46.91c-11.22,0-16.43-1.76-16.4-14.16,0-5.49,2.07-10.68,6.7-12.1C749.24,741,770.13,735.7,784,728.56Z"/><path class="cls-105" d="M765.44,755.73s15.66-8.13,23.78-9.71,42-4.46,53.91-5.35c18.29-1.38,36.6-2.52,54.88-4,5.24,10.23,3.61,23.91,2.5,29.31L891,768.86l-31.59,2.37L758.86,772Z"/><path class="cls-74" d="M758.88,752.3a16.3,16.3,0,0,1,16.3,16.3,16,16,0,0,1-.33,3.27l-31.89.25a16.32,16.32,0,0,1,15.92-19.82Z"/><circle class="cls-77" cx="758.88" cy="768.6" r="13.72" transform="translate(-36.65 38) rotate(-2.8)"/><path class="cls-106" d="M758.88,778.76a10.16,10.16,0,1,0-10.16-10.16A10.17,10.17,0,0,0,758.88,778.76Z"/><path class="cls-107" d="M750.08,763.52a10.16,10.16,0,1,1,3.72,13.88A10.16,10.16,0,0,1,750.08,763.52Z"/><path class="cls-74" d="M875.3,752.3a16.3,16.3,0,0,1,16.3,16.3v.12l-.64.11-31.58,2.38h-.17a16,16,0,0,1-.21-2.61A16.3,16.3,0,0,1,875.3,752.3Z"/><circle class="cls-77" cx="875.3" cy="768.6" r="13.72" transform="translate(81.14 1620.78) rotate(-88.3)"/><path class="cls-107" d="M875.3,778.76a10.16,10.16,0,1,0-10.15-10.16A10.17,10.17,0,0,0,875.3,778.76Z"/><path class="cls-104" d="M821.34,742.05a3,3,0,0,1-.65,1.87c-1.37,1.68-4.43,1.65-6.31,1-.86-.3-1.94-.85-2.12-1.85a2.85,2.85,0,0,1,1.33-2.45,7.9,7.9,0,0,1,2-1.19,5,5,0,0,1,4.29,0,2.94,2.94,0,0,1,1.21,1.46A3.15,3.15,0,0,1,821.34,742.05Z"/><path class="cls-105" d="M820.54,742.05c0,2.63-3.6,3-5.83,2.21-2-.71-2.23-1.82-.58-3.19s5.28-2.37,6.23,0A2.48,2.48,0,0,1,820.54,742.05Z"/><path class="cls-108" d="M811.39,742l10.66-1a.77.77,0,0,1,.82.69h0a.77.77,0,0,1-.69.82l-10.66.94a.76.76,0,0,1-.82-.68h0A.76.76,0,0,1,811.39,742Z"/><path class="cls-104" d="M867.11,738.53a2.9,2.9,0,0,1-.64,1.88c-1.37,1.68-4.43,1.65-6.32,1-.85-.31-1.93-.85-2.11-1.85a2.85,2.85,0,0,1,1.33-2.45,7.9,7.9,0,0,1,2-1.19,5,5,0,0,1,4.29,0,2.92,2.92,0,0,1,1.2,1.46A2.81,2.81,0,0,1,867.11,738.53Z"/><path class="cls-105" d="M866.32,738.58c-.05,2.63-3.63,2.95-5.86,2.12-2-.74-2.21-1.84-.54-3.19,1.82-1.47,5.31-2.29,6.23.12A2.39,2.39,0,0,1,866.32,738.58Z"/><path class="cls-108" d="M857.17,738.36l10.67-.78a.75.75,0,0,1,.81.7h0a.76.76,0,0,1-.69.81l-10.67.78a.77.77,0,0,1-.82-.7h0A.77.77,0,0,1,857.17,738.36Z"/><path class="cls-108" d="M894,737a2.68,2.68,0,0,0-2.37,2.66l.14,3.49a2.47,2.47,0,0,0,2.74,2.28l6.25-.48a31.43,31.43,0,0,0-2.78-8.26Z"/><path class="cls-78" d="M729.88,747.92l1.78-.14c1.45-.11,3.23.42,3.24,1.78v3.37c0,1.36-.5,2.7-1.92,3l-6.46,1.34C726.66,753.6,727.72,750.13,729.88,747.92Z"/><path class="cls-108" d="M901.34,760.44l-2.65.21a1.73,1.73,0,0,0-1.65,1.74l.09,2.26a1.59,1.59,0,0,0,1.78,1.48l1.61-.12A55.19,55.19,0,0,0,901.34,760.44Z"/><path class="cls-74" d="M867.9,764.33a8.63,8.63,0,0,1,2.33-2.61l.07.12a17.37,17.37,0,0,1,1.5,3.79c.18.9.05,1.13-.82,1.42a17.34,17.34,0,0,1-4,.6h-.13a8.51,8.51,0,0,1,1.09-3.31Zm4-3.56a.75.75,0,0,0,.07.12,17.25,17.25,0,0,0,2.53,3.19c.69.61,1,.61,1.64,0a17.29,17.29,0,0,0,2.54-3.19l.06-.12a8.52,8.52,0,0,0-6.84,0Zm8.5,1a8.6,8.6,0,0,1,3.42,5.92h-.14a17.33,17.33,0,0,1-4-.6c-.87-.29-1-.52-.82-1.42a16.88,16.88,0,0,1,1.5-3.79.75.75,0,0,1,.07-.12Zm3.42,7.84a8.52,8.52,0,0,1-1.1,3.31,8.36,8.36,0,0,1-2.32,2.61.35.35,0,0,1-.07-.12,16.88,16.88,0,0,1-1.5-3.79c-.19-.9,0-1.13.82-1.42a17.33,17.33,0,0,1,4-.6Zm-5.08,6.88a8.6,8.6,0,0,1-6.84,0,.75.75,0,0,1,.07-.12,17,17,0,0,1,2.53-3.2c.69-.61,1-.61,1.64,0a17,17,0,0,1,2.54,3.2l.06.12Zm-8.49-1a8.53,8.53,0,0,1-3.42-5.92h.13a17.34,17.34,0,0,1,4,.6c.87.29,1,.52.82,1.42a17.37,17.37,0,0,1-1.5,3.79,1.27,1.27,0,0,1-.07.12Zm5.07-5.4a1.36,1.36,0,0,1,0-2.71,1.36,1.36,0,1,1,0,2.71Z"/><path class="cls-74" d="M751.45,764.33a8.63,8.63,0,0,1,2.33-2.61.75.75,0,0,1,.07.12,16.88,16.88,0,0,1,1.5,3.79c.19.9,0,1.13-.82,1.42a17.33,17.33,0,0,1-4,.6h-.14a8.67,8.67,0,0,1,1.09-3.31Zm4-3.56a.67.67,0,0,0,.06.12,17.29,17.29,0,0,0,2.54,3.19c.68.61,1,.61,1.64,0a17.25,17.25,0,0,0,2.53-3.19.34.34,0,0,0,.06-.12,8.5,8.5,0,0,0-6.83,0Zm8.49,1a8.53,8.53,0,0,1,3.42,5.92h-.14a17.33,17.33,0,0,1-4-.6c-.87-.29-1-.52-.82-1.42a17.37,17.37,0,0,1,1.5-3.79l.07-.12Zm3.42,7.84a8.56,8.56,0,0,1-3.42,5.92.63.63,0,0,1-.07-.12,17.37,17.37,0,0,1-1.5-3.79c-.18-.9-.05-1.13.82-1.42a17.33,17.33,0,0,1,4-.6Zm-5.08,6.88a8.58,8.58,0,0,1-6.83,0l.06-.12a17,17,0,0,1,2.54-3.2c.68-.61,1-.61,1.64,0a17,17,0,0,1,2.53,3.2.34.34,0,0,1,.06.12Zm-8.49-1a8.57,8.57,0,0,1-3.42-5.92h.14a17.33,17.33,0,0,1,4,.6c.87.29,1,.52.82,1.42a16.88,16.88,0,0,1-1.5,3.79.47.47,0,0,1-.07.12Zm5.08-5.4a1.36,1.36,0,1,1,1.35-1.35,1.35,1.35,0,0,1-1.35,1.35Z"/><path class="cls-109" d="M770.5,740.92l108.32-7.58c-7.85-13.78-40.73-16-61.87-12.27C800.35,724,784.73,731.93,770.5,740.92Z"/><path class="cls-108" d="M896.45,734.07c-6.75-.55-15.52-8.63-19.25-13.78,7,1.88,13.06,5.33,18.82,13.17Z"/><path class="cls-109" d="M878.86,720.77l1.75,1.92c3.44,3.76,8.45,7.94,13,9.59l2.18.82C890.53,726.13,885.08,722.71,878.86,720.77Z"/><path class="cls-108" d="M828.2,719.73l-2.53,17.33,7-.49.86-17.09C831.72,719.53,829.94,719.61,828.2,719.73Z"/><path class="cls-108" d="M861.86,722.55l6.87,11.5,2.93-.21-6.09-10.09C864.38,723.32,863.14,722.92,861.86,722.55Z"/><path class="cls-108" d="M787.54,732.22l-2.39,7.67-13.12.92a1.56,1.56,0,0,1,.31-1c4.57-2.83,9.27-5.53,14.1-8Z"/><path class="cls-108" d="M778,737.1,781.08,768l69.82-.73,21.78-28.75-9-14.82.62-.38,9.3,15.25L851.27,768q-35.46.39-70.91.74l-3.08-31.64Z"/><polygon class="cls-108" points="831.21 720.12 829.46 736.33 830.29 767.88 829.55 767.87 828.73 736.37 830.45 720.47 831.21 720.12"/><path class="cls-108" d="M770.5,740.92l108.32-7.58c-7.85-13.78-40.73-16-61.87-12.27-16.6,2.95-32.22,10.86-46.45,19.85Zm4.39-1.42c13-7.9,27.22-14.67,42.26-17.34A113.21,113.21,0,0,1,840,720.6a86,86,0,0,1,23.38,3.58c4.73,1.53,10.26,4.06,13.43,8.19Z"/><path class="cls-104" d="M787.4,732.24c1.58,0,1.81,2.08,1.89,3.38.14,2.58-.88,3.8-3.73,3.75a3.25,3.25,0,0,1-2.64-1.42C781.11,735.21,785.21,732.19,787.4,732.24Z"/><path class="cls-105" d="M789.28,736.66a16.13,16.13,0,0,0-4,0,18.28,18.28,0,0,0-2.55,1,3.27,3.27,0,0,1-1.19.38l0,1.43a4.14,4.14,0,0,0,1.93-.41c1-.47,1.16-1,3.06-1.08a10.06,10.06,0,0,1,2.17.17,3.25,3.25,0,0,0,.49-1.52Z"/><path class="cls-108" d="M788.78,738.19c-.55.82-1.59,1.21-3.22,1.18a3.45,3.45,0,0,1-1.64-.47,4.05,4.05,0,0,1,2.7-.89,10.06,10.06,0,0,1,2.17.17Z"/><path class="cls-110" d="M412.08,741.77l3.49-.31a4.63,4.63,0,0,1,1.23,3.5l-10.19,1C408,743.05,412.08,741.77,412.08,741.77Z"/><path class="cls-111" d="M435.3,703.07s-24.07,9.6-26.82,13.84,3.6,24.86,3.6,24.86l3.49-.31s.41-13.39-1.14-20.19c9.52,3.86,22.61-2.56,22.61-2.56Z"/><circle class="cls-112" cx="417.78" cy="748.52" r="4.98"/><rect class="cls-113" x="395.09" y="721.42" width="43.28" height="2.7"/><path class="cls-113" d="M387.28,765.12a16.6,16.6,0,1,1,16.6-16.6A16.62,16.62,0,0,1,387.28,765.12Zm0-30.5a13.9,13.9,0,1,0,13.9,13.9A13.92,13.92,0,0,0,387.28,734.62Z"/><path class="cls-113" d="M447,765.12a16.6,16.6,0,1,1,16.59-16.6A16.62,16.62,0,0,1,447,765.12Zm0-30.5a13.9,13.9,0,1,0,13.9,13.9A13.92,13.92,0,0,0,447,734.62Z"/><rect class="cls-113" x="371.56" y="725.74" width="44.93" height="2.7" transform="translate(-417.75 885.04) rotate(-72.56)"/><polygon class="cls-113" points="420.64 749.53 418.39 748.05 439.85 715.5 445.65 713.93 446.36 716.53 441.54 717.84 420.64 749.53"/><polygon class="cls-113" points="448.93 750.14 416.01 750.14 401.46 723.43 403.83 722.14 417.61 747.44 445.08 747.44 436.29 723.24 438.82 722.32 448.93 750.14"/><path class="cls-113" d="M410.52,710.38h-2.7v-.87a2.5,2.5,0,0,0-2.5-2.5H394.91v-2.69h10.41a5.2,5.2,0,0,1,5.2,5.19Z"/><path class="cls-110" d="M417.61,754l3.22-.67a4.75,4.75,0,0,1,1.78,3.28L412,759.28C412.88,756.36,417.61,754,417.61,754Z"/><polygon class="cls-114" points="414.92 673.37 416.66 681.28 422.51 675.23 417.59 672.16 414.92 673.37"/><path class="cls-110" d="M422.51,675.23s18.93,12.14,23.42,36.25H425l-8.3-30.2Z"/><path class="cls-114" d="M421.17,687c1.4,1.93,4,5.92,5.77,6.74-3.91-.72-15.79,9.35-15.79,9.35l.81,2.06s21-4.76,21.82-8.61c.59-2.65-4.14-10.62-6.5-13.93a3.77,3.77,0,0,0-4.32-1.35h0A3.75,3.75,0,0,0,421.17,687Z"/><path class="cls-114" d="M419,669.85a9.5,9.5,0,0,0,.4-1.39c0-.2.1-.52.14-.81a8.59,8.59,0,0,0,.1-1,9.14,9.14,0,0,0-.23-2.49,8.89,8.89,0,0,0-2.14-4.06c-3.92-4.15-9.36-1.61-11.06,3.69h0c-1.63,5.44,2.25,12.38,6.12,12.54,2.43.1,4.91-2.37,6.27-5.44a1.17,1.17,0,0,0,.05-.11C418.8,670.47,418.91,670.19,419,669.85Z"/><path class="cls-114" d="M408.87,707l2.67-1.46a1.31,1.31,0,0,0,.53-1.74h0a1.28,1.28,0,0,0-1.31-.7l-3.06.36a1.92,1.92,0,0,0-1.7,2.27A2,2,0,0,0,408.87,707Z"/><path class="cls-115" d="M425,711.48l-11.65,13.87,4.3,28.6,3.18-.67s6.29-18.8-.76-24.42c0,0,21.9-7.38,23-17.38Z"/><path class="cls-116" d="M404.88,664.72l6.08-1.59.32,2.08,3.06-.48,3.54,7.58,3.31-4.87C421.37,653,406.18,654.75,404.88,664.72Z"/><path class="cls-93" d="M844.46,399.54a9,9,0,0,0-5.2,12.31l18.16-6.2A10.67,10.67,0,0,0,844.46,399.54Z"/><rect class="cls-117" x="1005.92" y="715.86" width="5.85" height="46.78"/><rect class="cls-118" x="1011.77" y="715.86" width="5.85" height="46.78"/><polygon class="cls-119" points="1080.66 691.21 1042.83 734.44 965.31 734.44 1003.06 691.21 1080.66 691.21"/><path class="cls-120" d="M1086.24,689l-84.55-.26-41,47.37h85.4Zm-36,4.37-12.75,15h-20.15l12.75-15Zm-39,15H991.08l12.75-15H1024ZM987.14,713h20.15l-15.71,18.53H971.43Zm26.23,0h20.15l-15.71,18.53H997.66Zm10.52,18.53L1039.6,713h20.15L1044,731.49Zm39.8-23.16h-20.15l12.75-15h20.15Z"/><polygon class="cls-18" points="960.7 736.12 964.43 739.86 1049.76 739.86 1046.1 736.12 960.7 736.12"/><polygon class="cls-121" points="1046.1 736.12 1086.24 689.01 1089.37 692.13 1049.76 739.86 1046.1 736.12"/><rect class="cls-117" x="1121.83" y="715.86" width="5.85" height="46.78"/><rect class="cls-118" x="1127.68" y="715.86" width="5.85" height="46.78"/><polygon class="cls-119" points="1196.57 691.21 1158.75 734.44 1081.22 734.44 1118.97 691.21 1196.57 691.21"/><path class="cls-120" d="M1202.15,689l-84.55-.26-41,47.37H1162Zm-36,4.37-12.75,15h-20.15l12.75-15Zm-39,15H1107l12.75-15h20.15ZM1103.05,713h20.15l-15.71,18.53h-20.15Zm26.23,0h20.15l-15.71,18.53h-20.15Zm10.52,18.53L1155.51,713h20.15L1160,731.49Zm39.81-23.16h-20.15l12.74-15h20.15Z"/><polygon class="cls-18" points="1076.61 736.12 1080.35 739.86 1165.68 739.86 1162.01 736.12 1076.61 736.12"/><polygon class="cls-121" points="1162.01 736.12 1202.15 689.01 1205.28 692.13 1165.68 739.86 1162.01 736.12"/></g></g></svg>