<?xml version="1.0" encoding="utf-8"?>
<!-- Generator: Adobe Illustrator 23.0.3, SVG Export Plug-In . SVG Version: 6.00 Build 0)  -->
<svg version="1.1" xmlns="http://www.w3.org/2000/svg" xmlns:xlink="http://www.w3.org/1999/xlink" x="0px" y="0px"
	 viewBox="0 0 2340 1560" style="enable-background:new 0 0 2340 1560;" xml:space="preserve">
<style type="text/css">
	.st0{fill:#fff;}
	.st1{fill:none;stroke:#5A4CD3;stroke-width:3;stroke-miterlimit:10;stroke-dasharray:12;}
	.st2{fill:#F56739;}
	.st3{fill:none;stroke:#FFFFFF;stroke-width:3;stroke-linejoin:round;stroke-miterlimit:10;}
	.st4{fill:#E55730;}
	.st5{fill:#D5D3F8;}
	.st6{fill:none;stroke:#5A4CD3;stroke-width:3;stroke-miterlimit:10;}
	.st7{opacity:0.6;fill:#FFFFFF;}
	.st8{fill:none;stroke:#B8B8F6;stroke-width:3;stroke-miterlimit:10;}
	.st9{fill:#F2B2A6;}
	.st10{fill:#5A4CD3;}
	.st11{fill:#B8B8F6;}
	.st12{fill:#463794;}
	.st13{fill:#F4F4F4;}
	.st14{fill:#EA9EA8;}
	.st15{fill:none;stroke:#000000;stroke-miterlimit:10;}
	.st16{fill:#750C46;}
	.st17{fill:#FFFFFF;}
	.st18{fill:#951757;}
	.st19{fill:#720C44;}
	.st20{fill:#1B0F3D;}
	.st21{stroke:#000000;stroke-miterlimit:10;}
	.st22{fill:#CCCCCC;}
	.st23{fill:#D88493;}
	.st24{fill:none;stroke:#1B0F3D;stroke-width:3;stroke-miterlimit:10;}
	.st25{fill:none;stroke:#463794;stroke-width:3;stroke-miterlimit:10;}
	.st26{fill:#05B0A7;}
	.st27{fill:#097E87;}
	.st28{fill:none;stroke:#FFFFFF;stroke-width:3;stroke-linejoin:round;}
	.st29{fill:none;stroke:#FFFFFF;stroke-width:3;stroke-linejoin:round;stroke-dasharray:10.8327,10.8327;}
	.st30{fill:none;stroke:#FFFFFF;stroke-width:3;stroke-linejoin:round;stroke-miterlimit:10;stroke-dasharray:12;}
	.st31{fill:#1CC6BA;}
</style>
<g id="Background">
	<rect class="st0" width="2340" height="1560"/>
</g>
<g id="OBJECTS">
	<path id="Shape_1_" class="st1" d="M2033.28,1400.28c0,0,369.65-249.12,133.18-529.53c-131.26-155.65-372.66-287.34-572.43-549.3
		c-92.59-121.42-262.34-232.33-449.84-232.33c-376.06,0-434.63,409.45-771.66,511.81s-85.2,799.35-85.2,799.35"/>
	<g id="Plant">
		<path class="st2" d="M369.67,964.6c0,0-120.21-21.54-181.67-156.66s28.82-54.36,36.83-35.45c8.01,18.91,34.96,24.42,40.89,26.06
			C271.64,800.2,323.89,817.14,369.67,964.6z"/>
		<path class="st3" d="M187.11,761.55c0,0,113.18,153.14,182.56,203.06"/>
		<path class="st4" d="M260.22,797.11c0,0-20.66-64.47-0.63-82.73c20.04-18.26,28.46,31.95,49.44,43.9
			c20.99,11.96,79.69,119.26,60.63,206.32C369.67,964.6,269.45,886.88,260.22,797.11z"/>
		<path class="st3" d="M268.61,750.02c0,0,69.96,169.14,101.05,214.58"/>
	</g>
	<g id="Screen">
		<path class="st5" d="M947.31,763.04H351.24c-26.9,0-48.7-21.81-48.7-48.7V318.57c0-26.9,21.81-48.7,48.7-48.7h596.07
			c26.9,0,48.7,21.81,48.7,48.7v395.77C996.01,741.24,974.21,763.04,947.31,763.04z"/>
		<line class="st6" x1="222.96" y1="342.13" x2="511.72" y2="342.13"/>
	</g>
	<path id="Shape" class="st7" d="M420.77,1400.28c0,0-328.15-241.63-118.23-513.61C419.06,735.7,633.36,607.97,810.69,353.88
		c82.2-117.77,232.88-225.35,399.34-225.35c333.84,0,385.83,397.14,685.02,496.42s75.63,775.32,75.63,775.32H420.77z"/>
	<g id="Icons">
		<polyline class="st8" points="1740.32,1009.17 1174.93,737.87 844.49,918.22 470.41,640.05 		"/>
		<g>
			<polyline class="st6" points="470.41,947.06 1035.8,675.76 1366.24,856.12 1740.32,577.94 			"/>
			<circle class="st2" cx="470.41" cy="947.06" r="30.02"/>
			<circle class="st2" cx="1038.91" cy="675.76" r="30.02"/>
			<circle class="st2" cx="1366.65" cy="856.65" r="30.02"/>
		</g>
		<g>
			<path class="st9" d="M1327.94,309.11c0,52.72-42.74,95.46-95.47,95.46c-52.72,0-95.46-42.74-95.46-95.46s42.74-95.46,95.46-95.46
				c12.92,0,25.23,2.57,36.47,7.22l-36.47,88.24l88.71-35.34C1325.54,284.7,1327.94,296.62,1327.94,309.11z"/>
			<path class="st10" d="M1339.8,255.15l-88.71,35.34l36.47-88.24C1311.33,212.07,1330.26,231.23,1339.8,255.15z"/>
		</g>
		<g>
			<path class="st10" d="M1472.42,1220.91c34.8,0,63.01,28.21,63.01,63.02c0,34.8-28.21,63.01-63.01,63.01s-63.01-28.21-63.01-63.01
				c0-8.53,1.7-16.65,4.77-24.07l58.24,24.07l-23.33-58.55C1456.31,1222.5,1464.18,1220.91,1472.42,1220.91z"/>
			<path class="st8" d="M1436.8,1213.08l23.33,58.55l-58.24-24.07C1408.37,1231.88,1421.01,1219.38,1436.8,1213.08z"/>
		</g>
		<g>
			<path class="st11" d="M1412.64,529.6l32.9,32.9c2.66,2.66,2.66,6.98,0,9.64l0,0c-2.66,2.66-6.98,2.66-9.64,0l-32.9-32.9
				c1.82-1.32,3.56-2.8,5.2-4.44C1409.83,533.16,1411.31,531.42,1412.64,529.6z"/>
			<path class="st12" d="M1347.8,474.41c-16.68,16.68-16.68,43.72-0.01,60.39c15.04,15.04,38.49,16.52,55.2,4.44
				c1.82-1.32,3.56-2.8,5.2-4.44c1.64-1.64,3.12-3.39,4.44-5.2c12.07-16.69,10.59-40.15-4.45-55.19
				C1391.51,457.73,1364.47,457.73,1347.8,474.41z M1407.91,524.87c-1.26,1.87-2.72,3.63-4.36,5.28c-1.65,1.65-3.42,3.1-5.28,4.36
				c-14.06,9.56-33.36,8.1-45.83-4.36c-14.11-14.11-14.11-36.99,0.01-51.1c14.11-14.11,36.99-14.11,51.1,0
				C1416.01,491.52,1417.46,510.82,1407.91,524.87z"/>
			<path class="st13" d="M1403.54,479.05c12.47,12.47,13.92,31.76,4.37,45.82c-1.26,1.87-2.72,3.63-4.36,5.28
				c-1.65,1.65-3.42,3.1-5.28,4.36c-14.06,9.56-33.36,8.1-45.83-4.36c-14.11-14.11-14.11-36.99,0.01-51.1
				C1366.55,464.95,1389.43,464.95,1403.54,479.05z"/>
		</g>
		<g>
			<path class="st5" d="M1648.89,315.34h-131.02c-25.86,0-46.82-20.96-46.82-46.82v0c0-25.86,20.96-46.82,46.82-46.82h84.2
				c25.86,0,46.82,20.96,46.82,46.82V315.34z"/>
			<g>
				<rect x="1495.27" y="251.21" class="st10" width="129.4" height="6.25"/>
				<rect x="1495.27" y="265.4" class="st10" width="129.4" height="6.25"/>
				<rect x="1495.27" y="279.59" class="st10" width="129.4" height="6.25"/>
			</g>
		</g>
		<g>
			<path class="st5" d="M1325.21,1035.78h131.02c25.86,0,46.82-20.96,46.82-46.82v0c0-25.86-20.96-46.82-46.82-46.82h-84.2
				c-25.86,0-46.82,20.96-46.82,46.82V1035.78z"/>
			<g>
				
					<rect x="1349.42" y="971.64" transform="matrix(-1 -4.489754e-11 4.489754e-11 -1 2828.2507 1949.5315)" class="st10" width="129.4" height="6.25"/>
				
					<rect x="1349.42" y="985.83" transform="matrix(-1 -4.489754e-11 4.489754e-11 -1 2828.2507 1977.92)" class="st10" width="129.4" height="6.25"/>
				
					<rect x="1349.42" y="1000.03" transform="matrix(-1 -4.489754e-11 4.489754e-11 -1 2828.2507 2006.3085)" class="st10" width="129.4" height="6.25"/>
			</g>
		</g>
	</g>
	<g id="Character03">
		<path class="st14" d="M1819.3,254.54l-0.49,0.37l-39.14,29.63l-42.49,7.69l-13.47-7.69l-5.24-26.04l-3.61-17.95
			c-2.23-11.05,5.31-21.69,16.47-23.27l63.42-8.96c11.17-1.58,21.37,6.58,22.27,17.83l1.79,22.26v0.03L1819.3,254.54z"/>
		<path class="st14" d="M1818.81,281.07v-32.66c0,0,4.4-4.78,10.06-6.78c5.09-1.82,11.2-1.38,16.04,6.78
			C1855.14,265.66,1818.81,281.07,1818.81,281.07z"/>
		<path class="st15" d="M1824,254.9c0,0,7-8.75,14.16-2.71"/>
		<polygon class="st14" points="1761.41,1321.39 1761.41,1345.09 1709.16,1345.09 1709.16,1319.23 		"/>
		<path class="st16" d="M1776.19,1399.28h-146.65l0,0c-3.52-13.96,6.71-27.62,21.1-28.18l29.3-1.14l29.23-24.86h52.25
			L1776.19,1399.28z"/>
		<path class="st2" d="M1828.87,241.63c-5.66,2-10.06,6.78-10.06,6.78l-1.79-22.26c-0.9-11.25-11.1-19.41-22.27-17.83l-63.42,8.96
			c-11.16,1.58-18.7,12.22-16.47,23.27l3.61,17.95l-12.83-50.03c-2.78-10.83,5.4-21.38,16.59-21.38h74.46
			c16.05,0,29.35,12.44,30.43,28.46L1828.87,241.63z"/>
		<path class="st15" d="M1752.1,247.29l2.28,35.19c0,0,2.38,3.89,8.19,0.97"/>
		<path d="M1775.95,229.08c0,0-7.49-4.87-14.77-2.58l1.02,3.79C1762.19,230.29,1771.78,228.49,1775.95,229.08z"/>
		<path d="M1734.01,235.49c0,0-7.49-4.87-14.77-2.58l1.02,3.79C1720.25,236.7,1729.84,234.9,1734.01,235.49z"/>
		<path class="st2" d="M1822.34,292.23c0,0-9.19,24.61-30.35,35.32c-5.43,2.74-11.74,4.6-18.7,5.84
			c-20.68,3.68-41.15-6.91-45.29-27.5l-4.29-21.35l13.47,7.69l42.49-7.69l40.99-39.97L1822.34,292.23z"/>
		<path class="st14" d="M1827.86,360.83l-25.65,27.61l-28.92-23.1v-32.95c7.06-0.27,13.27-2.1,18.7-4.84
			c21.16-10.71,30.35-35.32,30.35-35.32L1827.86,360.83z"/>
		<path d="M1739.81,265.4c-5.29,1.37-11.3-1.36-13.19-7.23l10.57-1.74C1737.19,256.43,1741.83,259.08,1739.81,265.4z"/>
		<path class="st17" d="M1749.77,256.71l-4.41,5.19c-1.55,1.82-3.5,2.97-5.55,3.5c2.02-6.32-2.62-8.97-2.62-8.97l11.36-1.87
			C1749.76,254.36,1750.56,255.78,1749.77,256.71z"/>
		<path d="M1776.77,258.15c-5.29,1.38-11.3-1.35-13.19-7.22l10.56-1.74C1774.14,249.19,1778.79,251.83,1776.77,258.15z"/>
		<path class="st17" d="M1786.72,249.47l-4.41,5.18c-1.55,1.83-3.49,2.97-5.54,3.5c2.02-6.32-2.63-8.96-2.63-8.96l11.37-1.88
			C1786.72,247.11,1787.52,248.53,1786.72,249.47z"/>
		<path d="M1803.42,319.62c-2.75,8.39-19.7,27.43-30.13,30.17v-17.4C1780.35,332.12,1797.99,322.36,1803.42,319.62z"/>
		<path class="st18" d="M1704.73,440.8v189.98c28.8,30.31,67.71,41.43,67.71,41.43c3.44,0.72,6.79,1.28,10.05,1.68
			c46.28,5.74,73.56-18.66,74.31-19.35l0.02-0.01l31.25-202.11l6.99-58.63c-32.8-17.46-67.93-34.7-67.93-34.7l-28.92,23.1
			l-24.91-23.67l-69.96,13.86L1704.73,440.8z"/>
		<circle class="st2" cx="1731.02" cy="587.02" r="30.02"/>
		<path class="st19" d="M1871.9,557l-15.08,97.53c0,0-32.29,27.28-82.38,17.68C1774.44,672.21,1849.68,676.48,1871.9,557z"/>
		<path class="st20" d="M1772.44,1319.23l78.57,2.16v-286.65l31.54-256.64l-25.73-123.57l-0.02,0.01
			c-0.75,0.69-28.03,25.09-74.31,19.35c-3.26-0.4-6.61-0.96-10.05-1.68c-2.48,27.93-3.64,87.01-3.99,158.62
			C1767.44,1027.67,1772.44,1319.23,1772.44,1319.23z"/>
		<path class="st20" d="M1648.89,987.96l46.37,333.43l77.18-2.16l-37.15-331.27l33.16-157.13c0.35-71.61,3.51-130.69,5.99-158.62
			c0,0-40.91-11.12-69.71-41.43L1648.89,987.96z"/>
		<polygon class="st14" points="1835.09,1321.39 1835.09,1345.09 1782.84,1345.09 1782.84,1319.23 		"/>
		<path class="st18" d="M1849.87,1399.28h-146.65l0,0c-3.52-13.96,6.71-27.62,21.1-28.18l29.3-1.14l29.23-24.86h52.25
			L1849.87,1399.28z"/>
		<path class="st14" d="M1524.98,684.16c0,0-31.67,34.42-43.01,50.95c-11.34,16.53,6.54,26.93,6.54,26.93l36.99-36.99l-5.3,16.92
			c-1.25,4,2.27,8.79,6.73,9.16l0,0l16.94-48.08L1524.98,684.16z"/>
		<polygon class="st18" points="1703.33,372.38 1623.93,576.94 1525.02,684.59 1542.08,707.33 1669.4,615.24 1706.74,521.94 		"/>
		<line class="st15" x1="1723.71" y1="284.54" x2="1723.7" y2="284.54"/>
		<path class="st17" d="M1777.28,303.38c0,0,17.61-0.08,17.11-22.31L1777.28,303.38z"/>
		<path class="st14" d="M1799.19,614.37c0,0-46.77,0.7-66.65-1.85c-19.88-2.55-15.73-22.82-15.73-22.82l52.23-2.96l-16.15-7.31
			c-3.81-1.73-5.04-7.54-2.35-11.12l0,0l47.15,19.38L1799.19,614.37z"/>
		<polyline class="st3" points="1770.5,749.05 1768.45,830.83 1768.81,1015.85 1773,1313 		"/>
		<polyline class="st3" points="1761.04,360.95 1799.19,401 1824.4,374.32 		"/>
		<path class="st18" d="M1895.05,393.79c0,0,73.34,147.56,75.61,169.16c2.27,21.6-176.27,59.12-176.27,59.12v-52.29l100.66-36.38
			l-25.51-40.1C1847.72,458.98,1859.41,413.37,1895.05,393.79L1895.05,393.79z"/>
		<polyline class="st3" points="1895.05,533.39 1794.4,569.77 1794.4,622.06 		"/>
		<line class="st3" x1="1703.33" y1="371.38" x2="1702.73" y2="564.86"/>
		<line class="st3" x1="1895.05" y1="392.79" x2="1874.89" y2="540.68"/>
	</g>
	<g id="Character02">
		<path class="st20" d="M904.43,1320.23l-78.57,2.16v-286.65c0,0-21.84-153.67-26.76-236.15c-1.01-17.1-1.3-31.13-0.52-40.11
			c1.76-20.21,5.37-40.33,9.13-57.4c5.97-27.11,12.34-46.55,12.34-46.55l0.02,0.01c0.75,0.69,28.03,25.09,74.31,19.35
			c3.26-0.4,7.61-0.96,11.05-1.68c2.48,27.93,2.64,87.01,2.99,158.62C909.43,1028.67,904.43,1320.23,904.43,1320.23z"/>
		<path class="st20" d="M1008.89,988.96l-27.28,333.43l-77.18-2.16l18.06-331.27l-14.07-157.13c-9.04-69.33-1.51-130.69-3.99-158.62
			c0,0,38.91-11.12,67.71-41.43L1008.89,988.96z"/>
		<path class="st14" d="M781.82,796.49c0,0,1.61,46.74,4.64,66.44c3.03,19.71,19.56,14.42,19.56,14.42v-52.31l6.78,15.71
			c1.6,3.71,6.46,4.61,9.28,1.72l0,0l-14.81-45.98H781.82z"/>
		<path class="st14" d="M1211.51,563.95c0,0,46.74-1.95,66.44-5.62c19.71-3.67,14.42-23.67,14.42-23.67h-52.31l15.71-8.21
			c3.71-1.94,4.61-7.82,1.72-11.24v0l-45.98,22.02V563.95z"/>
		<path class="st14" d="M897.8,274.65l6.51,80.93l-25.64,27.61l-28.93-23.1v-32.96c-19.98,6.49-41.15-5.9-45.29-26.49l-9.53-47.39
			l-3.61-17.95c-2.22-11.05,5.31-21.69,16.47-23.27l63.42-8.96c11.17-1.58,21.37,6.58,22.27,17.83l1.79,22.26
			c0,0,4.4-4.78,10.06-6.79c5.09-1.81,11.2-1.38,16.04,6.79C929.92,257.6,905.86,270.75,897.8,274.65z"/>
		<polygon class="st14" points="915.89,1320.25 915.46,1346.09 967.7,1346.09 967.7,1322 		"/>
		<path class="st4" d="M900.68,1400.28h146.65l0,0c3.52-13.96-6.71-27.62-21.1-28.18l-29.3-1.14l-29.23-24.86h-52.25L900.68,1400.28
			z"/>
		<path class="st12" d="M905.32,236.37c-5.66,2.01-10.06,6.79-10.06,6.79l-1.79-22.26c-0.9-11.25-11.1-19.41-22.27-17.83
			l-63.42,8.96c-11.16,1.58-18.69,12.22-16.47,23.27l3.61,17.95l-11-42.86c-3.31-12.92,8.35-24.7,21.3-21.52
			c1.24,0.31,2.5,0.45,3.74,0.45c4.03,0,7.95-1.55,10.91-4.4l2.53-2.45c13.34-12.88,34.36-13.24,48.14-0.84
			c2.91,2.61,6.65,4.02,10.49,4.02c1.03,0,2.06-0.1,3.08-0.3c1.05-0.21,2.09-0.31,3.11-0.31c8.07,0,15.07,6.25,15.63,14.65
			L905.32,236.37z"/>
		<path class="st15" d="M828.55,242.04l2.28,35.19c0,0,2.38,3.89,8.19,0.97"/>
		<path d="M796.91,237.83c0,0,3.79-8.1,11.18-9.99l1.14,3.76C809.23,231.59,800.13,235.12,796.91,237.83z"/>
		<path d="M852.39,223.83c0,0-7.49-4.87-14.77-2.58l1.02,3.79C838.64,225.04,848.23,223.23,852.39,223.83z"/>
		<path d="M816.26,260.15c-5.29,1.37-11.3-1.36-13.19-7.23l10.56-1.74C813.63,251.18,818.28,253.82,816.26,260.15z"/>
		<path class="st17" d="M826.22,251.46l-4.41,5.19c-1.55,1.82-3.5,2.97-5.55,3.5c2.02-6.33-2.63-8.97-2.63-8.97l11.37-1.87
			C826.21,249.11,827.01,250.53,826.22,251.46z"/>
		<path d="M855.19,252.2L855.19,252.2c-5.29,1.39-11.3-1.35-13.2-7.22l10.57-1.74C852.56,243.24,857.21,245.89,855.19,252.2z"/>
		<path class="st17" d="M865.14,243.53l-4.41,5.18c-1.55,1.82-3.49,2.97-5.54,3.49c2.02-6.31-2.63-8.96-2.63-8.96l11.36-1.87
			C865.13,241.17,865.94,242.59,865.14,243.53z"/>
		<path class="st15" d="M853.73,298.13c0,0,17.61-0.08,17.11-22.31"/>
		<path class="st21" d="M849.74,327.13c0,0,13.79-3.35,21.11-14.7c0,0-3.8,27.56-21.11,32.1V327.13z"/>
		<path class="st22" d="M807.27,796.49c-2.98,1.53-5.7,2.52-8.17,3.1c-11.37,2.7-17.29-3.1-17.29-3.1s-74.94-355.2-48.16-373.89
			c5.01-3.49,12.21-7.87,20.6-12.68c0,0,26.39,14.14,36.67,64.36v0.03l1.34,102.4c0,0,10.61,27.28,13.64,52.04
			c1.22,9.93,1.68,38.87,1.8,69.97c0,1.12,0.01,2.24,0.01,3.36C807.84,747.62,807.27,796.49,807.27,796.49z"/>
		<path class="st22" d="M1219.21,567.1c0,0-163.71,53.06-186.44,15.16c-22.74-37.89-58.51-119.6-58.51-119.6s5.28-56.52,26.4-83.91
			c11.51,2.77,20.84,11.18,24.77,22.35l41.19,135.43l148.04-13.89L1219.21,567.1z"/>
		<path class="st10" d="M1000.66,378.75c-21.12,27.39-26.4,83.91-26.4,83.91l-2.12,169.12c-28.8,30.31-67.71,41.43-67.71,41.43
			c-15.03-1.01-59.24-17.94-70.65-27.47c-11.23-9.38-41.88-166.44-42.84-171.34c-0.01-0.08-0.02-0.12-0.02-0.12
			c-10.28-50.22-36.67-64.36-36.67-64.36c36.47-20.87,95.49-49.83,95.49-49.83l28.92,23.1l25.64-27.61L1000.66,378.75z"/>
		<polygon class="st14" points="841.78,1321.95 841.78,1346.09 894.03,1346.09 894.03,1320.23 		"/>
		<path class="st2" d="M827,1400.28h146.65h0c3.52-13.96-6.71-27.62-21.1-28.18l-29.3-1.14l-29.23-24.86h-52.25L827,1400.28z"/>
		<path class="st15" d="M896.03,254.72c0,0,9.41-13.18,15.8-9.8"/>
		<circle class="st23" cx="865.46" cy="262.43" r="10.8"/>
		<circle class="st23" cx="815.73" cy="278.49" r="10.8"/>
		<polyline class="st24" points="837.62,366.1 882.33,404.57 919.46,360.09 		"/>
		<path class="st12" d="M904.43,673.21c-3.44,0.72-6.79,1.28-10.05,1.68c-46.28,5.74-73.56-18.66-74.31-19.35l-0.02-0.01
			L790.94,474.4c0.96,4.9,31.61,161.96,42.84,171.34C845.19,655.27,889.4,672.2,904.43,673.21z"/>
		<path class="st24" d="M790.94,474.4c-0.01-0.03-0.01-0.06-0.02-0.09c-7.46-46.41-36.67-64.39-36.67-64.39"/>
		<path class="st24" d="M1000.66,378.75c0,0-23.41,29.45-26.4,83.91"/>
		<path class="st24" d="M1201.65,514.39c0,0-0.64,34.4,6.25,56.19"/>
		<path class="st24" d="M808.41,782.35c0,0-11.47,7.58-43.31,4.04"/>
		<polyline class="st3" points="928.94,708.33 908.42,831.83 908.42,1017.55 904.43,1320.23 		"/>
		<path class="st3" d="M767.8,402.35c0,0,44.07,6.31,69.82,264.14"/>
		<path class="st3" d="M982.37,375.32c0,0-43.2,69.26-20.46,266.31"/>
	</g>
	<g id="Shapes">
		<g>
			<circle class="st5" cx="1525.02" cy="416.16" r="26.9"/>
			<circle class="st6" cx="1525.02" cy="416.16" r="31.88"/>
			<circle class="st8" cx="1525.02" cy="416.16" r="40.84"/>
		</g>
		<g>
			<circle class="st11" cx="1233.18" cy="675.63" r="19.54"/>
			<circle class="st6" cx="1233.18" cy="675.63" r="23.15"/>
			<circle class="st8" cx="1233.18" cy="675.63" r="29.66"/>
		</g>
		<g>
			<circle class="st11" cx="1034.94" cy="278.49" r="8.62"/>
			<circle class="st25" cx="1034.94" cy="278.49" r="13.09"/>
		</g>
		<g>
			<circle class="st11" cx="1957.91" cy="724.09" r="8.62"/>
			<circle class="st25" cx="1957.91" cy="724.09" r="13.09"/>
		</g>
		<g>
			<circle class="st12" cx="1408.09" cy="382.91" r="8.62"/>
			<circle class="st8" cx="1408.09" cy="382.91" r="13.09"/>
		</g>
		<g>
			<circle class="st11" cx="481.09" cy="382.09" r="8.62"/>
			<circle class="st25" cx="481.09" cy="382.09" r="13.09"/>
		</g>
	</g>
	<g id="PLants">
		<g>
			<g>
				<g>
					<path class="st26" d="M2044.64,901.34c-0.09-0.99,27.49-8.13,58.01-42.45c29.65-33.49,62.25-94.16,52.07-182.78
						c-14.82-87.09-30.08-93.32-37.64-77.83c-8.2,15.93-8.69,53.56-8.68,64.41c3.99,22.44-15,41.58-18.98,45.78
						c-1.81,1.98-11.35,13.94-18.48,42.67C2062.98,780.12,2057.45,825.88,2044.64,901.34z"/>
				</g>
			</g>
			<path class="st3" d="M2130.1,629.8c-0.58-0.8,3.69,55.53-10.85,116.26c-12.73,61.19-44.29,126.78-74.61,155.28"/>
			<g>
				<path class="st27" d="M2093.11,704.4c1.33-0.25-16.15-69.82-42.4-71.84c-24.42-2.76-2.58,41.78-14.12,62.04
					c-5.48,10.17-7,42.82-6.96,81.45c0.5,38.92,2.56,83.83,15.01,125.28c-0.56-0.24,22.18-22.28,38.71-60.81
					C2100.18,802.86,2110.79,748.71,2093.11,704.4z"/>
			</g>
			<path class="st3" d="M2063.6,667.07c-0.56-0.33,10.2,45.63,8.08,98.29c-0.57,52.57-14.02,111.83-27.03,135.98"/>
		</g>
		<g>
			<path class="st11" d="M1970.36,1399.47c0,0-65.94-220.55,109.14-438.82s115.96,2.27,90.95,31.83
				c-25.01,29.56-11.37,79.58-9.09,90.95S2179.54,1197.11,1970.36,1399.47z"/>
			<path class="st3" d="M2156.8,919.72c0,0-161.43,320.59-186.44,479.75"/>
			<path class="st10" d="M2159.12,1072.95c0,0,90.9-89.57,138.65-71.38s-29.56,75.03-31.83,120.51
				c-2.27,45.47-132.9,235.45-295.58,277.39C1970.36,1399.47,2015.93,1164.8,2159.12,1072.95z"/>
			<path class="st3" d="M2245.48,1047.05c0,0-225.09,261.47-275.12,352.42"/>
			<path class="st4" d="M1971.16,1399.23c0,0-93.98-266.93-77.28-411.02C1893.88,988.21,1958.66,1205.4,1971.16,1399.23z"/>
			<path class="st2" d="M1965.47,1001.22c0,0-64.84,220.07,4.7,398.25C1970.17,1399.47,2017.62,1149.53,1965.47,1001.22z"/>
		</g>
		<g>
			<path class="st11" d="M437.27,1399.47c0,0,57.6-192.66-95.34-383.33s-101.29,1.99-79.45,27.81c21.85,25.82,9.93,69.52,7.94,79.45
				C268.45,1133.33,254.55,1222.7,437.27,1399.47z"/>
			<path class="st3" d="M274.41,980.39c0,0,141.02,280.05,162.87,419.08"/>
			<path class="st10" d="M272.38,1114.24c0,0-79.41-78.24-121.11-62.35s25.82,65.54,27.81,105.27
				c1.99,39.72,116.1,205.68,258.2,242.31C437.27,1399.47,397.47,1194.47,272.38,1114.24z"/>
			<path class="st3" d="M196.95,1091.62c0,0,196.63,228.41,240.33,307.86"/>
		</g>
	</g>
	<g id="Character01">
		<g>
			<path class="st14" d="M667.47,420.33c0,0,43.96,13.64,55.33,21.22c11.37,7.58,56.84,344.84,56.84,344.84s-3.03,13.64-24.25,13.64
				l-39.22-144.69c-1.04-3.83-1.46-7.79-1.24-11.75l1.81-33.41L667.47,420.33z"/>
			<path class="st14" d="M779.63,786.39c0,0,8.34,36.38-7.58,72l-3.1,6.48c-2.59,5.43-9.71,6.77-14.11,2.66h0
				c-2.46-2.3-3.41-5.79-2.46-9.03l10.57-35.74l-9.57,14.35c-1.43,2.14-4.29,2.77-6.48,1.42l0,0c-1.87-1.15-2.72-3.43-2.05-5.53
				l10.53-32.98L779.63,786.39z"/>
			<path class="st20" d="M524.73,381.92c0,0,43.8,43.58,169.01,9.85c0,0-17.59-115.96-40.7-135.66c-4.13-3.52-9.49-6.48-15.62-8.74
				c-41.84-15.38-86.59,12.93-96.72,60.11L524.73,381.92z"/>
			<path class="st14" d="M647.89,382.67l7.31,37.3l0.27,1.36c-19.68,12.69-35.64,1.99-40.3-1.82c-0.91-0.74-1.39-1.22-1.39-1.22
				l-25.01-67.34c-5.16,0.63-29.56,2.83-31.59-10.72c-2-13.38,18.06-13.26,22.79-13.05c-7.03-21.45,7.33-44.23,29.99-46.93
				l36.25-4.31c8.27-0.99,15.99,4.26,18.15,12.31c2.33,8.67,5.49,22.09,9.29,42.13C681.99,374.34,647.89,382.67,647.89,382.67z"/>
			<path d="M647.89,382.67c0,0-12.38,3.28-29.31-3.28c0,0,11.95,12.92,31.49,14.42L647.89,382.67z"/>
			<path d="M624.65,321.1h-0.01c-10.98,3.21-13.69-7.6-13.69-7.6c3.26-1.34,6.99-1.93,10.86-0.66
				C625.47,314.04,626.61,318.33,624.65,321.1z"/>
			<path class="st13" d="M624.64,321.1c-0.43,0.62-1.03,1.16-1.78,1.57c-4.01,2.21-10.98,3.26-22.97-0.88c0,0,4.59-5.63,11.06-8.29
				C610.95,313.5,613.66,324.31,624.64,321.1z"/>
			<path d="M665.91,311.83c-10.84,3.19-13.62-7.31-13.7-7.59c3.26-1.35,6.99-1.93,10.86-0.66
				C666.73,304.77,667.87,309.06,665.91,311.83z"/>
			<path class="st13" d="M665.91,311.83c-0.44,0.62-1.03,1.16-1.79,1.58c-4.01,2.2-10.98,3.25-22.97-0.89c0,0,4.59-5.63,11.06-8.28
				C652.29,304.52,655.07,315.02,665.91,311.83z"/>
			<path class="st15" d="M652.21,304.24C652.21,304.23,652.21,304.23,652.21,304.24"/>
			<path class="st15" d="M633.36,305.12l13.77,32.46c0,0-0.38,4.55-6.88,4.55"/>
			<path d="M597.49,309.11c0,0,3.79-8.1,11.18-9.99l1.14,3.76C609.8,302.87,600.71,306.41,597.49,309.11z"/>
			<path d="M638.88,298.13c0,0,3.79-8.1,11.18-9.99l1.14,3.76C651.19,291.89,642.1,295.43,638.88,298.13z"/>
			<path class="st15" d="M621.55,355.58c0,0,3.55-0.22,4.05-4.75"/>
			<path class="st15" d="M623.85,354.55c0,0,6.99,11.26,23.28,11.07"/>
			<path class="st14" d="M568.04,522.64l-55.59,92.05c-6.97,11.54-23.98,10.69-29.76-1.5l-63.81-126.93l-42.26-9.95
				c-4.5-1.65-7.31-5.91-7.31-10.48c0-1.12,0.17-2.27,0.53-3.4c1.63-5.09,6.63-8.31,11.93-7.68l42.41,4.99l9.32-21.61
				c1.03-2.39,3.25-3.6,5.48-3.6c2.11,0,4.22,1.09,5.32,3.3c0.7,1.41,0.82,3.04,0.32,4.54l-9.83,29.49
				c11.29,17.56,44.9,64.71,56.15,80.45c1.66,2.33,5.21,2,6.43-0.59c10.91-23.16,51.76-108.38,65.5-116.24
				C562.87,435.48,592.16,438.13,568.04,522.64z"/>
			<path class="st20" d="M672.77,683.32l-21.22,90.94l-6.07,195.54v344.84c-9.09,17.43-24.25,0-24.25,0s-18.19-88.67-33.35-157.64
				c-15.15-68.97,4.55-123.54,4.55-123.54c-20.82-46.49-46.72-245.46-50.95-278.72c-0.41-3.26-0.26-6.56,0.45-9.77
				c14.38-64.56,62.62-120.01,62.62-120.01s13.1,15.19,49.9,13.37c4.87-0.24,10.16-0.79,15.89-1.7L672.77,683.32z"/>
			<path class="st20" d="M748.83,1312.48c0,0-10.61,17.44-21.98,0c0,0-70.76-159.27-39.68-257.8l4.54-9.85
				c0,0-43.2-113.68-40.16-270.57l19.22-90.94l-0.42-46.69c9.43-1.5,20.05-4.02,31.98-7.88c0,0,1.77,2.93,4.64,7.78
				c29.07,49.1,42.67,105.82,39.09,162.76l-15.69,249.33L748.83,1312.48z"/>
			<path class="st26" d="M621.23,1314.64l-11.75,25.01v60.63h6.16v-42.82l21.96,42.82h68.14l0,0c0-14.16-9.86-26.4-23.7-29.42
				l-1.46-0.32c-14.37-3.13-25.63-14.29-28.89-28.63l-6.21-27.28H621.23z"/>
			<path class="st27" d="M726.84,1314.64l-11.75,25.01v60.63h6.16v-42.82l21.96,42.82h68.14l0,0c0-14.16-9.86-26.4-23.7-29.42
				l-1.46-0.32c-14.37-3.13-25.63-14.29-28.89-28.63l-6.21-27.28H726.84z"/>
			<path class="st26" d="M714.37,525.75c-0.69,1.48-1.42,2.97-2.19,4.47l-9.85,98.53c-11.93,3.86-22.55,6.38-31.98,7.88
				c-5.73,0.91-11.02,1.46-15.89,1.7c-36.8,1.82-49.9-13.37-49.9-13.37l-36.52-102.32c24.12-84.51-5.17-87.16-5.17-87.16
				c11.14-6.36,37.48-12.72,52.3-15.97c4.66,3.81,20.62,14.51,40.3,1.82l-0.27-1.36l3.93,0.36h8.33l34.02,34.01
				C720.26,473.12,725.6,501.68,714.37,525.75z"/>
			<path class="st3" d="M587.78,605.65c0,0,54.21,25.45,84.99,14.21c23.71-8.66,24.28,11.03,9.41,14.47l-8.66,1.99
				c0,0-16.18,2.79-25.08,2.15c0,0,0.95-14.53,0.82-21.1"/>
			<g>
				<path class="st17" d="M680.44,624.39c-1.36,0-2.46,1.1-2.46,2.46c0,1.36,1.1,2.46,2.46,2.46c1.36,0,2.46-1.1,2.46-2.46
					C682.91,625.49,681.8,624.39,680.44,624.39L680.44,624.39z"/>
			</g>
			<g>
				<path class="st17" d="M666.14,627.61c-1.36,0-2.46,1.1-2.46,2.46s1.1,2.46,2.46,2.46s2.46-1.1,2.46-2.46
					S667.5,627.61,666.14,627.61L666.14,627.61z"/>
			</g>
			<path class="st3" d="M686.84,618.11l17.05-4.95l-1.75,16.16c0,0-14.64,3.78-18.1,4.48"/>
			<path class="st3" d="M577.57,732.49c0,0,34.28,13.82,56.24,0v18.34c0,0-23.18,16.08-56.24,0"/>
			<polyline class="st3" points="670.77,683.32 651.4,764.41 647.7,898.37 645.49,1314.64 			"/>
			<g>
				<g>
					<path class="st28" d="M571.99,431.37c0,0,1.94,1.17,4.41,4.04"/>
					<path class="st29" d="M582.07,444.6c5.73,12.98,8.84,37.09-7.83,78.93"/>
					<path class="st28" d="M572.18,528.55c-0.06,0.15-0.13,0.3-0.19,0.45l-2.3,5.01"/>
				</g>
			</g>
			<path class="st30" d="M663.1,419.51c0,0,37.19,35,47.89,46.96"/>
			<path class="st27" d="M618.58,547.65c43.09-8.07,50.02-31.2,50.02-31.2s20.27,13.11,27.86,15.6
				C727.87,542.35,599.07,551.31,618.58,547.65z"/>
			<path class="st15" d="M580.93,336.59c0,0-9.78-3.42-14.83,3.42"/>
			<circle class="st23" cx="612.27" cy="342.13" r="9.46"/>
			<circle class="st23" cx="661.67" cy="332.66" r="9.46"/>
		</g>
		<path class="st24" d="M520.57,379.39c12.73-159.68,89.25-128.21,89.25-128.21s68.42-41.91,89.25,138.32"/>
	</g>
	<g id="Candle_Chart">
		<rect x="1048.03" y="924.33" class="st26" width="50.3" height="408.84"/>
		<rect x="1162.85" y="988.96" class="st26" width="50.3" height="344.2"/>
		<rect x="1105.37" y="804.96" class="st27" width="50.3" height="528.21"/>
		<rect x="1219.21" y="924.33" class="st31" width="50.3" height="408.84"/>
		<rect x="1276.56" y="1128.74" class="st27" width="50.3" height="204.42"/>
		<line class="st6" x1="1017" y1="1332" x2="1368" y2="1332"/>
	</g>
</g>
</svg>
