<svg xmlns="http://www.w3.org/2000/svg" xmlns:xlink="http://www.w3.org/1999/xlink" width="16" height="14.545" viewBox="0 0 16 14.545">
  <defs>
    <clipPath id="clip-path">
      <rect width="16" height="14.545" fill="none"/>
    </clipPath>
    <clipPath id="clip-path-2">
      <path id="Mask" d="M10.182,14.545a.7.7,0,0,1-.655-.509L5.818,3.055,4.291,7.564A.737.737,0,0,1,3.636,8H.727A.687.687,0,0,1,0,7.273a.687.687,0,0,1,.727-.727h2.4L5.164.509a.675.675,0,0,1,1.309,0l3.709,10.982,1.527-4.509a.7.7,0,0,1,.655-.509h2.909A.687.687,0,0,1,16,7.2a.687.687,0,0,1-.727.727h-2.4l-2.036,6.036A.689.689,0,0,1,10.182,14.545Z" fill="#4b40c5"/>
    </clipPath>
  </defs>
  <g id="icon_music_audio_activity" data-name="icon / music &amp; audio / activity" clip-path="url(#clip-path)">
    <path id="Mask-2" data-name="Mask" d="M10.182,14.545a.7.7,0,0,1-.655-.509L5.818,3.055,4.291,7.564A.737.737,0,0,1,3.636,8H.727A.687.687,0,0,1,0,7.273a.687.687,0,0,1,.727-.727h2.4L5.164.509a.675.675,0,0,1,1.309,0l3.709,10.982,1.527-4.509a.7.7,0,0,1,.655-.509h2.909A.687.687,0,0,1,16,7.2a.687.687,0,0,1-.727.727h-2.4l-2.036,6.036A.689.689,0,0,1,10.182,14.545Z" fill="#4b40c5"/>
  </g>
</svg>
