<svg xmlns="http://www.w3.org/2000/svg" width="25.633" height="16.02" viewBox="0 0 25.633 16.02">
  <g id="Grupo_1404" data-name="Grupo 1404" transform="translate(2230.105 -1159)">
    <g id="Grupo_1389" data-name="Grupo 1389" transform="translate(-2226.368 1160.134)">
      <g id="Grupo_1388" data-name="Grupo 1388" transform="translate(0 0)">
        <path id="Caminho_3038" data-name="Caminho 3038" d="M91.145,128.509c-.5-1.049-2.3-2.5-4.041-3.911-.97-.784-1.886-1.525-2.47-2.109a.534.534,0,0,0-.559-.125c-.36.13-.582.231-.757.309a1.766,1.766,0,0,1-.717.2.534.534,0,0,0-.391.234,1.633,1.633,0,0,1-2.059.858c-.167-.056-.2-.127-.213-.2a3.531,3.531,0,0,1,1.18-2.29c1.736-1.737,2.631-2.171,4.521-1.327,2.145.959,4.294,1.71,4.315,1.717a.534.534,0,0,0,.351-1.009c-.021-.007-2.128-.743-4.229-1.684-2.449-1.095-3.793-.374-5.712,1.547-.731.731-1.723,2.209-1.466,3.293a1.321,1.321,0,0,0,.917.962,2.672,2.672,0,0,0,3.137-1.074,2.7,2.7,0,0,0,.8-.254c.1-.045.218-.1.374-.16.611.574,1.435,1.241,2.3,1.943,1.57,1.27,3.35,2.71,3.751,3.543a.626.626,0,0,1-.159.8.588.588,0,0,1-.658.129.534.534,0,0,0-.834.5.645.645,0,0,1-.409.6.82.82,0,0,1-.832.019.534.534,0,0,0-.9.341,1.015,1.015,0,0,1-.63.818.563.563,0,0,1-.613-.1.54.54,0,0,0-.488-.124.533.533,0,0,0-.375.336c-.02.053-.066.182-.566.182a3.075,3.075,0,0,1-1.308-.448c-.375-.247-2.726-2-4.756-3.7-.285-.24-.779-.755-1.214-1.21-.387-.4-.74-.77-.922-.924a.534.534,0,1,0-.69.816c.166.14.486.478.839.847.476.5.969,1.013,1.3,1.29,1.989,1.665,4.379,3.463,4.855,3.776a4.1,4.1,0,0,0,1.9.622,1.838,1.838,0,0,0,1.212-.357,1.662,1.662,0,0,0,1.214-.013,2.1,2.1,0,0,0,1.112-1.026,2.065,2.065,0,0,0,1.34-.193,1.812,1.812,0,0,0,.892-.931,1.746,1.746,0,0,0,1.225-.439A1.7,1.7,0,0,0,91.145,128.509Z" transform="translate(-74.642 -118.658)" fill="#4b40c5"/>
      </g>
    </g>
    <g id="Grupo_1391" data-name="Grupo 1391" transform="translate(-2224.765 1161.136)">
      <g id="Grupo_1390" data-name="Grupo 1390" transform="translate(0 0)">
        <path id="Caminho_3039" data-name="Caminho 3039" d="M112.006,138.663H107.2a.534.534,0,1,0,0,1.068h4.806a.534.534,0,1,0,0-1.068Z" transform="translate(-106.666 -138.663)" fill="#4b40c5"/>
      </g>
    </g>
    <g id="Grupo_1393" data-name="Grupo 1393" transform="translate(-2210.84 1168.611)">
      <g id="Grupo_1392" data-name="Grupo 1392">
        <path id="Caminho_3040" data-name="Caminho 3040" d="M387.35,288.214a.533.533,0,0,0-.741-.145l-1.561,1.049a.534.534,0,0,0,.6.887l1.562-1.049A.535.535,0,0,0,387.35,288.214Z" transform="translate(-384.811 -287.977)" fill="#4b40c5"/>
      </g>
    </g>
    <g id="Grupo_1395" data-name="Grupo 1395" transform="translate(-2215.686 1168.077)">
      <g id="Grupo_1394" data-name="Grupo 1394" transform="translate(0 0)">
        <path id="Caminho_3041" data-name="Caminho 3041" d="M292.085,280.637c-.382-.3-2.092-2.052-3.15-3.154a.534.534,0,1,0-.771.739c.275.286,2.7,2.81,3.259,3.254a.532.532,0,0,0,.33.114.539.539,0,0,0,.421-.2A.534.534,0,0,0,292.085,280.637Z" transform="translate(-288.016 -277.317)" fill="#4b40c5"/>
      </g>
    </g>
    <g id="Grupo_1397" data-name="Grupo 1397" transform="translate(-2217.289 1169.68)">
      <g id="Grupo_1396" data-name="Grupo 1396" transform="translate(0 0)">
        <path id="Caminho_3042" data-name="Caminho 3042" d="M259.543,312.124c-.64-.512-2.247-2.219-2.61-2.615a.534.534,0,0,0-.787.723c.019.02,1.937,2.091,2.73,2.726a.534.534,0,0,0,.668-.834Z" transform="translate(-256.005 -309.337)" fill="#4b40c5"/>
      </g>
    </g>
    <g id="Grupo_1399" data-name="Grupo 1399" transform="translate(-2219.425 1170.747)">
      <g id="Grupo_1398" data-name="Grupo 1398" transform="translate(0 0)">
        <path id="Caminho_3043" data-name="Caminho 3043" d="M216.892,333.44c-.762-.642-2.32-2.3-2.624-2.626a.534.534,0,0,0-.781.729c.438.469,1.929,2.05,2.716,2.714a.534.534,0,1,0,.689-.817Z" transform="translate(-213.343 -330.644)" fill="#4b40c5"/>
      </g>
    </g>
    <g id="Grupo_1401" data-name="Grupo 1401" transform="translate(-2230.105 1159)">
      <g id="Grupo_1400" data-name="Grupo 1400" transform="translate(0 0)">
        <path id="Caminho_3044" data-name="Caminho 3044" d="M6.242,97.218C5.326,96.35,1.666,96.069.566,96A.534.534,0,0,0,0,96.537v9.612a.534.534,0,0,0,.534.534h3.2a.533.533,0,0,0,.507-.368,55.991,55.991,0,0,0,2.161-8.664A.531.531,0,0,0,6.242,97.218Zm-2.893,8.4H1.068V97.11a16.224,16.224,0,0,1,4.241.757A56.036,56.036,0,0,1,3.348,105.616Z" transform="translate(0 -96.004)" fill="#4b40c5"/>
      </g>
    </g>
    <g id="Grupo_1403" data-name="Grupo 1403" transform="translate(-2211.93 1160.068)">
      <g id="Grupo_1402" data-name="Grupo 1402" transform="translate(0 0)">
        <path id="Caminho_3045" data-name="Caminho 3045" d="M369.97,117.33a16.665,16.665,0,0,0-6.617,1.118.531.531,0,0,0-.285.332.539.539,0,0,0,.059.434,71,71,0,0,1,3.124,8.4.534.534,0,0,0,.515.392h3.2a.534.534,0,0,0,.534-.534v-9.612A.534.534,0,0,0,369.97,117.33Zm-.534,9.612h-2.271c-.506-1.649-2-5.949-2.836-7.726a17.393,17.393,0,0,1,5.106-.812Z" transform="translate(-363.046 -117.33)" fill="#4b40c5"/>
      </g>
    </g>
  </g>
</svg>
