<svg xmlns="http://www.w3.org/2000/svg" width="15" height="15" viewBox="0 0 15 15">
  <path id="Fill_89" data-name="Fill 89" d="M14,15H1a.969.969,0,0,1-1-.933V3.8L13,.067A1.7,1.7,0,0,1,13.4,0a.632.632,0,0,1,.222.038.482.482,0,0,1,.375.5V3.8a.97.97,0,0,1,1,.933v9.333A.969.969,0,0,1,14,15ZM1,4.733V13.6a.485.485,0,0,0,.5.467h12A.485.485,0,0,0,14,13.6V11.267H11.5A.485.485,0,0,1,11,10.8V8.933a.485.485,0,0,1,.5-.467H14V5.2a.485.485,0,0,0-.5-.467ZM12,9.4v.933h2V9.4ZM13,1,3.25,3.8H13Z" transform="translate(0 0)" fill="#4b40c5"/>
</svg>
