<svg xmlns="http://www.w3.org/2000/svg" width="17.018" height="17.001" viewBox="0 0 17.018 17.001">
  <path id="Fill_158" data-name="Fill 158" d="M5.656,17h0c-.01-.012-1.131-1.263-2.268-2.528-1.427-.294-2.867-.583-3.341-.679L0,13.784,2.651,9.263a6.335,6.335,0,0,1,1.24-7.379,6.6,6.6,0,0,1,9.236,0,6.335,6.335,0,0,1,1.239,7.379l2.652,4.521c-.012,0-1.66.333-3.387.688C12.5,15.73,11.37,16.991,11.362,17L8.924,12.843l-.091.006c-.1.007-.212.014-.324.014s-.22-.007-.311-.013H8.181l-.044,0-.044,0L5.656,17ZM3.3,10.3h0l-1.54,2.628.158.045.007,0,.195.056.014,0,1.813.517c.309.3.828.8,1.549,1.486l.035.033,1.409-2.4A6.563,6.563,0,0,1,3.3,10.3Zm10.419,0h0a6.561,6.561,0,0,1-3.639,2.369l1.408,2.4.037-.034c.815-.775,1.32-1.263,1.548-1.485l1.245-.354.258-.073.2-.056.136-.039.351-.1L13.719,10.3ZM8.509,1.055a5.318,5.318,0,1,0,5.31,5.318A5.32,5.32,0,0,0,8.509,1.055Zm0,9.039A3.719,3.719,0,1,1,12.23,6.375,3.724,3.724,0,0,1,8.509,10.094Zm0-6.375a2.656,2.656,0,1,0,2.657,2.656A2.66,2.66,0,0,0,8.509,3.719Z" fill="#4b40c5"/>
</svg>
