<svg xmlns="http://www.w3.org/2000/svg" viewBox="0 0 325.78 62.88"><defs><style>.cls-1{fill:#020101;}</style></defs><title>Amarca-nome0</title><g id="Camada_2" data-name="Camada 2"><g id="MARCA"><path class="cls-1" d="M257.19,45.05h27A4.55,4.55,0,0,0,289,40.29a4.48,4.48,0,0,0-4.75-4.47H273.4a17.84,17.84,0,0,1-17.88-17.91A18.2,18.2,0,0,1,273.4,0h28.76V13.15H274.8a4.66,4.66,0,0,0-4.75,4.48,4.55,4.55,0,0,0,4.75,4.75h10.83a17.67,17.67,0,0,1,17.89,17.91c0,9.24-8.11,17.91-17.89,17.91H257.19Z"/><polygon class="cls-1" points="171.16 0.26 157.35 39.16 143.54 0.26 127.13 0.26 149.52 58.2 165.19 58.2 187.58 0.26 171.16 0.26"/><path class="cls-1" d="M0,29.91A29.48,29.48,0,0,1,29.23.26c16.81,0,28.71,12,28.71,29.65V58.2H43.45V29.91c0-9-6-15.5-14.48-15.5-8.28,0-14.49,6.53-14.49,15.5V58.2H0Z"/><path class="cls-1" d="M125,29.54c0-.1,0-.2,0-.31a29.35,29.35,0,0,0-.45-5.08C122.2,9.68,111.16.26,96.25.26H96a29,29,0,1,0,14.49,54.06V58.2H125V29.91C125,29.79,125,29.66,125,29.54ZM96,43.72a14.49,14.49,0,1,1,13.65-19.3,17.94,17.94,0,0,1,.82,5.12A14.48,14.48,0,0,1,96,43.72Z"/><path class="cls-1" d="M247.42,29.54c0-.1,0-.2,0-.31a28.4,28.4,0,0,0-.46-5.08C244.67,9.68,233.63.26,218.72.26h-.26a29,29,0,1,0,14.48,54.06V58.2h14.49V29.91C247.43,29.79,247.42,29.66,247.42,29.54Zm-29,14.18a14.49,14.49,0,1,1,13.65-19.3,18.29,18.29,0,0,1,.82,5.12A14.48,14.48,0,0,1,218.46,43.72Z"/><polygon class="cls-1" points="321.34 54.16 321.34 49.54 317.19 49.54 317.19 54.16 312.76 54.16 312.76 58.23 317.19 58.23 317.19 62.88 321.34 62.88 321.34 58.23 325.78 58.23 325.78 54.16 321.34 54.16"/></g></g></svg>