<svg xmlns="http://www.w3.org/2000/svg" viewBox="0 0 393.79 347.56"><defs><style>.cls-1{fill:#ebebeb;}.cls-2{fill:#f0f0f0;}.cls-3,.cls-9{fill:#fafafa;}.cls-14,.cls-17,.cls-4{fill:#fff;}.cls-5{fill:#e0e0e0;}.cls-14,.cls-6{opacity:0.6;}.cls-7{fill:#f5f5f5;}.cls-8{fill:#e6e6e6;}.cls-9{opacity:0.5;}.cls-10{fill:#263238;}.cls-11{fill:#ff8b7b;}.cls-12{opacity:0.2;}.cls-13{fill:#407bff;}.cls-15{fill:#ff5652;}.cls-16{fill:#ffc3bd;}.cls-17,.cls-19{opacity:0.4;}.cls-18{opacity:0.3;}.cls-20{fill:#ed847e;}</style></defs><title>Ativo 1</title><g id="Camada_2" data-name="Camada 2"><g id="Background_Complete" data-name="Background Complete"><rect class="cls-1" x="344.56" y="313.04" width="33.12" height="0.25"/><rect class="cls-1" x="248.27" y="312.92" width="8.69" height="0.25"/><rect class="cls-1" x="374.6" y="318.49" width="19.19" height="0.25"/><rect class="cls-1" x="15.3" y="321.81" width="43.19" height="0.25"/><rect class="cls-1" x="48.44" y="310.89" width="6.33" height="0.25"/><rect class="cls-1" x="131.44" y="311.96" width="60.9" height="0.25"/><rect class="cls-2" x="15" y="16.33" width="357.78" height="148.89"/><rect class="cls-3" x="126.44" y="-81.11" width="134.89" height="343.78" transform="translate(284.67 -103.11) rotate(90)"/><polygon class="cls-4" points="67.26 158.22 102.52 23.33 128.52 23.33 93.26 158.22 67.26 158.22"/><polygon class="cls-4" points="99.26 158.22 134.52 23.33 146.15 23.33 110.89 158.22 99.26 158.22"/><polygon class="cls-4" points="156.16 158.22 191.43 23.33 217.43 23.33 182.16 158.22 156.16 158.22"/><polygon class="cls-4" points="221.72 158.22 256.98 23.33 268.62 23.33 233.35 158.22 221.72 158.22"/><rect class="cls-5" x="45.76" y="89.89" width="134.89" height="1.78" transform="translate(203.99 -22.43) rotate(90)"/><rect class="cls-5" x="-44.56" y="89.89" width="134.89" height="1.78" transform="translate(113.67 67.89) rotate(90)"/><rect class="cls-2" x="41.38" y="87.28" width="134.89" height="7" transform="translate(199.6 -18.04) rotate(90)"/><rect class="cls-5" x="132.56" y="89.89" width="134.89" height="1.78" transform="translate(290.78 -109.22) rotate(90)"/><rect class="cls-2" x="128.17" y="87.28" width="134.89" height="7" transform="translate(286.39 -104.83) rotate(90)"/><rect class="cls-5" x="219.39" y="89.89" width="134.89" height="1.78" transform="translate(377.61 -196.06) rotate(90)"/><rect class="cls-2" x="215" y="87.28" width="134.89" height="7" transform="translate(373.22 -191.67) rotate(90)"/><rect class="cls-5" x="299.22" y="89.89" width="148.89" height="1.78" transform="translate(464.44 -282.89) rotate(90)"/><path class="cls-5" d="M378.56,6.11H9.22A1.56,1.56,0,0,1,7.67,4.56h0A1.56,1.56,0,0,1,9.22,3H378.56a1.56,1.56,0,0,1,1.55,1.56h0A1.56,1.56,0,0,1,378.56,6.11Z"/><g class="cls-6"><rect class="cls-7" x="10.67" width="75.56" height="271.67"/><polygon class="cls-8" points="51.61 273.89 45.28 273.89 47.06 2.22 49.89 2.22 51.61 273.89"/><polygon class="cls-8" points="30.64 273.89 27.58 273.89 28.44 2.22 29.81 2.22 30.64 273.89"/><polygon class="cls-8" points="72.64 273.89 69.58 273.89 70.44 2.22 71.81 2.22 72.64 273.89"/></g><g class="cls-6"><rect class="cls-7" x="300.65" width="75.56" height="271.67"/><polygon class="cls-8" points="330.26 273.89 323.93 273.89 325.71 2.22 328.54 2.22 330.26 273.89"/><polygon class="cls-8" points="316.29 273.89 313.23 273.89 314.09 2.22 315.46 2.22 316.29 273.89"/><polygon class="cls-8" points="348.62 273.89 345.57 273.89 346.43 2.22 347.79 2.22 348.62 273.89"/><polygon class="cls-8" points="364.18 273.89 361.12 273.89 361.98 2.22 363.35 2.22 364.18 273.89"/></g><rect class="cls-8" x="269.1" y="219.32" width="14.2" height="81.38" transform="translate(552.41 520.02) rotate(180)"/><rect class="cls-2" x="104.47" y="219.32" width="170.09" height="81.38" transform="translate(379.03 520.02) rotate(180)"/><polygon class="cls-5" points="270.74 300.7 265.62 300.7 111.82 300.7 111.82 302.4 265.62 302.4 270.74 302.4 275.96 302.4 275.96 300.7 270.74 300.7"/><rect class="cls-9" x="109.32" y="224.41" width="160.39" height="32.84" transform="translate(379.03 481.66) rotate(180)"/><rect class="cls-9" x="109.32" y="262.55" width="160.39" height="32.84" transform="translate(379.03 557.94) rotate(180)"/><path class="cls-5" d="M133.64,240.83a3.61,3.61,0,1,1-3.61-3.61A3.61,3.61,0,0,1,133.64,240.83Z"/><path class="cls-5" d="M252.62,240.83a3.61,3.61,0,1,1-3.61-3.61A3.61,3.61,0,0,1,252.62,240.83Z"/><circle class="cls-5" cx="130.03" cy="278.97" r="3.61"/><path class="cls-5" d="M252.62,279a3.61,3.61,0,1,1-3.61-3.61A3.61,3.61,0,0,1,252.62,279Z"/><path class="cls-5" d="M193.13,240.83a3.61,3.61,0,1,1-3.61-3.61A3.61,3.61,0,0,1,193.13,240.83Z"/><circle class="cls-5" cx="189.52" cy="278.97" r="3.61"/><path class="cls-2" d="M264.05,205.5a13.83,13.83,0,0,1-27.65,0Z"/><path class="cls-2" d="M154.78,203a16.29,16.29,0,1,1-32.58,0Z"/><path class="cls-2" d="M224.81,209.73a9.59,9.59,0,0,1-19.18,0Z"/></g><g id="Shadow"><ellipse id="_Path_" data-name="&lt;Path&gt;" class="cls-7" cx="193.89" cy="336.24" rx="193.89" ry="11.32"/></g><g id="Character_2" data-name="Character 2"><path class="cls-10" d="M292,35.36c-2.14-2.13-6.24-10.2-2.3-13.95s7.43-.35,7.7,1.5S297,40.3,292,35.36Z"/><polygon class="cls-11" points="291.13 325.65 282.21 325.73 279.78 305.09 288.7 305.01 291.13 325.65"/><path class="cls-10" d="M282.2,324.7l9.74-.09a.85.85,0,0,1,.8.6l2.36,7.91a1.21,1.21,0,0,1-1.17,1.6c-3.52,0-8.61-.19-13-.15-5.16,0-7.46.36-13.52.42-3.66,0-5-3.66-3.45-4,6.87-1.59,10.42-1.8,16.17-5.57A3.83,3.83,0,0,1,282.2,324.7Z"/><polygon class="cls-12" points="279.78 305.1 281.04 315.74 289.96 315.66 288.71 305.02 279.78 305.1"/><path class="cls-13" d="M278.51,326.29a13.89,13.89,0,0,0,2.86-.35.21.21,0,0,0,.17-.18.21.21,0,0,0-.12-.21c-.43-.21-4.17-2-5.2-1.37a.65.65,0,0,0-.3.57,1.27,1.27,0,0,0,.47,1A3.46,3.46,0,0,0,278.51,326.29Zm2.14-.64c-1.93.34-3.4.27-4-.21a.85.85,0,0,1-.32-.69.22.22,0,0,1,.11-.21C277,324.2,279.11,325,280.65,325.65Z"/><path class="cls-13" d="M281.33,326a.24.24,0,0,0,.13-.05.19.19,0,0,0,.07-.2c0-.16-.7-4-2.82-3.76-.56.06-.72.35-.75.57-.15,1,2.14,2.94,3.28,3.42Zm-2.44-3.6c1.28,0,1.92,2.09,2.14,3-1.18-.66-2.74-2.18-2.66-2.78,0,0,0-.17.38-.21Z"/><path class="cls-11" d="M284.83,80.43l-.92,1-.86.85c-.57.56-1.16,1.09-1.75,1.61q-1.76,1.58-3.6,3a70.93,70.93,0,0,1-7.8,5.38c-1.37.81-2.78,1.58-4.21,2.31s-2.95,1.36-4.47,2a44.5,44.5,0,0,1-9.67,2.65l-.75.11a10.8,10.8,0,0,1-1.44.09,9,9,0,0,1-3.25-.64A8.85,8.85,0,0,1,243.34,97a9.8,9.8,0,0,1-1.66-2.06,13.23,13.23,0,0,1-1.43-3.51,21.61,21.61,0,0,1-.53-2.9,32.76,32.76,0,0,1-.15-5.09c.07-1.62.2-3.18.38-4.71a89.09,89.09,0,0,1,1.58-9c.67-2.93,1.41-5.77,2.38-8.67l6.57,1.3c-.24,5.62-.51,11.38-.33,16.82a40.71,40.71,0,0,0,.8,7.52,8.3,8.3,0,0,0,.41,1.34c.14.34.3.55.3.46a1.06,1.06,0,0,0-.27-.4,3.05,3.05,0,0,0-.94-.62,3.56,3.56,0,0,0-1.14-.27c-.17,0-.25,0-.36,0l.11,0,.21-.06a37.75,37.75,0,0,0,6.88-2.5,60.31,60.31,0,0,0,6.69-3.78c2.17-1.44,4.31-3,6.37-4.65,1-.82,2.05-1.68,3-2.55l1.45-1.32.71-.65.61-.58Z"/><path class="cls-10" d="M290.12,76.9c-.34-9.43-8.08-12.71-17.78-6.28A132.1,132.1,0,0,0,260,79.47l6.27,20.14s12-3.81,18.94-11.29C289.92,83.24,290.23,80.11,290.12,76.9Z"/><path class="cls-12" d="M278.31,80.92S272.52,89.2,270.47,98a56.71,56.71,0,0,0,8.2-4.32Z"/><path class="cls-11" d="M250.15,65.37l3.36-7.59L244,55s-1.63,3.63-.7,9.86Z"/><polygon class="cls-11" points="254.52 48.88 246.25 49.87 244 55 253.51 57.78 254.52 48.88"/><path class="cls-13" d="M278.37,145.26s-6.14,51.46-6.82,79c-.7,28.61,4.91,86.32,4.91,86.32l16.11-.34s1.94-61.78,4.27-90.09c2.55-30.86,9-75.45,9-75.45Z"/><path class="cls-14" d="M278.37,145.26s-6.14,51.46-6.82,79c-.7,28.61,4.91,86.32,4.91,86.32l16.11-.34s1.94-61.78,4.27-90.09c2.55-30.86,9-75.45,9-75.45Z"/><path class="cls-12" d="M297.56,159.83c-7.2,15.87-5.27,51.32-1.18,66.52.15-2.21.31-4.3.47-6.23,1.67-20.34,5-46.63,7.11-62.2C302,155.08,299.81,154.86,297.56,159.83Z"/><polygon class="cls-13" points="294.55 310.93 275.61 311.31 274.21 305.02 294.32 304.97 294.55 310.93"/><polygon class="cls-11" points="330.93 325.65 322.01 325.73 319.58 305.09 328.5 305.01 330.93 325.65"/><path class="cls-10" d="M322,324.7l9.74-.09a.86.86,0,0,1,.81.6l2.35,7.91a1.21,1.21,0,0,1-1.16,1.6c-3.52,0-8.61-.19-13-.15-5.16,0-7.47.36-13.52.42-3.67,0-5-3.66-3.45-4,6.86-1.59,10.41-1.8,16.17-5.57A3.8,3.8,0,0,1,322,324.7Z"/><polygon class="cls-12" points="319.58 305.1 320.83 315.74 329.76 315.66 328.5 305.02 319.58 305.1"/><path class="cls-13" d="M318.31,326.29a14.07,14.07,0,0,0,2.86-.35.21.21,0,0,0,.05-.39c-.43-.21-4.18-2-5.2-1.37a.63.63,0,0,0-.3.57,1.27,1.27,0,0,0,.47,1A3.46,3.46,0,0,0,318.31,326.29Zm2.14-.64c-1.93.34-3.4.27-4-.21a.82.82,0,0,1-.32-.69.21.21,0,0,1,.1-.21C316.79,324.2,318.91,325,320.45,325.65Z"/><path class="cls-13" d="M321.12,326a.19.19,0,0,0,.13-.05.21.21,0,0,0,.08-.2c0-.16-.7-4-2.83-3.76-.56.06-.71.35-.75.57-.14,1,2.15,2.94,3.29,3.42Zm-2.43-3.6c1.27,0,1.91,2.09,2.13,3-1.17-.66-2.74-2.18-2.65-2.78,0,0,0-.17.38-.21Z"/><path class="cls-13" d="M294.09,144.92s4.45,55.37,7.7,82.69c3.37,28.42,14.47,82.94,14.47,82.94l16.11-.34S328,248.31,326.24,220c-1.87-30.91-2.35-75.71-2.35-75.71Z"/><path class="cls-14" d="M294.09,144.92s4.45,55.37,7.7,82.69c3.37,28.42,14.47,82.94,14.47,82.94l16.11-.34S328,248.31,326.24,220c-1.87-30.91-2.35-75.71-2.35-75.71Z"/><polygon class="cls-13" points="334.35 310.93 315.4 311.31 314.01 305.02 334.12 304.97 334.35 310.93"/><path class="cls-10" d="M277.26,68.15s-6.59,24.46,1.11,77.11c14.38-.31,38.53-.87,45.52-1,.17-7.33-5.23-43.27,1.1-77.92A93.82,93.82,0,0,0,311.2,65a174.28,174.28,0,0,0-20.27.44A89.16,89.16,0,0,0,277.26,68.15Z"/><path class="cls-12" d="M322.23,91l-7.45-6.17c.49,4.82,4.85,16.63,7.15,22.61C321.87,102.2,321.94,96.67,322.23,91Z"/><path class="cls-4" d="M295.58,82.33l-8.13,16.09a1.79,1.79,0,0,0,2.42,2.4l5.31-2.92A1.75,1.75,0,0,1,297,98l5.22,3.77a1.74,1.74,0,0,0,2.65-2l-6.11-17.18A1.75,1.75,0,0,0,295.58,82.33Z"/><path class="cls-11" d="M308.71,42.16c-1.14,6.56-2.16,18.54,2.49,22.79,0,0-1.35,5.94-13.76,8-8.34-2.68-6.51-7.52-6.51-7.52,7.23-1.9,6.93-7.29,5.56-12.33Z"/><path class="cls-12" d="M303.73,46.61l-7.24,6.44a21.06,21.06,0,0,1,.7,3.59c2.77-.46,6.53-3.6,6.76-6.51A9.73,9.73,0,0,0,303.73,46.61Z"/><path class="cls-11" d="M312.68,34.09c-2.41,8.52-3.38,13.63-8.7,17.12-8,5.24-17.81-1-18-10.09-.18-8.16,3.78-20.73,13-22.33A12.08,12.08,0,0,1,312.68,34.09Z"/><path class="cls-10" d="M307.55,39.31c-1.12-2.72-1.93-11.68,2.73-13.88s9.53,3.17,8.3,5.71C316.69,35.08,310.15,45.61,307.55,39.31Z"/><path class="cls-10" d="M310.34,28.59c-1.15-3-14.87-4.7-16.78-7.93-2.28-3.84,7.07-4.3,13.5-2.35,5.65,1.72,9.42,3.38,8.76,7.58C315.44,28.27,310.34,28.59,310.34,28.59Z"/><path class="cls-10" d="M313.31,25.5s3,.82,4.65-1.38C317.44,26.3,314.9,28.5,313.31,25.5Z"/><path class="cls-10" d="M299.59,16.25c-4.12-3.2-9.73.56-9.2,4.73s14.42,7.34,14.42,7.34S305.06,20.5,299.59,16.25Z"/><path class="cls-10" d="M290.4,21c.63,2.92,2.76,5.21,7.07,6.91A15.65,15.65,0,0,1,292,20.64Z"/><path class="cls-10" d="M299.05,33.66c-.15.71-.65,1.2-1.1,1.1s-.71-.76-.56-1.46.65-1.19,1.11-1.09S299.21,33,299.05,33.66Z"/><path class="cls-10" d="M291.11,31.94c-.16.7-.65,1.19-1.11,1.09s-.71-.75-.56-1.45.65-1.19,1.11-1.1S291.26,31.24,291.11,31.94Z"/><path class="cls-15" d="M293.56,32.84a25.57,25.57,0,0,1-4.67,5.28c1,1.43,3.23,1.36,3.23,1.36Z"/><path class="cls-10" d="M293.74,41.87h0a6,6,0,0,0,5.4-1.31.21.21,0,0,0,0-.3.22.22,0,0,0-.3,0,5.72,5.72,0,0,1-5,1.19.21.21,0,0,0-.09.42Z"/><path class="cls-10" d="M302,31.62a.43.43,0,0,0,.48-.59,4.25,4.25,0,0,0-3-2.44.43.43,0,0,0-.13.84h0a3.33,3.33,0,0,1,2.35,1.95A.43.43,0,0,0,302,31.62Z"/><path class="cls-10" d="M288.21,28.45a.41.41,0,0,0,.43-.15,3.37,3.37,0,0,1,2.73-1.36.42.42,0,0,0,.08-.84A4.16,4.16,0,0,0,288,27.78a.41.41,0,0,0,.07.59A.35.35,0,0,0,288.21,28.45Z"/><path class="cls-11" d="M327.17,73.16c1.82,3.18,3.34,6.26,4.91,9.43s3,6.36,4.36,9.62,2.66,6.57,3.8,10a101.49,101.49,0,0,1,3.05,10.43l.61,2.73a17.15,17.15,0,0,1,.34,3.9,19.5,19.5,0,0,1-1.59,7.06,31.65,31.65,0,0,1-7.12,10,57.92,57.92,0,0,1-8.69,6.93c-1.51,1-3.07,1.92-4.64,2.8s-3.13,1.69-4.88,2.46L314,142.67c1.2-1,2.54-2,3.78-3.08s2.45-2.18,3.64-3.28a60.25,60.25,0,0,0,6.43-6.95,23,23,0,0,0,4-7.14,8,8,0,0,0,.36-3,5.2,5.2,0,0,0-.23-1.2l-.68-2.24a157.78,157.78,0,0,0-7.2-18.21c-1.37-3-2.83-6-4.29-9s-3-6-4.49-8.85Z"/><path class="cls-10" d="M325.33,66.39C333.67,68.19,339.47,90,339.47,90l-14.91,13.53a57.76,57.76,0,0,1-11-18C309.61,74.59,316.41,64.45,325.33,66.39Z"/><path class="cls-11" d="M315.76,141.68l-9.59.1,5.95,9.67s6.83-1.69,7.44-5.12Z"/><polygon class="cls-11" points="300.2 147.49 305.49 155.25 312.12 151.45 306.17 141.78 300.2 147.49"/><path class="cls-11" d="M315.3,41.89a8.44,8.44,0,0,1-5,4.06c-2.83.83-4.28-1.7-3.52-4.39.68-2.42,3-5.77,5.84-5.42S316.57,39.48,315.3,41.89Z"/></g><g id="Hello"><rect class="cls-13" x="219.64" y="207.76" width="10.69" height="1" transform="translate(-14.47 16.81) rotate(-4.15)"/><rect class="cls-13" x="234.66" y="206.87" width="5.25" height="1" transform="translate(-14.37 17.7) rotate(-4.15)"/><path class="cls-13" d="M285.84,89.27,109.33,102a14,14,0,0,0-12.88,14.89l6,83.22A14,14,0,0,0,117.36,213l10-.72a2.75,2.75,0,0,1,2.94,2.54l1.12,15.42a1.5,1.5,0,0,0,2.64.88l16.74-19.35a4.07,4.07,0,0,1,2.77-1.39l140.32-10.15a14,14,0,0,0,12.89-14.89l-6-83.22A14,14,0,0,0,285.84,89.27Z"/><path class="cls-4" d="M135.12,140.2l9.54-.69.78,10.8,10.42-.75-.78-10.8,9.57-.7,2.24,30.86-9.58.69-.9-12.48-10.42.76.9,12.48-9.53.69Z"/><path class="cls-12" d="M109.33,102a14,14,0,0,0-12.88,14.89l6,83.22A14,14,0,0,0,117.36,213l1.47-.11a11.12,11.12,0,0,0,10.12-9L149.06,99.17Z"/><path class="cls-4" d="M196.81,157.66l-17.17,1.24a5.52,5.52,0,0,0,1.34,3,4,4,0,0,0,3.34,1.22,5,5,0,0,0,2.36-.8,5.86,5.86,0,0,0,1.39-1.52l8.5.17a12.08,12.08,0,0,1-4.33,5.16q-2.62,1.66-7.74,2a16.21,16.21,0,0,1-7.08-.75,10.32,10.32,0,0,1-4.51-3.67,12.07,12.07,0,0,1-2.14-6.29,11.32,11.32,0,0,1,2.75-8.73q3.12-3.48,9-3.91a16.63,16.63,0,0,1,7.68.9,9.86,9.86,0,0,1,4.53,3.91,15.39,15.39,0,0,1,2,7.07Zm-9-3.48a5.75,5.75,0,0,0-1.59-3.46,4.23,4.23,0,0,0-6.08,1,6,6,0,0,0-.77,3.09Z"/><path class="cls-4" d="M199.47,135.55l8.59-.62,2.23,30.85-8.59.62Z"/><path class="cls-4" d="M213.82,134.51l8.59-.62,2.23,30.85-8.59.62Z"/><path class="cls-4" d="M228.26,153.31a11.21,11.21,0,0,1,2.84-8.68q3.21-3.57,9.08-4,6.72-.48,10.43,3.16a12.21,12.21,0,0,1,.51,16.23q-3.18,3.54-9.22,4a13.34,13.34,0,0,1-8.92-2.1A11,11,0,0,1,228.26,153.31Zm8.58-.64a6.81,6.81,0,0,0,1.53,4.33,4,4,0,0,0,6.09-.42,7,7,0,0,0,.86-4.61,6.59,6.59,0,0,0-1.51-4.24,3.72,3.72,0,0,0-3.07-1.2,3.87,3.87,0,0,0-3,1.66A6.67,6.67,0,0,0,236.84,152.67Z"/><path class="cls-4" d="M256.65,131.41l9.16-.66.51,7L265.57,152l-5.66.41-2.75-14Zm2,23.28,8.54-.62.55,7.56-8.55.61Z"/></g><g id="Character_1" data-name="Character 1"><path class="cls-10" d="M106.89,74.6a26.44,26.44,0,0,0,.23,4.38A58.62,58.62,0,0,1,79,81.21,26.47,26.47,0,0,0,79.79,76,15.75,15.75,0,0,1,78,81c-1.78-.34-2.78-.63-2.78-.63s1.82-9.84-1.46-17-1.64-11.16.83-12.29C79.16,37,96.44,39.22,102.3,45c7.42,7.28,7.46,27.79,8.77,32.48-1.08.47-2.15.9-3.22,1.28A13.35,13.35,0,0,1,106.89,74.6Z"/><path class="cls-16" d="M114,96.61l.9,2.85c.32,1,.66,2,1,3,.67,2,1.37,4,2.12,5.92s1.47,3.94,2.25,5.9l1.16,3,.29.74.07.17v0s0,0,0,0a1.35,1.35,0,0,0-.42-.25c-.22-.08-.31,0-.17,0a2.41,2.41,0,0,0,.71-.11,11.12,11.12,0,0,0,2.24-1,40.76,40.76,0,0,0,4.88-3.34c1.62-1.26,3.21-2.61,4.77-4s3.13-2.84,4.64-4.26l3.07,2.6c-1.28,1.84-2.63,3.52-4,5.23s-2.91,3.31-4.5,4.9a38.63,38.63,0,0,1-5.28,4.52,17.76,17.76,0,0,1-3.48,1.9,9.4,9.4,0,0,1-2.41.62,6.55,6.55,0,0,1-3.32-.45,6.31,6.31,0,0,1-2.8-2.34c-.15-.23-.29-.46-.4-.67l-.27-.54-.36-.73c-.48-1-1-2-1.41-2.94-.92-2-1.82-4-2.65-6s-1.64-4.06-2.41-6.12c-.36-1-.72-2.09-1.07-3.14s-.66-2.08-1-3.31Z"/><path class="cls-13" d="M111.67,87.73c3.45.88,5.86,15.06,5.86,15.06l-9.5,6.46s-9.11-14.31-6.45-18.1C104.34,87.21,106.64,86.45,111.67,87.73Z"/><path class="cls-13" d="M111.67,87.73c3.45.88,5.86,15.06,5.86,15.06l-9.5,6.46s-9.11-14.31-6.45-18.1C104.34,87.21,106.64,86.45,111.67,87.73Z"/><path class="cls-17" d="M111.67,87.73c3.45.88,5.86,15.06,5.86,15.06l-9.5,6.46s-9.11-14.31-6.45-18.1C104.34,87.21,106.64,86.45,111.67,87.73Z"/><polygon class="cls-18" points="111.36 90.9 114.01 105.19 108.67 108.81 111.36 90.9"/><path class="cls-16" d="M138.32,105.52l3.16-7.64,3.92,7.64s-2.54,3.8-5.89,2.87Z"/><polygon class="cls-16" points="144.98 97.09 150 99.11 145.4 105.52 141.48 97.88 144.98 97.09"/><polygon class="cls-16" points="93.02 326.45 101.39 326.45 101.94 307.08 93.58 307.08 93.02 326.45"/><polygon class="cls-16" points="36.9 301.5 44.59 304.78 54.65 288.02 46.96 284.74 36.9 301.5"/><path class="cls-10" d="M46.07,303.64l-8-4.92a.65.65,0,0,0-.86.14l-4.81,5.77a1.34,1.34,0,0,0,.37,2c2.82,1.67,4.26,2.33,7.78,4.49,2.17,1.34,5.19,3.5,8.18,5.34s5-1,3.89-2.05c-4.85-4.63-4.71-6.83-5.62-9.57A2.2,2.2,0,0,0,46.07,303.64Z"/><path class="cls-10" d="M101.67,325.48H92.28a.67.67,0,0,0-.67.57l-1.07,7.44A1.33,1.33,0,0,0,91.88,335c3.28-.05,4.85-.25,9-.25,2.54,0,7.8.27,11.31.27s3.69-3.47,2.23-3.79c-6.55-1.41-9.13-3.35-11.34-5.2A2.17,2.17,0,0,0,101.67,325.48Z"/><polygon class="cls-12" points="101.94 307.09 101.66 317.07 93.29 317.07 93.58 307.09 101.94 307.09"/><polygon class="cls-12" points="46.95 284.75 54.65 288.02 49.46 296.66 41.77 293.38 46.95 284.75"/><path class="cls-13" d="M111.67,87.73s4,1.4-4,50.47h-34c.57-13.82.59-22.34-6-50.71a100,100,0,0,1,14.42-1.9,107.26,107.26,0,0,1,15.43,0C104.16,86.19,111.67,87.73,111.67,87.73Z"/><path class="cls-17" d="M111.67,87.73s4,1.4-4,50.47h-34c.57-13.82.59-22.34-6-50.71a100,100,0,0,1,14.42-1.9,107.26,107.26,0,0,1,15.43,0C104.16,86.19,111.67,87.73,111.67,87.73Z"/><path class="cls-4" d="M82.11,85.58a110.17,110.17,0,0,1,15.43,0l2.52.27a4.12,4.12,0,0,1,.47,3.61c-1.09,2.69-5,3-7.84,3-10.51,0-12.29-6.14-12.36-6.4l-.1-.37C80.86,85.66,81.48,85.61,82.11,85.58Z"/><path class="cls-16" d="M83.64,68.22c1,5,2,14.06-1.53,17.37,0,0,1.36,5,10.58,5,10.14,0,4.85-5,4.85-5-5.54-1.32-5.4-5.43-4.43-9.28Z"/><path class="cls-10" d="M84.65,64.69c-1.19,3.93.46,13.23,2.91,16.83-4.83-2.77-6.47-11.21-6.47-11.21Z"/><path class="cls-12" d="M87.5,71.52l5.6,4.78A15.56,15.56,0,0,0,92.63,79c-2.11-.31-5-2.63-5.24-4.84A7.29,7.29,0,0,1,87.5,71.52Z"/><path class="cls-16" d="M79.06,59.36c1.94,8.07,2.58,11.53,7.44,15,7.31,5.21,16.79,1.07,17.31-7.42.46-7.64-2.78-19.55-11.34-21.39A11.32,11.32,0,0,0,79.06,59.36Z"/><path class="cls-13" d="M107.67,138.2s6.6,64.42,6,89.92c-.57,26.52-10.29,87-10.29,87H92.13s1.78-58.95.79-85C91.83,201.74,82.8,138.2,82.8,138.2Z"/><path class="cls-19" d="M107.67,138.2s6.6,64.42,6,89.92c-.57,26.52-10.29,87-10.29,87H92.13s1.78-58.95.79-85C91.83,201.74,82.8,138.2,82.8,138.2Z"/><polygon class="cls-13" points="91.14 315.54 104.41 315.54 105.39 311.31 90.53 310.79 91.14 315.54"/><path class="cls-12" d="M93,154.23C101.37,171,94.7,201.62,91.75,213c-1.51-17.1-4.06-38-6-53.37C87,151,89.18,146.49,93,154.23Z"/><path class="cls-13" d="M98.71,138.2s-7.7,67-13.51,88.47c-6.9,25.53-33.12,69-33.12,69l-10.49-4.46S57.82,241.85,63.1,228.4c11.25-28.7,1.62-71.47,10.61-90.2Z"/><path class="cls-19" d="M98.71,138.2s-7.7,67-13.51,88.47c-6.9,25.53-33.12,69-33.12,69l-10.49-4.46S57.82,241.85,63.1,228.4c11.25-28.7,1.62-71.47,10.61-90.2Z"/><polygon class="cls-13" points="40.14 291.24 53.16 296.78 56.29 293.28 41.27 286.07 40.14 291.24"/><path class="cls-10" d="M91.84,59.47c.11.66.56,1.14,1,1.06s.7-.68.58-1.34-.56-1.14-1-1.07S91.72,58.8,91.84,59.47Z"/><path class="cls-10" d="M99.35,58.15c.11.66.56,1.14,1,1.06s.7-.68.58-1.34-.56-1.14-1-1.07S99.23,57.48,99.35,58.15Z"/><path class="cls-10" d="M99.74,56.88l1.51-.75S100.65,57.52,99.74,56.88Z"/><path class="cls-20" d="M97.56,59.64a17.88,17.88,0,0,0,3.12,3.82,2.92,2.92,0,0,1-2.29.86Z"/><path class="cls-10" d="M95.38,67.45a6.57,6.57,0,0,0,1.13-.1.2.2,0,1,0-.07-.39,5.32,5.32,0,0,1-4.65-1.31.2.2,0,0,0-.28,0,.19.19,0,0,0,0,.28A5.54,5.54,0,0,0,95.38,67.45Z"/><path class="cls-10" d="M81.89,54.62a59,59,0,0,0,1,6.34s5-6.33,5.83-9.72a14.23,14.23,0,0,1-1.15,3.86S94.3,53.63,95,49.19a28.24,28.24,0,0,1-.66,5.91s6.42-2.52,5.83-6.78-10.45-5.91-15-4.47-9,6.11-7.66,12.53,3.91,8.83,3.91,8.83S79.53,58.74,81.89,54.62Z"/><path class="cls-16" d="M78.71,65.44A6.06,6.06,0,0,0,82,68.71c2,.8,3.19-.91,2.84-2.89C84.52,64,83.11,61.47,81,61.51A2.73,2.73,0,0,0,78.71,65.44Z"/><path class="cls-10" d="M83.1,51.55c-1,4,1.08,13.2,3.7,16.67-5-2.53-7-10.89-7-10.89Z"/><path class="cls-10" d="M89.15,57.19a.4.4,0,0,0,.24-.2,3.13,3.13,0,0,1,2.26-1.76.41.41,0,0,0,.35-.44.4.4,0,0,0-.44-.35,3.93,3.93,0,0,0-2.88,2.19.41.41,0,0,0,.18.54A.42.42,0,0,0,89.15,57.19Z"/><path class="cls-10" d="M102.08,54.09a.35.35,0,0,0,.27-.11.4.4,0,0,0,0-.56A4,4,0,0,0,99,52.16a.4.4,0,0,0-.32.47.39.39,0,0,0,.46.31,3.15,3.15,0,0,1,2.67,1A.4.4,0,0,0,102.08,54.09Z"/><path class="cls-16" d="M71.82,99.36c-1.39,4.39-2.72,9-3.85,13.54a102.19,102.19,0,0,0-2.49,13.63l-.08.84c0,.27,0,.33,0,.57,0,.41,0,.89.1,1.41.12,1,.32,2.14.55,3.26.48,2.23,1,4.53,1.69,6.81s1.25,4.6,1.94,6.9l2,6.9L68,154.75c-2.28-4.36-4.26-8.8-6.11-13.38-.89-2.3-1.76-4.62-2.48-7.07-.36-1.22-.7-2.47-1-3.83a18.82,18.82,0,0,1-.3-2.18,10.63,10.63,0,0,1,0-1.25l0-1a65.39,65.39,0,0,1,.7-7.61c.33-2.5.82-4.94,1.34-7.37a124.66,124.66,0,0,1,4-14.37Z"/><path class="cls-13" d="M67.69,87.49c-3.4,1-7.49,12.75-7.49,12.75l13.2,9.44s4.82-9.78,3.39-14.18C75.3,90.92,71.57,86.31,67.69,87.49Z"/><path class="cls-17" d="M67.69,87.49c-3.4,1-7.49,12.75-7.49,12.75l13.2,9.44s4.82-9.78,3.39-14.18C75.3,90.92,71.57,86.31,67.69,87.49Z"/><path class="cls-13" d="M49.45,306.82a1.17,1.17,0,0,0,.71-.7.67.67,0,0,0,0-.68c-.59-.88-3.62-.81-4-.8a.2.2,0,0,0-.18.12A.19.19,0,0,0,46,305c.79.79,2.26,2.08,3.31,1.88ZM46.64,305c1.21,0,2.83.17,3.15.64a.29.29,0,0,1,0,.3.78.78,0,0,1-.55.49C48.69,306.57,47.73,306,46.64,305Z"/><path class="cls-13" d="M47.53,304.79c.92-.29,1.9-.8,2.11-1.37a.7.7,0,0,0-.28-.82,1,1,0,0,0-.85-.21c-1.19.21-2.47,2.25-2.52,2.34a.2.2,0,0,0,0,.2.21.21,0,0,0,.17.1A4.81,4.81,0,0,0,47.53,304.79Zm.92-2,.13,0a.62.62,0,0,1,.53.13c.2.16.19.28.16.37-.2.55-1.72,1.21-2.73,1.34A4.93,4.93,0,0,1,48.45,302.81Z"/><path class="cls-13" d="M104.81,326.94a3.19,3.19,0,0,0,2-.51,1.13,1.13,0,0,0,.36-1,.64.64,0,0,0-.34-.52c-1-.56-4.36,1.14-4.73,1.33a.2.2,0,0,0,.05.37A13.51,13.51,0,0,0,104.81,326.94Zm1.49-1.73a.76.76,0,0,1,.37.07.27.27,0,0,1,.13.22.7.7,0,0,1-.22.63c-.51.46-1.89.54-3.74.23A10.81,10.81,0,0,1,106.3,325.21Z"/><path class="cls-13" d="M102.22,326.65l.08,0c1-.45,3-2.25,2.81-3.2,0-.23-.19-.5-.74-.56a1.44,1.44,0,0,0-1.1.34c-1,.88-1.24,3.13-1.25,3.22a.23.23,0,0,0,.08.18A.19.19,0,0,0,102.22,326.65Zm2-3.39h.12c.36,0,.39.19.39.23.1.57-1.24,2-2.26,2.61a4.59,4.59,0,0,1,1.07-2.58A1,1,0,0,1,104.21,323.26Z"/><path class="cls-10" d="M73.2,136.21l-.86,3c-.12.23.16.47.55.47h35c.31,0,.56-.15.58-.34l.31-3c0-.21-.25-.39-.58-.39H73.76A.63.63,0,0,0,73.2,136.21Z"/><path class="cls-13" d="M77.82,140.05H76.9c-.18,0-.32-.09-.31-.21l.43-4c0-.11.18-.21.36-.21h.92c.18,0,.32.1.31.21l-.43,4C78.17,140,78,140.05,77.82,140.05Z"/><path class="cls-19" d="M77.82,140.05H76.9c-.18,0-.32-.09-.31-.21l.43-4c0-.11.18-.21.36-.21h.92c.18,0,.32.1.31.21l-.43,4C78.17,140,78,140.05,77.82,140.05Z"/><path class="cls-13" d="M105.25,140.05h-.92c-.18,0-.32-.09-.31-.21l.43-4c0-.11.18-.21.36-.21h.92c.19,0,.32.1.31.21l-.43,4C105.6,140,105.44,140.05,105.25,140.05Z"/><path class="cls-19" d="M105.25,140.05h-.92c-.18,0-.32-.09-.31-.21l.43-4c0-.11.18-.21.36-.21h.92c.19,0,.32.1.31.21l-.43,4C105.6,140,105.44,140.05,105.25,140.05Z"/><path class="cls-13" d="M91.54,140.05h-.92c-.19,0-.33-.09-.31-.21l.43-4c0-.11.17-.21.36-.21H92c.18,0,.32.1.31.21l-.44,4C91.88,140,91.72,140.05,91.54,140.05Z"/><path class="cls-19" d="M91.54,140.05h-.92c-.19,0-.33-.09-.31-.21l.43-4c0-.11.17-.21.36-.21H92c.18,0,.32.1.31.21l-.44,4C91.88,140,91.72,140.05,91.54,140.05Z"/><path class="cls-10" d="M92.23,58.19l1.51-.74S93.14,58.84,92.23,58.19Z"/><path class="cls-16" d="M71.4,152.09l7.17,5.5-8.31,1.83s-3.53-4-2.31-7.3Z"/><polygon class="cls-16" points="80.33 164.4 73.29 165.55 69.44 158.33 78.57 157.59 80.33 164.4"/></g></g></svg>